{
.appVersion = "3221";
.formatVersion = 3;
DisplayStrings = (
"/periodcentered.loclCAT/periodcentered.loclCAT.case « »‹›¶§><"
);
axes = (
{
name = wght;
tag = wght;
}
);
classes = (
{

glyphs = (
{
color = 4;
glyphname = A;
lastChange = "2023-10-13 21:35:28 +0000";
layers = (
{
anchors = (
{
name = bottom;
pos = (559,0);
},
{
name = ogonek;
pos = (1187,10);
},
{
name = top;
pos = (1060,2008);
}
);
layerId = m01;
shapes = (
{
closed = 1;
nodes = (
(11,0,o),
(20,10,o),
(53,63,cs),
(645,1024,l),
(1100,1024,l),
(1111,50,ls),
(1111,21,o),
(1115,0,o),
(1168,0,cs),
(1218,0,o),
(1231,19,o),
(1231,60,cs),
(1210,1961,ls),
(1210,1986,o),
(1189,2008,o),
(1152,2008,cs),
(1102,2008,o),
(1091,1986,o),
(1066,1945,cs),
(-77,78,ls),
(-107,29,o),
(-86,0,o),
(-46,0,cs)
);
},
{
closed = 1;
nodes = (
(930,1487,l),
(1100,1788,l),
(1094,1477,l),
(1098,1135,l),
(713,1135,l)
);
}
);
vertWidth = 0;
width = 1388;
},
{
anchors = (
{
name = bottom;
pos = (601,0);
},
{
name = ogonek;
pos = (1112,0);
},
{
name = top;
pos = (1102,2008);
}
);
layerId = "6449507E-FEE0-4D4A-A81F-7CAB6A5803D5";
shapes = (
{
closed = 1;
nodes = (
(171,0,o),
(199,18,o),
(252,104,cs),
(672,786,l),
(1020,786,l),
(1026,143,ls),
(1027,81,o),
(1037,0,o),
(1182,0,cs),
(1297,0,o),
(1337,60,o),
(1336,151,cs),
(1315,1870,ls),
(1314,1933,o),
(1263,2008,o),
(1164,2008,cs),
(1068,2008,o),
(1041,1970,o),
(1000,1904,cs),
(-35,224,ls),
(-130,70,o),
(-17,0,o),
(80,0,cs)
);
},
{
closed = 1;
nodes = (
(934,1275,l),
(1082,1605,l),
(1049,1273,l),
(1040,1082,l),
(833,1082,l)
);
}
);
vertWidth = 0;
width = 1471;
}
);
unicode = 65;
userData = {
KernOnName = A;
};
},
{
color = 5;
glyphname = AE;
lastChange = "2023-10-13 21:43:34 +0000";
layers = (
{
anchors = (
{
name = bottom;
pos = (844,0);
},
{
name = top;
pos = (1345,2008);
}
);
layerId = m01;
shapes = (
{
closed = 1;
nodes = (
(15,0,o),
(31,15,o),
(59,70,cs),
(550,1025,l),
(985,1025,l),
(1051,62,ls),
(1053,31,o),
(1061,0,o),
(1116,0,cs),
(1778,0,ls),
(1832,0,o),
(1845,25,o),
(1845,60,cs),
(1845,93,o),
(1832,113,o),
(1778,113,cs),
(1170,113,l),
(1096,1025,l),
(1821,1025,ls),
(1874,1025,o),
(1887,1049,o),
(1887,1081,cs),
(1887,1116,o),
(1874,1139,o),
(1821,1139,cs),
(1088,1139,l),
(1027,1898,l),
(1911,1898,ls),
(1965,1898,o),
(1977,1919,o),
(1977,1952,cs),
(1977,1984,o),
(1965,2008,o),
(1911,2008,cs),
(961,2008,ls),
(916,2008,o),
(907,1986,o),
(883,1940,cs),
(-80,77,ls),
(-106,25,o),
(-82,0,o),
(-41,0,cs)
);
},
{
closed = 1;
nodes = (
(825,1579,l),
(933,1839,l),
(942,1560,l),
(975,1139,l),
(606,1139,l)
);
}
);
width = 1958;
},
{
anchors = (
{
name = bottom;
pos = (906,0);
},
{
name = top;
pos = (1407,2008);
}
);
layerId = "6449507E-FEE0-4D4A-A81F-7CAB6A5803D5";
shapes = (
{
closed = 1;
nodes = (
(145,0,o),
(194,26,o),
(231,100,cs),
(658,940,l),
(1001,940,l),
(1069,125,ls),
(1075,49,o),
(1126,0,o),
(1219,0,cs),
(1795,0,ls),
(1887,0,o),
(1948,60,o),
(1948,153,cs),
(1948,244,o),
(1899,294,o),
(1800,294,cs),
(1347,294,l),
(1291,940,l),
(1709,940,ls),
(1807,940,o),
(1878,1005,o),
(1878,1083,cs),
(1878,1169,o),
(1818,1222,o),
(1724,1222,cs),
(1267,1222,l),
(1225,1713,l),
(1948,1713,ls),
(2040,1713,o),
(2105,1791,o),
(2105,1872,cs),
(2105,1950,o),
(2049,2008,o),
(1954,2008,cs),
(1037,2008,ls),
(965,2008,o),
(882,1981,o),
(842,1903,cs),
(-53,185,ls),
(-111,74,o),
(-32,0,o),
(62,0,cs)
);
},
{
closed = 1;
nodes = (
(884,1385,l),
(973,1613,l),
(964,1383,l),
(983,1161,l),
(769,1161,l)
);
}
);
width = 2081;
}
);
metricLeft = A;
metricRight = E;
unicode = 198;
},
{
color = 4;
glyphname = B;
lastChange = "2023-10-13 21:27:40 +0000";
layers = (
{
anchors = (
{
name = bottom;
pos = (530,0);
},
{
name = center;
pos = (780,1004);
},
{
name = top;
pos = (1031,2008);
}
);
layerId = m01;
shapes = (
{
closed = 1;
nodes = (
(755,0,o),
(1115,161,o),
(1187,449,cs),
(1267,771,o),
(1074,990,o),
(658,1075,c),
(1029,1088,o),
(1233,1193,o),
(1286,1418,cs),
(1372,1781,o),
(1119,2008,o),
(588,2008,cs),
(540,2008,o),
(520,1995,o),
(507,1944,cs),
(43,82,ls),
(32,36,o),
(52,0,o),
(95,0,cs)
);
},
{
closed = 1;
nodes = (
(405,1012,l),
(889,972,o),
(1134,769,o),
(1063,479,cs),
(1007,252,o),
(705,114,o),
(181,112,c)
);
},
{
closed = 1;
nodes = (
(626,1897,l),
(1029,1892,o),
(1225,1700,o),
(1158,1431,cs),
(1110,1228,o),
(872,1142,o),
(444,1166,c)
);
}
);
vertWidth = 0;
width = 1330;
},
{
anchors = (
{
name = bottom;
pos = (577,0);
},
{
name = center;
pos = (827,1004);
},
{
name = top;
pos = (1078,2008);
}
);
layerId = "6449507E-FEE0-4D4A-A81F-7CAB6A5803D5";
shapes = (
{
closed = 1;
nodes = (
(888,0,o),
(1232,179,o),
(1307,473,cs),
(1373,736,o),
(1280,916,o),
(1020,1025,c),
(1236,1077,o),
(1356,1187,o),
(1398,1360,cs),
(1489,1743,o),
(1255,2008,o),
(665,2008,cs),
(569,2008,o),
(517,1982,o),
(488,1875,cs),
(72,198,ls),
(46,88,o),
(111,0,o),
(210,0,cs)
);
},
{
closed = 1;
nodes = (
(570,915,l),
(853,875,o),
(1059,759,o),
(1008,544,cs),
(966,375,o),
(737,308,o),
(414,296,c)
);
},
{
closed = 1;
nodes = (
(769,1707,l),
(987,1689,o),
(1140,1599,o),
(1094,1415,cs),
(1058,1271,o),
(886,1202,o),
(640,1195,c)
);
}
);
vertWidth = 0;
width = 1424;
}
);
metricLeft = H;
unicode = 66;
},
{
color = 4;
glyphname = C;
lastChange = "2023-10-13 21:35:48 +0000";
layers = (
{
anchors = (
{
name = bottom;
pos = (609,0);
},
{
name = top;
pos = (1010,2008);
}
);
layerId = m01;
shapes = (
{
closed = 1;
nodes = (
(795,-20,o),
(1007,141,o),
(1195,425,cs),
(1259,527,o),
(1269,559,o),
(1269,575,cs),
(1271,604,o),
(1253,615,o),
(1223,618,cs),
(1180,622,o),
(1164,587,o),
(1112,508,cs),
(938,246,o),
(763,93,o),
(621,93,cs),
(394,93,o),
(295,407,o),
(348,853,cs),
(424,1484,o),
(678,1898,o),
(1037,1898,cs),
(1159,1898,o),
(1246,1806,o),
(1295,1675,cs),
(1311,1637,o),
(1342,1621,o),
(1380,1635,cs),
(1416,1646,o),
(1426,1667,o),
(1417,1700,cs),
(1367,1894,o),
(1247,2008,o),
(1055,2008,cs),
(606,2008,o),
(304,1565,o),
(214,820,cs),
(157,318,o),
(308,-20,o),
(618,-20,cs)
);
}
);
vertWidth = 0;
width = 1288;
},
{
anchors = (
{
name = bottom;
pos = (673,20);
},
{
name = top;
pos = (1054,2008);
}
);
layerId = "6449507E-FEE0-4D4A-A81F-7CAB6A5803D5";
shapes = (
{
closed = 1;
nodes = (
(850,-20,o),
(1082,135,o),
(1277,437,cs),
(1357,559,o),
(1363,603,o),
(1363,624,cs),
(1363,687,o),
(1313,757,o),
(1227,762,cs),
(1160,767,o),
(1116,739,o),
(1035,614,cs),
(905,416,o),
(775,279,o),
(668,279,cs),
(502,279,o),
(489,596,o),
(520,853,cs),
(575,1347,o),
(757,1729,o),
(1051,1729,cs),
(1121,1729,o),
(1166,1661,o),
(1194,1589,cs),
(1228,1500,o),
(1310,1467,o),
(1396,1493,cs),
(1479,1519,o),
(1516,1581,o),
(1495,1670,cs),
(1441,1894,o),
(1292,2028,o),
(1066,2028,cs),
(634,2028,o),
(288,1592,o),
(197,848,cs),
(132,281,o),
(340,-20,o),
(666,-20,cs)
);
}
);
vertWidth = 0;
width = 1375;
}
);
unicode = 67;
},
{
color = 4;
glyphname = D;
lastChange = "2023-10-13 21:27:40 +0000";
layers = (
{
anchors = (
{
name = bottom;
pos = (587,0);
},
{
name = center;
pos = (837,1004);
},
{
name = top;
pos = (1088,2008);
}
);
layerId = m01;
shapes = (
{
closed = 1;
nodes = (
(295,0,ls),
(921,0,o),
(1322,413,o),
(1487,1202,cs),
(1588,1680,o),
(1379,2008,o),
(914,2008,cs),
(586,2008,ls),
(527,2008,o),
(518,1991,o),
(507,1946,cs),
(39,67,ls),
(30,30,o),
(44,0,o),
(89,0,cs)
);
},
{
closed = 1;
nodes = (
(626,1897,l),
(897,1897,ls),
(1264,1897,o),
(1444,1607,o),
(1353,1186,cs),
(1210,505,o),
(845,110,o),
(301,110,cs),
(180,110,l)
);
}
);
vertWidth = 0;
width = 1444;
},
{
anchors = (
{
name = bottom;
pos = (633,0);
},
{
name = center;
pos = (883,1004);
},
{
name = top;
pos = (1134,2008);
}
);
layerId = "6449507E-FEE0-4D4A-A81F-7CAB6A5803D5";
shapes = (
{
closed = 1;
nodes = (
(394,0,ls),
(1013,0,o),
(1424,382,o),
(1588,1165,cs),
(1697,1678,o),
(1455,2008,o),
(963,2008,cs),
(659,2008,ls),
(537,2008,o),
(508,1960,o),
(488,1878,cs),
(66,185,ls),
(43,93,o),
(90,0,o),
(209,0,cs)
);
},
{
closed = 1;
nodes = (
(766,1709,l),
(945,1709,ls),
(1226,1709,o),
(1341,1496,o),
(1276,1189,cs),
(1152,627,o),
(876,300,o),
(423,300,cs),
(419,300,l)
);
}
);
vertWidth = 0;
width = 1535;
}
);
metricLeft = H;
unicode = 68;
},
{
color = 4;
glyphname = E;
lastChange = "2023-10-13 21:36:03 +0000";
layers = (
{
anchors = (
{
name = bottom;
pos = (458,0);
},
{
name = ogonek;
pos = (1024,10);
},
{
name = top;
pos = (959,2008);
},
{
name = topleft;
pos = (386,2008);
}
);
layerId = m01;
shapes = (
{
closed = 1;
nodes = (
(1007,0,ls),
(1050,0,o),
(1073,22,o),
(1073,63,cs),
(1073,92,o),
(1052,110,o),
(1008,110,cs),
(180,110,l),
(408,1023,l),
(965,1023,ls),
(1009,1023,o),
(1031,1044,o),
(1031,1078,cs),
(1031,1115,o),
(1010,1131,o),
(965,1131,cs),
(435,1131,l),
(626,1898,l),
(1414,1898,ls),
(1458,1898,o),
(1480,1918,o),
(1480,1955,cs),
(1480,1992,o),
(1459,2008,o),
(1415,2008,cs),
(590,2008,ls),
(532,2008,o),
(518,1990,o),
(507,1944,cs),
(39,69,ls),
(30,31,o),
(43,0,o),
(89,0,cs)
);
}
);
vertWidth = 0;
width = 1185;
},
{
anchors = (
{
name = bottom;
pos = (536,0);
},
{
name = ogonek;
pos = (985,10);
},
{
name = top;
pos = (1037,2008);
},
{
name = topleft;
pos = (386,2008);
}
);
layerId = "6449507E-FEE0-4D4A-A81F-7CAB6A5803D5";
shapes = (
{
closed = 1;
nodes = (
(1051,0,ls),
(1149,0,o),
(1209,65,o),
(1209,153,cs),
(1209,229,o),
(1165,297,o),
(1051,297,cs),
(413,297,l),
(570,926,l),
(1009,926,ls),
(1113,926,o),
(1168,991,o),
(1168,1075,cs),
(1168,1160,o),
(1116,1223,o),
(1009,1223,cs),
(644,1223,l),
(765,1711,l),
(1415,1711,ls),
(1521,1711,o),
(1573,1776,o),
(1573,1860,cs),
(1573,1946,o),
(1524,2008,o),
(1415,2008,cs),
(661,2008,ls),
(547,2008,o),
(508,1959,o),
(487,1873,cs),
(67,187,ls),
(42,87,o),
(96,0,o),
(210,0,cs)
);
}
);
vertWidth = 0;
width = 1341;
}
);
metricLeft = H;
unicode = 69;
},
{
color = 4;
glyphname = F;
lastChange = "2023-10-13 21:27:40 +0000";
layers = (
{
anchors = (
{
name = bottom;
pos = (426,0);
},
{
name = top;
pos = (927,2008);
}
);
layerId = m01;
shapes = (
{
closed = 1;
nodes = (
(145,0,o),
(161,38,o),
(169,70,cs),
(407,1023,l),
(967,1023,ls),
(1010,1023,o),
(1033,1043,o),
(1033,1080,cs),
(1033,1114,o),
(1011,1131,o),
(967,1131,cs),
(434,1131,l),
(625,1898,l),
(1415,1898,ls),
(1459,1898,o),
(1481,1918,o),
(1481,1955,cs),
(1481,1992,o),
(1460,2008,o),
(1416,2008,cs),
(591,2008,ls),
(533,2008,o),
(518,1990,o),
(507,1944,cs),
(39,69,ls),
(30,31,o),
(43,0,o),
(89,0,cs)
);
}
);
vertWidth = 0;
width = 1121;
},
{
anchors = (
{
name = bottom;
pos = (506,0);
},
{
name = top;
pos = (1007,2008);
}
);
layerId = "6449507E-FEE0-4D4A-A81F-7CAB6A5803D5";
shapes = (
{
closed = 1;
nodes = (
(322,0,o),
(357,78,o),
(371,133,cs),
(571,926,l),
(1013,926,ls),
(1117,926,o),
(1171,991,o),
(1171,1074,cs),
(1171,1160,o),
(1122,1222,o),
(1013,1222,cs),
(645,1222,l),
(766,1711,l),
(1418,1711,ls),
(1520,1711,o),
(1575,1776,o),
(1575,1860,cs),
(1575,1946,o),
(1523,2008,o),
(1418,2008,cs),
(662,2008,ls),
(550,2008,o),
(508,1959,o),
(487,1873,cs),
(67,187,ls),
(42,85,o),
(91,0,o),
(208,0,cs)
);
}
);
vertWidth = 0;
width = 1282;
}
);
metricLeft = E;
metricRight = E;
unicode = 70;
},
{
color = 4;
glyphname = G;
lastChange = "2023-10-13 21:27:40 +0000";
layers = (
{
anchors = (
{
name = bottom;
pos = (592,0);
},
{
name = top;
pos = (1093,2008);
}
);
layerId = m01;
shapes = (
{
closed = 1;
nodes = (
(746,-20,o),
(948,117,o),
(1153,480,c),
(1049,67,ls),
(1040,34,o),
(1048,0,o),
(1095,0,cs),
(1155,0,o),
(1171,34,o),
(1179,67,cs),
(1400,953,ls),
(1412,1002,o),
(1380,1023,o),
(1345,1023,cs),
(1295,1023,o),
(1290,1020,o),
(1185,756,cs),
(1032,367,o),
(788,88,o),
(538,88,cs),
(288,88,o),
(245,521,o),
(402,1148,cs),
(526,1632,o),
(764,1898,o),
(1047,1898,cs),
(1153,1898,o),
(1231,1827,o),
(1283,1695,cs),
(1296,1657,o),
(1327,1641,o),
(1370,1655,cs),
(1406,1666,o),
(1416,1688,o),
(1405,1719,cs),
(1336,1913,o),
(1224,2008,o),
(1058,2008,cs),
(680,2008,o),
(402,1663,o),
(263,1114,cs),
(91,427,o),
(191,-20,o),
(520,-20,cs)
);
}
);
vertWidth = 0;
width = 1454;
},
{
anchors = (
{
name = bottom;
pos = (633,0);
},
{
name = top;
pos = (1134,2008);
}
);
layerId = "6449507E-FEE0-4D4A-A81F-7CAB6A5803D5";
shapes = (
{
closed = 1;
nodes = (
(771,-20,o),
(887,111,o),
(996,286,c),
(972,185,ls),
(952,99,o),
(985,0,o),
(1107,0,cs),
(1229,0,o),
(1265,75,o),
(1279,133,cs),
(1479,934,ls),
(1510,1060,o),
(1417,1121,o),
(1334,1121,cs),
(1251,1121,o),
(1212,1095,o),
(1097,817,cs),
(972,510,o),
(791,277,o),
(591,277,cs),
(399,277,o),
(528,954,o),
(567,1108,cs),
(661,1484,o),
(836,1729,o),
(1060,1729,cs),
(1122,1729,o),
(1156,1679,o),
(1184,1609,cs),
(1216,1529,o),
(1288,1482,o),
(1385,1513,cs),
(1481,1539,o),
(1512,1614,o),
(1483,1695,cs),
(1403,1924,o),
(1262,2028,o),
(1073,2028,cs),
(690,2028,o),
(390,1691,o),
(247,1131,cs),
(36,286,o),
(237,-20,o),
(573,-20,cs)
);
}
);
vertWidth = 0;
width = 1536;
}
);
metricLeft = C;
metricRight = H;
unicode = 71;
},
{
color = 4;
glyphname = H;
lastChange = "2023-10-13 21:27:40 +0000";
layers = (
{
anchors = (
{
name = bottom;
pos = (612,0);
},
{
name = center;
pos = (862,1004);
},
{
name = top;
pos = (1113,2008);
},
{
name = topleft;
pos = (386,2008);
}
);
layerId = m01;
shapes = (
{
closed = 1;
nodes = (
(149,0,o),
(160,30,o),
(167,58,cs),
(408,1023,l),
(1327,1023,l),
(1089,68,ls),
(1080,33,o),
(1085,0,o),
(1139,0,cs),
(1191,0,o),
(1208,25,o),
(1215,51,cs),
(1685,1936,ls),
(1697,1983,o),
(1688,2008,o),
(1638,2008,cs),
(1590,2008,o),
(1568,1985,o),
(1561,1958,cs),
(1354,1131,l),
(435,1131,l),
(632,1926,ls),
(644,1975,o),
(629,2008,o),
(588,2008,cs),
(535,2008,o),
(518,1990,o),
(507,1944,cs),
(40,70,ls),
(30,31,o),
(45,0,o),
(90,0,cs)
);
}
);
vertWidth = 0;
width = 1494;
},
{
anchors = (
{
name = bottom;
pos = (664,0);
},
{
name = center;
pos = (914,1004);
},
{
name = top;
pos = (1165,2008);
},
{
name = topleft;
pos = (386,2008);
}
);
layerId = "6449507E-FEE0-4D4A-A81F-7CAB6A5803D5";
shapes = (
{
closed = 1;
nodes = (
(335,0,o),
(364,79,o),
(377,133,cs),
(574,926,l),
(1212,926,l),
(1028,185,ls),
(1008,104,o),
(1026,0,o),
(1171,0,cs),
(1286,0,o),
(1324,70,o),
(1338,125,cs),
(1761,1821,ls),
(1790,1937,o),
(1737,2008,o),
(1620,2008,cs),
(1511,2008,o),
(1464,1940,o),
(1451,1886,cs),
(1286,1222,l),
(648,1222,l),
(794,1810,ls),
(827,1944,o),
(755,2008,o),
(656,2008,cs),
(555,2008,o),
(509,1962,o),
(487,1873,cs),
(67,187,ls),
(42,85,o),
(91,0,o),
(208,0,cs)
);
}
);
vertWidth = 0;
width = 1597;
}
);
unicode = 72;
userData = {
KernOnName = H;
};
},
{
color = 5;
glyphname = Hbar;
lastChange = "2023-10-13 21:47:19 +0000";
layers = (
{
background = {
shapes = (
{
pos = (-82,0);
ref = H;
}
);
};
layerId = m01;
shapes = (
{
closed = 1;
nodes = (
(72,0,o),
(84,35,o),
(91,65,cs),
(253,723,l),
(1170,723,l),
(1008,65,ls),
(1000,32,o),
(1006,0,o),
(1063,0,cs),
(1113,0,o),
(1128,28,o),
(1135,56,cs),
(1598,1937,ls),
(1610,1984,o),
(1599,2008,o),
(1546,2008,cs),
(1500,2008,o),
(1480,1981,o),
(1473,1951,cs),
(1198,836,l),
(281,836,l),
(549,1929,ls),
(562,1981,o),
(548,2008,o),
(506,2008,cs),
(454,2008,o),
(435,1982,o),
(423,1937,cs),
(-37,65,ls),
(-47,24,o),
(-34,0,o),
(15,0,cs)
);
},
{
closed = 1;
nodes = (
(1633,1309,ls),
(1683,1309,o),
(1706,1339,o),
(1708,1373,cs),
(1710,1402,o),
(1692,1432,o),
(1642,1432,cs),
(161,1432,ls),
(109,1432,o),
(89,1397,o),
(87,1365,cs),
(85,1335,o),
(105,1309,o),
(152,1309,cs)
);
}
);
width = 1382;
},
{
background = {
shapes = (
{
pos = (89,0);
ref = H;
}
);
};
layerId = "6449507E-FEE0-4D4A-A81F-7CAB6A5803D5";
shapes = (
{
closed = 1;
nodes = (
(397,0,o),
(451,62,o),
(466,125,cs),
(580,596,l),
(1231,596,l),
(1124,151,ls),
(1103,63,o),
(1151,0,o),
(1251,0,cs),
(1342,0,o),
(1410,52,o),
(1426,114,cs),
(1851,1852,ls),
(1876,1950,o),
(1816,2008,o),
(1719,2008,cs),
(1633,2008,o),
(1564,1960,o),
(1547,1894,cs),
(1297,871,l),
(647,871,l),
(885,1843,ls),
(912,1952,o),
(859,2008,o),
(768,2008,cs),
(685,2008,o),
(602,1969,o),
(581,1880,cs),
(158,151,ls),
(136,65,o),
(194,0,o),
(294,0,cs)
);
},
{
closed = 1;
nodes = (
(1811,1220,ls),
(1878,1220,o),
(1947,1284,o),
(1966,1359,cs),
(1985,1433,o),
(1910,1494,o),
(1844,1494,cs),
(372,1494,ls),
(311,1494,o),
(255,1426,o),
(241,1345,cs),
(230,1275,o),
(291,1220,o),
(340,1220,cs)
);
}
);
width = 1802;
}
);
metricLeft = T;
metricRight = T;
unicode = 294;
},
{
color = 4;
glyphname = I;
lastChange = "2023-10-13 21:36:18 +0000";
layers = (
{
anchors = (
{
name = bottom;
pos = (436,0);
},
{
name = ogonek;
pos = (866,10);
},
{
name = top;
pos = (937,2008);
},
{
name = topleft;
pos = (386,2008);
}
);
layerId = m01;
shapes = (
{
closed = 1;
nodes = (
(846,1900,l),
(399,108,l),
(57,108,ls),
(3,108,o),
(-8,90,o),
(-8,55,cs),
(-8,23,o),
(4,0,o),
(57,0,cs),
(843,0,ls),
(896,0,o),
(908,23,o),
(908,55,cs),
(908,90,o),
(897,108,o),
(843,108,cs),
(529,108,l),
(976,1900,l),
(1315,1900,ls),
(1369,1900,o),
(1381,1920,o),
(1381,1953,cs),
(1381,1985,o),
(1368,2008,o),
(1315,2008,cs),
(531,2008,ls),
(477,2008,o),
(465,1985,o),
(465,1953,cs),
(465,1920,o),
(477,1900,o),
(531,1900,cs)
);
}
);
vertWidth = 0;
width = 1142;
},
{
anchors = (
{
name = bottom;
pos = (517,0);
},
{
name = ogonek;
pos = (862,10);
},
{
name = top;
pos = (1018,2008);
},
{
name = topleft;
pos = (386,2008);
}
);
layerId = "6449507E-FEE0-4D4A-A81F-7CAB6A5803D5";
shapes = (
{
closed = 1;
nodes = (
(787,1711,l),
(435,297,l),
(196,297,ls),
(63,297,o),
(40,224,o),
(40,151,cs),
(40,78,o),
(69,0,o),
(196,0,cs),
(921,0,ls),
(1051,0,o),
(1080,78,o),
(1080,151,cs),
(1080,224,o),
(1054,297,o),
(921,297,cs),
(758,297,l),
(1111,1711,l),
(1349,1711,ls),
(1482,1711,o),
(1505,1787,o),
(1505,1857,cs),
(1505,1933,o),
(1479,2008,o),
(1349,2008,cs),
(624,2008,ls),
(494,2008,o),
(466,1933,o),
(466,1857,cs),
(466,1787,o),
(492,1711,o),
(624,1711,cs)
);
}
);
vertWidth = 0;
width = 1304;
}
);
unicode = 73;
userData = {
KernOnName = I;
};
},
{
color = 4;
glyphname = J;
lastChange = "2023-10-13 21:27:40 +0000";
layers = (
{
anchors = (
{
name = bottom;
pos = (393,0);
},
{
name = top;
pos = (894,2008);
}
);
layerId = m01;
shapes = (
{
closed = 1;
nodes = (
(626,0,o),
(815,208,o),
(912,597,cs),
(1244,1927,ls),
(1256,1977,o),
(1252,2006,o),
(1201,2008,cs),
(1147,2011,o),
(1129,1990,o),
(1118,1944,cs),
(783,599,ls),
(705,287,o),
(556,113,o),
(375,113,cs),
(196,113,o),
(128,247,o),
(128,448,cs),
(128,531,o),
(115,563,o),
(73,563,cs),
(33,563,o),
(5,533,o),
(5,448,cs),
(2,167,o),
(130,0,o),
(367,0,cs)
);
}
);
vertWidth = 0;
width = 1055;
},
{
anchors = (
{
name = bottom;
pos = (473,0);
},
{
name = top;
pos = (974,2008);
}
);
layerId = "6449507E-FEE0-4D4A-A81F-7CAB6A5803D5";
shapes = (
{
closed = 1;
nodes = (
(759,0,o),
(974,193,o),
(1078,609,cs),
(1378,1813,ls),
(1408,1934,o),
(1365,2008,o),
(1248,2008,cs),
(1138,2008,o),
(1090,1962,o),
(1068,1873,cs),
(768,658,ls),
(714,441,o),
(623,299,o),
(493,299,cs),
(382,299,o),
(366,401,o),
(366,510,cs),
(366,692,o),
(298,713,o),
(215,713,cs),
(145,713,o),
(54,684,o),
(54,510,cs),
(54,182,o),
(215,0,o),
(486,0,cs)
);
}
);
vertWidth = 0;
width = 1216;
}
);
unicode = 74;
},
{
color = 4;
glyphname = K;
lastChange = "2023-10-13 21:27:40 +0000";
layers = (
{
anchors = (
{
name = bottom;
pos = (547,0);
},
{
name = top;
pos = (1048,2008);
}
);
guides = (
{
angle = 255.9855;
pos = (402,999);
}
);
layerId = m01;
shapes = (
{
closed = 1;
nodes = (
(1276,0,o),
(1319,46,o),
(1274,106,cs),
(538,1081,l),
(1594,1887,ls),
(1629,1913,o),
(1645,1937,o),
(1645,1966,cs),
(1645,1992,o),
(1632,2008,o),
(1596,2008,cs),
(1577,2008,o),
(1547,1998,o),
(1513,1972,cs),
(439,1148,l),
(633,1926,ls),
(646,1977,o),
(636,2008,o),
(588,2008,cs),
(534,2008,o),
(517,1984,o),
(507,1944,cs),
(43,85,ls),
(33,45,o),
(47,0,o),
(91,0,cs),
(143,0,o),
(161,39,o),
(171,77,cs),
(410,1034,l),
(1152,54,ls),
(1176,23,o),
(1198,0,o),
(1234,0,cs)
);
}
);
vertWidth = 0;
width = 1363;
},
{
anchors = (
{
name = bottom;
pos = (601,0);
},
{
name = top;
pos = (1102,2008);
}
);
layerId = "6449507E-FEE0-4D4A-A81F-7CAB6A5803D5";
shapes = (
{
closed = 1;
nodes = (
(1342,0,o),
(1464,109,o),
(1355,257,cs),
(751,1082,l),
(1623,1722,ls),
(1674,1760,o),
(1706,1802,o),
(1706,1873,cs),
(1706,1940,o),
(1657,2008,o),
(1569,2008,cs),
(1532,2008,o),
(1486,1999,o),
(1428,1956,cs),
(693,1412,l),
(792,1810,ls),
(825,1941,o),
(771,2008,o),
(659,2008,cs),
(550,2008,o),
(508,1954,o),
(488,1875,cs),
(70,200,ls),
(45,98,o),
(104,0,o),
(208,0,cs),
(315,0,o),
(360,76,o),
(378,148,cs),
(547,825,l),
(1090,86,ls),
(1129,33,o),
(1178,0,o),
(1241,0,cs)
);
}
);
vertWidth = 0;
width = 1471;
}
);
metricLeft = H;
unicode = 75;
},
{
color = 4;
glyphname = L;
lastChange = "2023-10-13 21:27:40 +0000";
layers = (
{
anchors = (
{
name = bottom;
pos = (425,0);
},
{
name = center;
pos = (675,1004);
},
{
name = top;
pos = (926,2008);
},
{
name = topright;
pos = (1466,2008);
}
);
layerId = m01;
shapes = (
{
closed = 1;
nodes = (
(916,0,ls),
(979,0,o),
(1010,26,o),
(1010,71,cs),
(1010,96,o),
(991,110,o),
(946,110,cs),
(180,110,l),
(631,1920,ls),
(644,1973,o),
(643,2008,o),
(591,2008,cs),
(533,2008,o),
(518,1990,o),
(507,1944,cs),
(39,69,ls),
(30,31,o),
(43,0,o),
(89,0,cs)
);
}
);
vertWidth = 0;
width = 1120;
},
{
anchors = (
{
name = bottom;
pos = (506,0);
},
{
name = center;
pos = (756,1004);
},
{
name = top;
pos = (1007,2008);
},
{
name = topright;
pos = (1627,2008);
}
);
layerId = "6449507E-FEE0-4D4A-A81F-7CAB6A5803D5";
shapes = (
{
closed = 1;
nodes = (
(962,0,ls),
(1092,0,o),
(1152,78,o),
(1152,164,cs),
(1152,231,o),
(1118,297,o),
(991,297,cs),
(417,297,l),
(793,1805,ls),
(827,1942,o),
(783,2008,o),
(661,2008,cs),
(549,2008,o),
(508,1959,o),
(487,1873,cs),
(67,187,ls),
(42,85,o),
(91,0,o),
(208,0,cs)
);
}
);
vertWidth = 0;
width = 1281;
}
);
metricLeft = E;
metricRight = E;
unicode = 76;
},
{
color = 5;
glyphname = Lslash;
lastChange = "2023-10-13 21:41:46 +0000";
layers = (
{
layerId = m01;
shapes = (
{
closed = 1;
nodes = (
(916,0,ls),
(979,0,o),
(1010,26,o),
(1010,71,cs),
(1010,96,o),
(991,110,o),
(946,110,cs),
(180,110,l),
(631,1920,ls),
(644,1973,o),
(643,2008,o),
(591,2008,cs),
(533,2008,o),
(518,1990,o),
(507,1944,cs),
(39,69,ls),
(30,31,o),
(43,0,o),
(89,0,cs)
);
},
{
closed = 1;
nodes = (
(-17,557,o),
(4,543,o),
(50,567,cs),
(218,657,l),
(300,681,l),
(879,995,ls),
(923,1019,o),
(923,1044,o),
(906,1074,cs),
(892,1101,o),
(872,1114,o),
(828,1091,cs),
(313,810,l),
(236,788,l),
(0,663,ls),
(-46,638,o),
(-47,614,o),
(-34,588,cs)
);
}
);
width = 1120;
},
{
layerId = "6449507E-FEE0-4D4A-A81F-7CAB6A5803D5";
shapes = (
{
closed = 1;
nodes = (
(962,0,ls),
(1092,0,o),
(1152,78,o),
(1152,164,cs),
(1152,231,o),
(1118,297,o),
(991,297,cs),
(417,297,l),
(793,1805,ls),
(827,1942,o),
(783,2008,o),
(661,2008,cs),
(549,2008,o),
(508,1959,o),
(487,1873,cs),
(67,187,ls),
(42,85,o),
(91,0,o),
(208,0,cs)
);
},
{
closed = 1;
nodes = (
(21,487,o),
(94,464,o),
(176,506,cs),
(234,536,l),
(413,592,l),
(996,907,ls),
(1068,947,o),
(1067,999,o),
(1029,1046,cs),
(994,1087,o),
(931,1106,o),
(871,1079,cs),
(469,899,l),
(275,848,l),
(55,735,ls),
(-27,692,o),
(-48,616,o),
(-15,553,cs)
);
}
);
width = 1281;
}
);
metricRight = L;
unicode = 321;
},
{
color = 4;
glyphname = M;
lastChange = "2023-10-13 21:27:40 +0000";
layers = (
{
anchors = (
{
name = bottom;
pos = (817,0);
},
{
name = top;
pos = (1318,2008);
}
);
layerId = m01;
shapes = (
{
closed = 1;
nodes = (
(141,0,o),
(160,27,o),
(169,64,cs),
(601,1800,l),
(759,41,ls),
(762,11,o),
(778,0,o),
(815,0,cs),
(847,0,o),
(875,14,o),
(895,48,cs),
(1927,1786,l),
(1500,75,ls),
(1492,44,o),
(1500,0,o),
(1551,0,cs),
(1606,0,o),
(1618,24,o),
(1625,54,cs),
(2085,1900,ls),
(2106,1986,o),
(2070,2008,o),
(1993,2008,cs),
(1941,2008,o),
(1913,1988,o),
(1892,1952,cs),
(864,219,l),
(711,1948,ls),
(707,1988,o),
(675,2008,o),
(615,2008,cs),
(551,2008,o),
(515,1976,o),
(507,1945,cs),
(42,76,ls),
(32,37,o),
(50,0,o),
(92,0,cs)
);
}
);
vertWidth = 0;
width = 1903;
},
{
anchors = (
{
name = bottom;
pos = (849,0);
},
{
name = top;
pos = (1350,2008);
}
);
layerId = "6449507E-FEE0-4D4A-A81F-7CAB6A5803D5";
shapes = (
{
closed = 1;
nodes = (
(310,0,o),
(356,64,o),
(373,133,cs),
(626,1137,l),
(718,127,ls),
(725,49,o),
(773,0,o),
(871,0,cs),
(931,0,o),
(990,32,o),
(1027,94,cs),
(1629,1087,l),
(1405,192,ls),
(1386,116,o),
(1421,0,o),
(1548,0,cs),
(1665,0,o),
(1693,64,o),
(1707,120,cs),
(2128,1813,ls),
(2167,1971,o),
(2079,2008,o),
(1943,2008,cs),
(1868,2008,o),
(1822,2004,o),
(1734,1857,cs),
(986,602,l),
(872,1839,ls),
(857,2003,o),
(781,2008,o),
(682,2008,cs),
(588,2008,o),
(516,1991,o),
(483,1857,cs),
(68,192,ls),
(44,95,o),
(105,0,o),
(206,0,cs)
);
}
);
vertWidth = 0;
width = 1967;
}
);
metricLeft = H;
metricRight = H;
unicode = 77;
},
{
color = 4;
glyphname = N;
lastChange = "2023-10-13 21:27:40 +0000";
layers = (
{
anchors = (
{
name = bottom;
pos = (613,0);
},
{
name = top;
pos = (1114,2008);
}
);
layerId = m01;
shapes = (
{
closed = 1;
nodes = (
(146,0,o),
(162,35,o),
(170,69,cs),
(597,1781,l),
(1080,44,ls),
(1087,19,o),
(1110,0,o),
(1150,0,cs),
(1191,0,o),
(1211,30,o),
(1218,59,cs),
(1684,1930,ls),
(1697,1984,o),
(1690,2008,o),
(1639,2008,cs),
(1591,2008,o),
(1567,1985,o),
(1558,1947,cs),
(1139,264,l),
(668,1956,ls),
(660,1983,o),
(636,2008,o),
(588,2008,cs),
(531,2008,o),
(519,1991,o),
(507,1944,cs),
(40,70,ls),
(30,30,o),
(43,0,o),
(90,0,cs)
);
}
);
vertWidth = 0;
width = 1495;
},
{
anchors = (
{
name = bottom;
pos = (663,0);
},
{
name = top;
pos = (1164,2008);
}
);
layerId = "6449507E-FEE0-4D4A-A81F-7CAB6A5803D5";
shapes = (
{
closed = 1;
nodes = (
(319,0,o),
(357,71,o),
(374,138,cs),
(681,1358,l),
(1023,104,ls),
(1039,45,o),
(1096,0,o),
(1176,0,cs),
(1273,0,o),
(1324,75,o),
(1338,133,cs),
(1757,1813,ls),
(1790,1946,o),
(1744,2008,o),
(1624,2008,cs),
(1528,2008,o),
(1472,1956,o),
(1452,1878,cs),
(1152,680,l),
(825,1896,ls),
(812,1943,o),
(755,2008,o),
(661,2008,cs),
(542,2008,o),
(508,1959,o),
(487,1873,cs),
(67,187,ls),
(42,85,o),
(85,0,o),
(207,0,cs)
);
}
);
vertWidth = 0;
width = 1595;
}
);
metricLeft = H;
metricRight = H;
unicode = 78;
},
{
color = 5;
glyphname = Eng;
lastChange = "2023-10-13 21:52:14 +0000";
layers = (
{
background = {
shapes = (
{
pos = (-4,0);
ref = H;
}
);
};
layerId = m01;
shapes = (
{
closed = 1;
nodes = (
(139,0,o),
(161,19,o),
(172,65,cs),
(632,1934,ls),
(644,1987,o),
(630,2012,o),
(588,2012,cs),
(542,2012,o),
(519,1992,o),
(506,1942,cs),
(44,65,ls),
(34,21,o),
(50,0,o),
(96,0,cs)
);
},
{
closed = 1;
nodes = (
(497,-592,o),
(572,-587,o),
(661,-575,cs),
(804,-554,o),
(933,-469,o),
(1030,-329,cs),
(1138,-173,o),
(1174,-87,o),
(1242,183,cs),
(1621,1683,ls),
(1672,1880,o),
(1547,2031,o),
(1332,2031,cs),
(1071,2031,o),
(836,1832,o),
(484,1313,c),
(305,1028,l),
(283,936,o),
(282,940,o),
(323,934,cs),
(358,930,o),
(368,935,o),
(388,963,cs),
(870,1683,o),
(1087,1908,o),
(1300,1908,cs),
(1437,1908,o),
(1519,1797,o),
(1485,1663,cs),
(1108,180,ls),
(1052,-46,o),
(1021,-122,o),
(933,-259,cs),
(855,-374,o),
(753,-439,o),
(622,-455,cs),
(535,-464,o),
(483,-468,o),
(437,-468,cs),
(370,-468,o),
(329,-494,o),
(327,-538,cs),
(324,-576,o),
(354,-592,o),
(427,-592,cs)
);
}
);
width = 1493;
},
{
background = {
shapes = (
{
pos = (-1,0);
ref = H;
}
);
};
layerId = "6449507E-FEE0-4D4A-A81F-7CAB6A5803D5";
shapes = (
{
closed = 1;
nodes = (
(302,2,o),
(352,63,o),
(368,126,cs),
(793,1847,ls),
(819,1954,o),
(766,2011,o),
(676,2011,cs),
(593,2011,o),
(512,1972,o),
(490,1884,cs),
(63,152,ls),
(42,66,o),
(100,2,o),
(199,2,cs)
);
},
{
closed = 1;
nodes = (
(503,-573,o),
(618,-573,o),
(717,-558,cs),
(897,-530,o),
(1085,-442,o),
(1176,-312,cs),
(1301,-132,o),
(1316,-30,o),
(1372,209,cs),
(1700,1595,ls),
(1749,1804,o),
(1697,2008,o),
(1366,2008,cs),
(1175,2008,o),
(851,1828,o),
(624,1380,c),
(439,1129,l),
(422,1056,o),
(206,673,o),
(310,673,cs),
(423,673,o),
(467,727,o),
(503,796,c),
(604,1040,o),
(1039,1754,o),
(1318,1754,cs),
(1404,1754,o),
(1411,1713,o),
(1390,1622,cs),
(1043,235,ls),
(997,34,o),
(977,-62,o),
(908,-160,cs),
(854,-237,o),
(783,-276,o),
(668,-291,cs),
(607,-297,o),
(520,-293,o),
(469,-293,cs),
(354,-293,o),
(271,-362,o),
(266,-441,cs),
(261,-519,o),
(326,-573,o),
(444,-573,cs)
);
}
);
width = 1612;
}
);
metricLeft = H;
metricRight = H;
unicode = 330;
},
{
color = 4;
glyphname = O;
lastChange = "2023-10-13 21:27:40 +0000";
layers = (
{
anchors = (
{
name = bottom;
pos = (578,0);
},
{
name = center;
pos = (828,1004);
},
{
name = ogonek;
pos = (1151,10);
},
{
name = top;
pos = (1079,2008);
},
{
name = topleft;
pos = (386,2008);
},
{
name = topright;
pos = (1772,2008);
}
);
layerId = m01;
shapes = (
{
closed = 1;
nodes = (
(982,-20,o),
(1292,402,o),
(1437,1073,cs),
(1556,1628,o),
(1404,2008,o),
(1044,2008,cs),
(591,2008,o),
(300,1547,o),
(211,800,cs),
(154,298,o),
(301,-20,o),
(612,-20,cs)
);
},
{
closed = 1;
nodes = (
(421,1464,o),
(668,1898,o),
(1026,1898,cs),
(1297,1898,o),
(1409,1549,o),
(1304,1059,cs),
(1176,471,o),
(915,93,o),
(614,93,cs),
(388,93,o),
(292,386,o),
(345,833,cs)
);
}
);
vertWidth = 0;
width = 1426;
},
{
anchors = (
{
name = bottom;
pos = (607,0);
},
{
name = center;
pos = (857,1004);
},
{
name = ogonek;
pos = (1204,10);
},
{
name = top;
pos = (1108,2008);
},
{
name = topleft;
pos = (386,2008);
},
{
name = topright;
pos = (1830,2008);
}
);
layerId = "6449507E-FEE0-4D4A-A81F-7CAB6A5803D5";
shapes = (
{
closed = 1;
nodes = (
(1019,-20,o),
(1371,382,o),
(1519,1066,cs),
(1657,1693,o),
(1444,2028,o),
(1070,2028,cs),
(638,2028,o),
(283,1592,o),
(192,848,cs),
(127,281,o),
(324,-20,o),
(649,-20,cs)
);
},
{
closed = 1;
nodes = (
(574,1347,o),
(760,1729,o),
(1054,1729,cs),
(1260,1729,o),
(1261,1379,o),
(1199,1095,cs),
(1097,635,o),
(896,279,o),
(652,279,cs),
(486,279,o),
(486,596,o),
(517,853,cs)
);
}
);
vertWidth = 0;
width = 1484;
}
);
unicode = 79;
userData = {
KernOnName = O;
};
},
{
color = 4;
glyphname = P;
lastChange = "2023-10-13 21:27:40 +0000";
layers = (
{
anchors = (
{
name = bottom;
pos = (589,0);
},
{
name = top;
pos = (1090,2008);
}
);
layerId = m01;
shapes = (
{
closed = 1;
nodes = (
(145,0,o),
(162,42,o),
(169,69,cs),
(408,1023,l),
(1021,1027,o),
(1463,1089,o),
(1556,1461,cs),
(1647,1817,o),
(1235,1993,o),
(583,1993,cs),
(524,1993,o),
(516,1976,o),
(504,1929,cs),
(42,81,ls),
(31,38,o),
(45,0,o),
(90,0,cs)
);
},
{
closed = 1;
nodes = (
(619,1869,l),
(1222,1860,o),
(1497,1717,o),
(1435,1479,cs),
(1367,1208,o),
(941,1135,o),
(434,1131,c)
);
}
);
vertWidth = 0;
width = 1447;
},
{
anchors = (
{
name = bottom;
pos = (627,0);
},
{
name = top;
pos = (1128,2008);
}
);
layerId = "6449507E-FEE0-4D4A-A81F-7CAB6A5803D5";
shapes = (
{
closed = 1;
nodes = (
(321,0,o),
(364,88,o),
(376,138,cs),
(572,926,l),
(1156,938,o),
(1555,1035,o),
(1647,1397,cs),
(1738,1769,o),
(1442,2008,o),
(656,2008,cs),
(539,2008,o),
(509,1961,o),
(487,1873,cs),
(69,195,ls),
(44,95,o),
(100,0,o),
(207,0,cs)
);
},
{
closed = 1;
nodes = (
(763,1692,l),
(1060,1678,o),
(1382,1622,o),
(1343,1464,cs),
(1292,1264,o),
(972,1227,o),
(646,1223,c)
);
}
);
vertWidth = 0;
width = 1524;
}
);
metricLeft = H;
unicode = 80;
},
{
color = 5;
glyphname = Thorn;
lastChange = "2023-10-13 22:07:26 +0000";
layers = (
{
layerId = m01;
shapes = (
{
closed = 1;
nodes = (
(870,586,o),
(1322,644,o),
(1416,1021,cs),
(1504,1365,o),
(1122,1541,o),
(507,1552,c),
(451,1429,l),
(1073,1424,o),
(1358,1281,o),
(1295,1039,cs),
(1226,764,o),
(789,693,o),
(272,691,c),
(246,583,l)
);
},
{
closed = 1;
nodes = (
(145,0,o),
(162,42,o),
(169,69,c),
(623,1885,ls),
(648,1986,o),
(631,1993,o),
(583,1993,cs),
(524,1993,o),
(516,1976,o),
(504,1929,cs),
(42,81,ls),
(31,38,o),
(45,0,o),
(90,0,cs)
);
}
);
width = 1416;
},
{
layerId = "6449507E-FEE0-4D4A-A81F-7CAB6A5803D5";
shapes = (
{
closed = 1;
nodes = (
(1016,506,o),
(1424,600,o),
(1517,967,cs),
(1603,1318,o),
(1344,1551,o),
(652,1576,c),
(612,1263,l),
(915,1251,o),
(1253,1196,o),
(1213,1034,cs),
(1161,830,o),
(829,796,o),
(496,793,c),
(420,496,l)
);
},
{
closed = 1;
nodes = (
(321,0,o),
(364,88,o),
(376,138,cs),
(790,1801,ls),
(823,1934,o),
(795,2008,o),
(656,2008,cs),
(539,2008,o),
(509,1961,o),
(487,1873,cs),
(69,195,ls),
(44,95,o),
(100,0,o),
(207,0,cs)
);
}
);
width = 1501;
}
);
metricLeft = P;
metricRight = P;
unicode = 222;
},
{
color = 4;
glyphname = Q;
lastChange = "2023-10-13 21:27:40 +0000";
layers = (
{
anchors = (
{
name = bottom;
pos = (614,0);
},
{
name = top;
pos = (1115,2008);
}
);
layerId = m01;
shapes = (
{
closed = 1;
nodes = (
(747,-20,o),
(865,28,o),
(975,155,c),
(1113,-60,ls),
(1138,-99,o),
(1165,-109,o),
(1197,-91,cs),
(1235,-71,o),
(1241,-40,o),
(1214,2,cs),
(1062,240,l),
(1228,427,o),
(1360,719,o),
(1441,1093,cs),
(1560,1648,o),
(1415,2008,o),
(1055,2008,cs),
(597,2008,o),
(304,1565,o),
(215,820,cs),
(158,318,o),
(308,-20,o),
(619,-20,cs)
);
},
{
closed = 1;
nodes = (
(425,1484,o),
(679,1898,o),
(1037,1898,cs),
(1308,1898,o),
(1413,1569,o),
(1308,1079,cs),
(1238,760,o),
(1129,505,o),
(998,342,c),
(894,504,ls),
(864,551,o),
(834,561,o),
(799,537,cs),
(769,515,o),
(766,480,o),
(795,435,cs),
(913,251,l),
(824,137,o),
(724,93,o),
(621,93,cs),
(395,93,o),
(296,406,o),
(349,853,cs)
);
}
);
vertWidth = 0;
width = 1498;
},
{
anchors = (
{
name = bottom;
pos = (619,0);
},
{
name = top;
pos = (1120,2008);
}
);
layerId = "6449507E-FEE0-4D4A-A81F-7CAB6A5803D5";
shapes = (
{
closed = 1;
nodes = (
(730,-20,o),
(821,5,o),
(932,72,c),
(989,-16,ls),
(1051,-111,o),
(1140,-133,o),
(1208,-96,cs),
(1280,-55,o),
(1309,53,o),
(1257,135,cs),
(1168,276,l),
(1315,457,o),
(1435,723,o),
(1509,1066,cs),
(1647,1693,o),
(1428,2028,o),
(1054,2028,cs),
(622,2028,o),
(284,1592,o),
(193,848,cs),
(128,281,o),
(311,-20,o),
(636,-20,cs)
);
},
{
closed = 1;
nodes = (
(570,1347,o),
(744,1729,o),
(1038,1729,cs),
(1244,1729,o),
(1257,1379,o),
(1195,1095,cs),
(1147,876,o),
(1079,686,o),
(996,546,c),
(966,593,ls),
(911,679,o),
(825,707,o),
(737,648,cs),
(656,596,o),
(651,510,o),
(706,424,cs),
(772,322,l),
(712,287,o),
(676,279,o),
(639,279,cs),
(473,279,o),
(482,596,o),
(513,853,cs)
);
}
);
vertWidth = 0;
width = 1507;
}
);
metricLeft = O;
metricRight = O;
unicode = 81;
},
{
color = 4;
glyphname = R;
lastChange = "2023-10-13 21:27:40 +0000";
layers = (
{
anchors = (
{
name = bottom;
pos = (581,0);
},
{
name = top;
pos = (1082,2008);
}
);
layerId = m01;
shapes = (
{
closed = 1;
nodes = (
(1235,0,o),
(1260,67,o),
(1227,110,cs),
(524,1023,l),
(1051,1033,o),
(1473,1100,o),
(1569,1489,cs),
(1659,1845,o),
(1261,2018,o),
(587,2008,cs),
(529,2007,o),
(518,1990,o),
(507,1944,cs),
(43,85,ls),
(31,37,o),
(42,0,o),
(85,0,cs),
(143,0,o),
(161,34,o),
(171,75,cs),
(399,985,l),
(1113,54,ls),
(1144,14,o),
(1159,0,o),
(1176,0,cs)
);
},
{
closed = 1;
nodes = (
(625,1895,l),
(1186,1890,o),
(1505,1763,o),
(1445,1516,cs),
(1365,1200,o),
(931,1135,o),
(435,1131,c)
);
}
);
vertWidth = 0;
width = 1432;
},
{
anchors = (
{
name = bottom;
pos = (633,0);
},
{
name = top;
pos = (1134,2008);
}
);
layerId = "6449507E-FEE0-4D4A-A81F-7CAB6A5803D5";
shapes = (
{
closed = 1;
nodes = (
(1322,0,o),
(1390,153,o),
(1314,252,cs),
(795,926,l),
(1243,958,o),
(1576,1080,o),
(1660,1425,cs),
(1754,1791,o),
(1490,2008,o),
(662,2008,cs),
(547,2008,o),
(510,1966,o),
(487,1873,cs),
(70,200,ls),
(40,78,o),
(104,0,o),
(205,0,cs),
(319,0,o),
(359,69,o),
(378,146,cs),
(533,766,l),
(1052,86,ls),
(1108,12,o),
(1148,0,o),
(1190,0,cs)
);
},
{
closed = 1;
nodes = (
(767,1708,l),
(1221,1700,o),
(1395,1636,o),
(1359,1496,cs),
(1298,1256,o),
(981,1226,o),
(647,1223,c)
);
}
);
vertWidth = 0;
width = 1536;
}
);
metricLeft = H;
unicode = 82;
},
{
color = 4;
glyphname = S;
lastChange = "2023-10-13 21:36:38 +0000";
layers = (
{
anchors = (
{
name = bottom;
pos = (620,10);
},
{
name = top;
pos = (1021,2008);
}
);
layerId = m01;
shapes = (
{
closed = 1;
nodes = (
(887,0,o),
(1104,203,o),
(1183,511,cs),
(1265,855,o),
(1152,1033,o),
(780,1129,cs),
(550,1189,o),
(453,1305,o),
(494,1466,cs),
(554,1699,o),
(795,1898,o),
(1016,1898,cs),
(1154,1898,o),
(1242,1795,o),
(1308,1594,cs),
(1319,1559,o),
(1349,1551,o),
(1384,1557,cs),
(1426,1565,o),
(1439,1597,o),
(1431,1624,cs),
(1359,1882,o),
(1236,2008,o),
(1031,2008,cs),
(742,2008,o),
(441,1780,o),
(372,1493,cs),
(314,1250,o),
(442,1087,o),
(759,1002,cs),
(1029,930,o),
(1115,791,o),
(1057,528,cs),
(998,281,o),
(831,113,o),
(615,113,cs),
(404,113,o),
(263,262,o),
(238,503,cs),
(234,538,o),
(216,550,o),
(171,547,cs),
(127,545,o),
(108,528,o),
(112,491,cs),
(145,184,o),
(332,0,o),
(605,0,cs)
);
}
);
vertWidth = 0;
width = 1310;
},
{
anchors = (
{
name = bottom;
pos = (631,9);
},
{
name = top;
pos = (1048,2008);
}
);
layerId = "6449507E-FEE0-4D4A-A81F-7CAB6A5803D5";
shapes = (
{
closed = 1;
nodes = (
(946,-20,o),
(1196,198,o),
(1269,528,cs),
(1352,905,o),
(1236,1109,o),
(832,1215,cs),
(690,1252,o),
(617,1313,o),
(639,1399,cs),
(682,1573,o),
(858,1729,o),
(1019,1729,cs),
(1113,1729,o),
(1157,1644,o),
(1196,1518,cs),
(1220,1441,o),
(1297,1404,o),
(1375,1419,cs),
(1482,1438,o),
(1513,1544,o),
(1495,1604,cs),
(1412,1895,o),
(1261,2028,o),
(1035,2028,cs),
(728,2028,o),
(410,1779,o),
(337,1475,cs),
(272,1202,o),
(395,1004,o),
(759,908,cs),
(941,858,o),
(1003,770,o),
(964,590,cs),
(923,416,o),
(808,279,o),
(652,279,cs),
(509,279,o),
(423,391,o),
(408,550,cs),
(400,633,o),
(348,685,o),
(241,677,cs),
(135,672,o),
(88,615,o),
(96,521,cs),
(132,178,o),
(348,-20,o),
(644,-20,cs)
);
}
);
vertWidth = 0;
width = 1363;
}
);
unicode = 83;
},
{
color = 5;
glyphname = Germandbls;
lastChange = "2023-10-13 22:10:50 +0000";
layers = (
{
background = {
shapes = (
{
pos = (4,0);
ref = H;
}
);
};
layerId = m01;
shapes = (
{
closed = 1;
nodes = (
(1173,-3,o),
(1520,180,o),
(1605,585,cs),
(1678,926,o),
(1415,1086,o),
(1203,1182,c),
(1799,1889,ls),
(1821,1915,o),
(1824,1949,o),
(1816,1965,cs),
(1804,1991,o),
(1789,2002,o),
(1759,2002,cs),
(602,2002,ls),
(549,2002,o),
(514,1983,o),
(505,1938,cs),
(42,50,ls),
(34,19,o),
(45,-10,o),
(96,-10,cs),
(147,-10,o),
(169,12,o),
(178,52,cs),
(625,1880,l),
(1649,1880,l),
(1096,1235,l),
(1045,1169,o),
(1051,1101,o),
(1150,1060,cs),
(1269,1011,o),
(1541,897,o),
(1468,561,cs),
(1403,261,o),
(1058,128,o),
(755,128,cs),
(552,128,ls),
(523,128,o),
(492,98,o),
(488,61,cs),
(485,15,o),
(518,1,o),
(545,1,cs),
(748,0,ls)
);
}
);
width = 1715;
},
{
background = {
shapes = (
{
pos = (-5,0);
ref = H;
}
);
};
layerId = "6449507E-FEE0-4D4A-A81F-7CAB6A5803D5";
shapes = (
{
closed = 1;
nodes = (
(1223,-7,o),
(1706,150,o),
(1797,590,cs),
(1866,921,o),
(1643,1143,o),
(1447,1225,c),
(1931,1772,ls),
(1978,1823,o),
(1982,1885,o),
(1962,1930,cs),
(1940,1976,o),
(1893,2008,o),
(1829,2008,cs),
(676,2008,ls),
(593,2008,o),
(510,1969,o),
(489,1880,cs),
(66,151,ls),
(44,65,o),
(102,0,o),
(202,0,cs),
(305,0,o),
(359,62,o),
(374,125,cs),
(765,1730,l),
(1542,1730,l),
(1124,1285,l),
(1064,1213,o),
(1044,1095,o),
(1176,1034,cs),
(1326,965,o),
(1542,853,o),
(1487,590,cs),
(1437,353,o),
(1205,274,o),
(938,278,cs),
(710,281,ls),
(629,282,o),
(557,213,o),
(552,135,cs),
(544,26,o),
(646,1,o),
(690,0,cs),
(918,-3,ls)
);
}
);
width = 1875;
}
);
metricLeft = H;
metricRight = S;
unicode = 7838;
},
{
color = 4;
glyphname = T;
lastChange = "2023-10-13 21:27:40 +0000";
layers = (
{
anchors = (
{
name = bottom;
pos = (360,0);
},
{
name = center;
pos = (610,1004);
},
{
name = top;
pos = (861,2008);
}
);
layerId = m01;
shapes = (
{
closed = 1;
nodes = (
(418,0,o),
(437,31,o),
(444,58,cs),
(903,1900,l),
(1396,1900,ls),
(1447,1900,o),
(1459,1920,o),
(1459,1953,cs),
(1459,1985,o),
(1446,2008,o),
(1396,2008,cs),
(300,2008,ls),
(247,2008,o),
(235,1985,o),
(235,1953,cs),
(235,1920,o),
(247,1900,o),
(300,1900,cs),
(773,1900,l),
(319,77,ls),
(309,38,o),
(324,0,o),
(372,0,cs)
);
}
);
vertWidth = 0;
width = 990;
},
{
anchors = (
{
name = bottom;
pos = (570,0);
},
{
name = center;
pos = (820,1004);
},
{
name = top;
pos = (1071,2008);
}
);
layerId = "6449507E-FEE0-4D4A-A81F-7CAB6A5803D5";
shapes = (
{
closed = 1;
nodes = (
(708,0,o),
(750,75,o),
(765,133,cs),
(1160,1711,l),
(1533,1711,ls),
(1665,1711,o),
(1691,1787,o),
(1691,1857,cs),
(1691,1933,o),
(1663,2008,o),
(1533,2008,cs),
(531,2008,ls),
(404,2008,o),
(375,1933,o),
(375,1857,cs),
(375,1787,o),
(398,1711,o),
(531,1711,cs),
(837,1711,l),
(458,195,ls),
(432,99,o),
(495,0,o),
(604,0,cs)
);
}
);
vertWidth = 0;
width = 1410;
}
);
unicode = 84;
},
{
color = 5;
glyphname = U;
lastChange = "2023-10-13 21:37:03 +0000";
layers = (
{
anchors = (
{
name = bottom;
pos = (600,0);
},
{
name = ogonek;
pos = (1137,10);
},
{
name = top;
pos = (1101,2008);
},
{
name = topright;
pos = (1815,2008);
}
);
layerId = m01;
shapes = (
{
closed = 1;
nodes = (
(730,-19,o),
(982,228,o),
(1211,660,c),
(1064,69,ls),
(1053,24,o),
(1079,3,o),
(1118,0,cs),
(1151,-3,o),
(1181,13,o),
(1191,54,cs),
(1661,1941,ls),
(1671,1982,o),
(1659,2008,o),
(1608,2008,cs),
(1561,2008,o),
(1541,1983,o),
(1533,1950,cs),
(1376,1321,l),
(1241,789,o),
(813,89,o),
(515,89,cs),
(304,89,o),
(240,354,o),
(329,711,cs),
(635,1936,ls),
(644,1972,o),
(626,2008,o),
(588,2008,cs),
(544,2008,o),
(515,1979,o),
(504,1933,cs),
(202,722,ls),
(91,278,o),
(197,-19,o),
(481,-19,cs)
);
}
);
vertWidth = 0;
width = 1469;
},
{
anchors = (
{
name = bottom;
pos = (652,0);
},
{
name = ogonek;
pos = (1108,30);
},
{
name = top;
pos = (1153,2008);
},
{
name = topright;
pos = (1920,2008);
}
);
layerId = "6449507E-FEE0-4D4A-A81F-7CAB6A5803D5";
shapes = (
{
closed = 1;
nodes = (
(761,-20,o),
(924,127,o),
(1047,341,c),
(1008,187,ls),
(978,69,o),
(1057,0,o),
(1146,0,cs),
(1216,0,o),
(1292,34,o),
(1315,125,cs),
(1739,1823,ls),
(1763,1918,o),
(1731,2008,o),
(1604,2008,cs),
(1494,2008,o),
(1447,1950,o),
(1429,1878,cs),
(1285,1307,l),
(1119,723,o),
(840,277,o),
(597,277,cs),
(449,277,o),
(481,556,o),
(519,710,cs),
(795,1818,ls),
(817,1907,o),
(764,2008,o),
(668,2008,cs),
(582,2008,o),
(508,1956,o),
(486,1868,cs),
(212,770,ls),
(78,234,o),
(256,-20,o),
(566,-20,cs)
);
}
);
vertWidth = 0;
width = 1574;
}
);
metricLeft = H;
metricRight = H;
unicode = 85;
},
{
color = 4;
glyphname = V;
lastChange = "2023-10-13 21:27:40 +0000";
layers = (
{
anchors = (
{
name = bottom;
pos = (468,0);
},
{
name = top;
pos = (969,2008);
}
);
layerId = m01;
shapes = (
{
closed = 1;
nodes = (
(609,0,o),
(622,26,o),
(644,70,cs),
(1559,1931,ls),
(1585,1984,o),
(1561,2008,o),
(1520,2008,cs),
(1468,2008,o),
(1445,1990,o),
(1422,1942,cs),
(609,288,l),
(518,1949,ls),
(516,1978,o),
(502,2008,o),
(445,2008,cs),
(397,2008,o),
(386,1986,o),
(388,1943,cs),
(490,64,ls),
(492,35,o),
(511,0,o),
(558,0,cs)
);
}
);
vertWidth = 0;
width = 1206;
},
{
anchors = (
{
name = bottom;
pos = (504,0);
},
{
name = top;
pos = (1005,2008);
}
);
layerId = "6449507E-FEE0-4D4A-A81F-7CAB6A5803D5";
shapes = (
{
closed = 1;
nodes = (
(682,0,o),
(719,47,o),
(752,117,cs),
(1585,1795,ls),
(1655,1940,o),
(1556,2008,o),
(1457,2008,cs),
(1366,2008,o),
(1327,1974,o),
(1286,1888,cs),
(707,711,l),
(648,1860,ls),
(646,1925,o),
(617,2008,o),
(487,2008,cs),
(373,2008,o),
(331,1943,o),
(336,1844,cs),
(430,148,ls),
(433,86,o),
(474,0,o),
(586,0,cs)
);
}
);
vertWidth = 0;
width = 1278;
}
);
unicode = 86;
},
{
color = 4;
glyphname = W;
lastChange = "2023-10-13 21:27:40 +0000";
layers = (
{
anchors = (
{
name = bottom;
pos = (866,0);
},
{
name = top;
pos = (1367,2008);
}
);
layerId = m01;
shapes = (
{
closed = 1;
nodes = (
(592,0,o),
(613,19,o),
(641,69,cs),
(1100,887,l),
(1278,71,ls),
(1290,17,o),
(1303,0,o),
(1344,0,cs),
(1383,0,o),
(1404,21,o),
(1428,69,cs),
(2342,1930,ls),
(2364,1976,o),
(2343,2008,o),
(2294,2008,cs),
(2258,2008,o),
(2228,1985,o),
(2206,1941,cs),
(1368,242,l),
(1193,1042,ls),
(1185,1080,o),
(1174,1102,o),
(1139,1102,cs),
(1098,1102,o),
(1071,1071,o),
(1051,1036,cs),
(613,255,l),
(516,1948,ls),
(514,1986,o),
(493,2008,o),
(452,2008,cs),
(412,2008,o),
(383,1986,o),
(386,1942,cs),
(493,71,ls),
(496,19,o),
(513,0,o),
(552,0,cs)
);
}
);
vertWidth = 0;
width = 2002;
},
{
anchors = (
{
name = bottom;
pos = (867,0);
},
{
name = top;
pos = (1368,2008);
}
);
layerId = "6449507E-FEE0-4D4A-A81F-7CAB6A5803D5";
shapes = (
{
closed = 1;
nodes = (
(590,0,o),
(637,31,o),
(694,120,cs),
(1093,743,l),
(1212,164,ls),
(1236,45,o),
(1271,0,o),
(1370,0,cs),
(1438,0,o),
(1498,32,o),
(1539,120,cs),
(2312,1797,ls),
(2364,1909,o),
(2296,2008,o),
(2179,2008,cs),
(2109,2008,o),
(2046,1968,o),
(2010,1888,cs),
(1418,575,l),
(1310,1070,ls),
(1291,1158,o),
(1261,1223,o),
(1157,1223,cs),
(1081,1223,o),
(1030,1175,o),
(985,1103,cs),
(657,575,l),
(645,1855,ls),
(644,1946,o),
(580,2008,o),
(486,2008,cs),
(398,2008,o),
(331,1951,o),
(333,1852,cs),
(369,161,ls),
(371,44,o),
(424,0,o),
(522,0,cs)
);
}
);
vertWidth = 0;
width = 2003;
}
);
unicode = 87;
},
{
color = 4;
glyphname = X;
lastChange = "2023-10-13 21:27:40 +0000";
layers = (
{
anchors = (
{
name = bottom;
pos = (497,0);
},
{
name = top;
pos = (998,2008);
}
);
layerId = m01;
shapes = (
{
closed = 1;
nodes = (
(-37,-7,o),
(5,-7,o),
(40,34,cs),
(753,883,l),
(1037,55,ls),
(1056,1,o),
(1101,-10,o),
(1136,8,cs),
(1161,21,o),
(1172,48,o),
(1158,89,cs),
(855,972,l),
(1644,1905,ls),
(1679,1946,o),
(1669,1975,o),
(1646,1994,cs),
(1620,2015,o),
(1580,2015,o),
(1544,1973,cs),
(810,1103,l),
(517,1958,ls),
(500,2007,o),
(452,2016,o),
(418,2003,cs),
(388,1992,o),
(381,1966,o),
(399,1913,cs),
(708,1015,l),
(-68,95,ls),
(-94,65,o),
(-88,35,o),
(-66,18,cs)
);
}
);
vertWidth = 0;
width = 1263;
},
{
anchors = (
{
name = bottom;
pos = (605,0);
},
{
name = top;
pos = (1106,2008);
}
);
layerId = "6449507E-FEE0-4D4A-A81F-7CAB6A5803D5";
shapes = (
{
closed = 1;
nodes = (
(146,-16,o),
(244,-26,o),
(317,65,cs),
(852,698,l),
(1051,117,ls),
(1092,3,o),
(1202,-16,o),
(1277,16,cs),
(1334,44,o),
(1381,114,o),
(1347,211,cs),
(1097,941,l),
(1787,1753,ls),
(1873,1855,o),
(1826,1935,o),
(1774,1974,cs),
(1722,2018,o),
(1613,2031,o),
(1540,1940,c),
(981,1280,l),
(770,1896,l),
(726,2008,o),
(614,2024,o),
(546,2000,cs),
(484,1974,o),
(432,1922,o),
(476,1795,cs),
(736,1037,l),
(65,247,ls),
(-3,166,o),
(29,81,o),
(86,34,cs)
);
}
);
vertWidth = 0;
width = 1479;
}
);
metricRight = K;
unicode = 88;
},
{
color = 4;
glyphname = Y;
lastChange = "2023-10-13 21:27:40 +0000";
layers = (
{
anchors = (
{
name = bottom;
pos = (487,0);
},
{
name = top;
pos = (988,2008);
},
{
name = topleft;
pos = (386,2008);
}
);
layerId = m01;
shapes = (
{
closed = 1;
nodes = (
(294,-6,o),
(333,-9,o),
(359,31,cs),
(1583,1905,ls),
(1609,1945,o),
(1601,1979,o),
(1576,1996,cs),
(1547,2018,o),
(1500,2010,o),
(1473,1969,cs),
(917,1117,l),
(519,1957,ls),
(495,2008,o),
(454,2016,o),
(421,2003,cs),
(389,1991,o),
(377,1965,o),
(401,1914,cs),
(836,994,l),
(252,98,ls),
(231,66,o),
(235,37,o),
(261,19,cs)
);
}
);
vertWidth = 0;
width = 1243;
},
{
anchors = (
{
name = bottom;
pos = (616,0);
},
{
name = top;
pos = (1117,2008);
},
{
name = topleft;
pos = (386,2008);
}
);
layerId = "6449507E-FEE0-4D4A-A81F-7CAB6A5803D5";
shapes = (
{
closed = 1;
nodes = (
(528,-18,o),
(633,-23,o),
(692,68,cs),
(1794,1761,ls),
(1856,1856,o),
(1820,1935,o),
(1768,1977,cs),
(1703,2024,o),
(1589,2019,o),
(1529,1927,cs),
(1087,1250,l),
(770,1904,ls),
(717,2014,o),
(619,2027,o),
(548,2000,cs),
(489,1978,o),
(421,1915,o),
(481,1787,cs),
(883,937,l),
(426,237,ls),
(375,158,o),
(400,81,o),
(460,34,cs)
);
}
);
vertWidth = 0;
width = 1502;
}
);
unicode = 89;
},
{
color = 4;
glyphname = Z;
lastChange = "2023-10-13 21:27:40 +0000";
layers = (
{
anchors = (
{
name = bottom;
pos = (616,0);
},
{
name = center;
pos = (866,1004);
},
{
name = top;
pos = (1117,2008);
}
);
layerId = m01;
shapes = (
{
closed = 1;
nodes = (
(1213,0,ls),
(1266,0,o),
(1278,23,o),
(1278,55,cs),
(1278,90,o),
(1266,113,o),
(1213,113,cs),
(172,113,l),
(1652,1906,ls),
(1686,1947,o),
(1679,1979,o),
(1662,1993,cs),
(1649,2005,o),
(1639,2008,o),
(1612,2008,cs),
(538,2008,ls),
(484,2008,o),
(472,1985,o),
(472,1953,cs),
(472,1920,o),
(484,1898,o),
(538,1898,cs),
(1487,1898,l),
(-3,92,ls),
(-24,67,o),
(-26,39,o),
(-11,20,cs),
(-4,10,o),
(22,0,o),
(52,0,cs)
);
}
);
vertWidth = 0;
width = 1502;
},
{
anchors = (
{
name = bottom;
pos = (664,0);
},
{
name = center;
pos = (914,1004);
},
{
name = top;
pos = (1165,2008);
}
);
layerId = "6449507E-FEE0-4D4A-A81F-7CAB6A5803D5";
shapes = (
{
closed = 1;
nodes = (
(1234,0,ls),
(1364,0,o),
(1393,78,o),
(1393,151,cs),
(1393,224,o),
(1364,299,o),
(1234,299,cs),
(487,299,l),
(1690,1753,ls),
(1775,1857,o),
(1726,1935,o),
(1687,1972,cs),
(1656,2000,o),
(1627,2008,o),
(1578,2008,cs),
(592,2008,ls),
(462,2008,o),
(436,1933,o),
(436,1857,cs),
(436,1787,o),
(462,1709,o),
(592,1709,cs),
(1253,1709,l),
(43,247,ls),
(-6,187,o),
(-3,103,o),
(33,55,cs),
(49,33,o),
(103,0,o),
(168,0,cs)
);
}
);
vertWidth = 0;
width = 1597;
}
);
unicode = 90;
},
{
color = 5;
glyphname = A.ss02;
lastChange = "2023-10-13 22:27:06 +0000";
layers = (
{
layerId = m01;
shapes = (
{
closed = 1;
nodes = (
(53,0,o),
(71,20,o),
(105,75,cs),
(674,999,l),
(1090,999,l),
(1098,75,ls),
(1098,42,o),
(1106,0,o),
(1180,0,cs),
(1244,0,o),
(1269,35,o),
(1268,85,cs),
(1245,1936,ls),
(1245,1973,o),
(1211,2008,o),
(1162,2008,cs),
(1095,2008,o),
(1079,1972,o),
(1055,1933,cs),
(-67,116,ls),
(-107,51,o),
(-69,0,o),
(-15,0,cs)
);
},
{
closed = 1;
nodes = (
(-57,20,o),
(-83,54,o),
(-51,106,cs),
(1071,1923,ls),
(1096,1963,o),
(1108,1988,o),
(1162,1988,cs),
(1202,1988,o),
(1225,1963,o),
(1225,1936,cs),
(1248,85,ls),
(1249,42,o),
(1233,20,o),
(1180,20,cs),
(1123,20,o),
(1118,45,o),
(1118,75,cs),
(1110,1019,l),
(662,1019,l),
(89,85,ls),
(56,31,o),
(44,20,o),
(-15,20,cs)
);
},
{
closed = 1;
nodes = (
(1080,1651,l),
(1088,1160,l),
(773,1160,l)
);
},
{
closed = 1;
nodes = (
(1108,1140,l),
(1101,1676,ls),
(1100,1718,o),
(1098,1717,o),
(1072,1676,cs),
(737,1140,l)
);
}
);
vertWidth = 0;
width = 1388;
},
{
layerId = "6449507E-FEE0-4D4A-A81F-7CAB6A5803D5";
shapes = (
{
closed = 1;
nodes = (
(198,-20,o),
(232,3,o),
(288,94,cs),
(690,746,l),
(1020,746,l),
(1026,143,ls),
(1027,79,o),
(1039,-20,o),
(1202,-20,cs),
(1330,-20,o),
(1377,51,o),
(1376,151,cs),
(1355,1870,ls),
(1354,1942,o),
(1296,2028,o),
(1184,2028,cs),
(1077,2028,o),
(1044,1981,o),
(1003,1915,cs),
(-32,234,ls),
(-134,68,o),
(-15,-20,o),
(100,-20,cs)
);
},
{
closed = 1;
nodes = (
(9,20,o),
(-83,76,o),
(2,214,cs),
(1037,1893,ls),
(1078,1959,o),
(1099,1988,o),
(1184,1988,cs),
(1273,1988,o),
(1314,1927,o),
(1315,1870,cs),
(1336,151,ls),
(1337,66,o),
(1306,20,o),
(1202,20,cs),
(1074,20,o),
(1067,82,o),
(1066,143,cs),
(1059,786,l),
(668,786,l),
(254,114,ls),
(204,32,o),
(185,20,o),
(100,20,cs)
);
},
{
closed = 1;
nodes = (
(1015,1272,l),
(1017,1082,l),
(897,1082,l)
);
},
{
closed = 1;
nodes = (
(1057,1042,l),
(1054,1314,ls),
(1053,1410,o),
(1051,1409,o),
(993,1315,cs),
(825,1042,l)
);
}
);
vertWidth = 0;
width = 1471;
}
);
metricLeft = A;
metricWidth = A;
},
{
color = 5;
glyphname = B.ss02;
lastChange = "2023-10-13 22:27:06 +0000";
layers = (
{
layerId = m01;
shapes = (
{
closed = 1;
nodes = (
(793,2,o),
(1162,141,o),
(1238,443,cs),
(1311,737,o),
(1157,955,o),
(831,1061,c),
(1117,1097,o),
(1288,1208,o),
(1337,1413,cs),
(1426,1792,o),
(1150,2011,o),
(608,2008,cs),
(552,2008,o),
(517,1988,o),
(502,1926,cs),
(50,113,ls),
(36,56,o),
(68,0,o),
(127,0,cs)
);
},
{
closed = 1;
nodes = (
(81,20,o),
(58,61,o),
(70,109,cs),
(521,1920,ls),
(534,1974,o),
(559,1988,o),
(608,1988,cs),
(1140,1991,o),
(1404,1783,o),
(1317,1417,cs),
(1269,1214,o),
(1097,1108,o),
(799,1078,cs),
(740,1072,o),
(744,1068,o),
(799,1051,cs),
(1135,950,o),
(1290,740,o),
(1218,447,cs),
(1146,157,o),
(788,22,o),
(127,20,cs)
);
},
{
closed = 1;
nodes = (
(451,1001,l),
(910,960,o),
(1139,764,o),
(1070,481,cs),
(1016,261,o),
(742,159,o),
(240,155,c)
);
},
{
closed = 1;
nodes = (
(737,135,o),
(1032,242,o),
(1090,477,cs),
(1163,775,o),
(915,984,o),
(435,1023,c),
(214,135,l)
);
},
{
closed = 1;
nodes = (
(662,1850,l),
(1045,1843,o),
(1231,1695,o),
(1166,1433,cs),
(1120,1237,o),
(897,1154,o),
(494,1175,c)
);
},
{
closed = 1;
nodes = (
(892,1130,o),
(1136,1217,o),
(1186,1429,cs),
(1255,1706,o),
(1050,1867,o),
(646,1870,c),
(468,1157,l)
);
}
);
vertWidth = 0;
width = 1330;
},
{
layerId = "6449507E-FEE0-4D4A-A81F-7CAB6A5803D5";
shapes = (
{
closed = 1;
nodes = (
(913,-20,o),
(1269,163,o),
(1346,468,cs),
(1410,723,o),
(1329,905,o),
(1098,1020,c),
(1288,1079,o),
(1397,1190,o),
(1437,1355,cs),
(1531,1751,o),
(1288,2028,o),
(685,2028,cs),
(582,2028,o),
(519,1999,o),
(489,1880,cs),
(71,203,ls),
(40,80,o),
(116,-20,o),
(228,-20,cs)
);
},
{
closed = 1;
nodes = (
(139,20,o),
(84,92,o),
(109,193,cs),
(527,1870,ls),
(552,1969,o),
(594,1988,o),
(685,1988,cs),
(1266,1988,o),
(1487,1738,o),
(1399,1365,cs),
(1360,1205,o),
(1255,1105,o),
(1061,1051,cs),
(989,1031,o),
(989,1027,o),
(1061,994,cs),
(1292,887,o),
(1369,724,o),
(1308,478,cs),
(1235,193,o),
(901,20,o),
(228,20,cs)
);
},
{
closed = 1;
nodes = (
(605,893,l),
(874,851,o),
(1055,745,o),
(1009,549,cs),
(970,395,o),
(764,332,o),
(458,317,c)
);
},
{
closed = 1;
nodes = (
(747,285,o),
(1001,352,o),
(1047,539,cs),
(1104,776,o),
(872,899,o),
(575,937,c),
(406,275,l)
);
},
{
closed = 1;
nodes = (
(804,1686,l),
(1008,1665,o),
(1136,1585,o),
(1095,1420,cs),
(1062,1291,o),
(913,1227,o),
(686,1216,c)
);
},
{
closed = 1;
nodes = (
(900,1177,o),
(1093,1249,o),
(1133,1410,cs),
(1185,1616,o),
(1007,1713,o),
(774,1728,c),
(634,1174,l)
);
}
);
vertWidth = 0;
width = 1424;
}
);
metricLeft = B;
metricWidth = B;
},
{
color = 5;
glyphname = C.ss02;
lastChange = "2023-10-13 22:27:06 +0000";
layers = (
{
layerId = m01;
shapes = (
{
closed = 1;
nodes = (
(827,-20,o),
(1048,149,o),
(1239,437,cs),
(1305,542,o),
(1317,580,o),
(1317,600,cs),
(1319,643,o),
(1285,665,o),
(1248,668,cs),
(1189,674,o),
(1166,624,o),
(1114,546,cs),
(943,288,o),
(775,143,o),
(644,143,cs),
(437,143,o),
(344,412,o),
(396,850,cs),
(471,1474,o),
(717,1868,o),
(1060,1868,cs),
(1170,1868,o),
(1248,1787,o),
(1295,1661,cs),
(1315,1613,o),
(1362,1589,o),
(1411,1607,cs),
(1458,1621,o),
(1476,1658,o),
(1465,1702,cs),
(1412,1903,o),
(1281,2028,o),
(1078,2028,cs),
(630,2028,o),
(302,1560,o),
(212,823,cs),
(155,312,o),
(313,-20,o),
(641,-20,cs)
);
},
{
closed = 1;
nodes = (
(327,0,o),
(175,317,o),
(232,821,cs),
(321,1551,o),
(641,2008,o),
(1078,2008,cs),
(1272,2008,o),
(1394,1892,o),
(1445,1696,cs),
(1454,1661,o),
(1443,1637,o),
(1405,1625,cs),
(1365,1611,o),
(1330,1628,o),
(1313,1669,cs),
(1265,1798,o),
(1179,1888,o),
(1060,1888,cs),
(704,1888,o),
(451,1482,o),
(376,852,cs),
(324,408,o),
(422,123,o),
(644,123,cs),
(784,123,o),
(955,276,o),
(1130,536,cs),
(1181,616,o),
(1201,652,o),
(1246,648,cs),
(1278,645,o),
(1299,632,o),
(1297,600,cs),
(1297,583,o),
(1289,548,o),
(1223,447,cs),
(1036,161,o),
(820,0,o),
(641,0,cs)
);
}
);
vertWidth = 0;
width = 1288;
},
{
layerId = "6449507E-FEE0-4D4A-A81F-7CAB6A5803D5";
shapes = (
{
closed = 1;
nodes = (
(879,-20,o),
(1117,139,o),
(1315,446,cs),
(1398,573,o),
(1404,620,o),
(1404,644,cs),
(1404,716,o),
(1347,796,o),
(1249,802,cs),
(1174,808,o),
(1124,775,o),
(1039,645,cs),
(910,448,o),
(787,319,o),
(689,319,cs),
(542,319,o),
(530,595,o),
(561,851,cs),
(616,1341,o),
(791,1689,o),
(1072,1689,cs),
(1131,1689,o),
(1169,1632,o),
(1196,1562,cs),
(1234,1463,o),
(1327,1425,o),
(1423,1454,cs),
(1516,1483,o),
(1559,1556,o),
(1535,1655,cs),
(1479,1887,o),
(1323,2028,o),
(1087,2028,cs),
(643,2028,o),
(290,1603,o),
(198,850,cs),
(132,272,o),
(348,-20,o),
(687,-20,cs)
);
},
{
closed = 1;
nodes = (
(371,20,o),
(174,286,o),
(238,846,cs),
(328,1584,o),
(665,1988,o),
(1087,1988,cs),
(1305,1988,o),
(1444,1863,o),
(1497,1645,cs),
(1516,1564,o),
(1486,1515,o),
(1411,1492,cs),
(1332,1467,o),
(1265,1495,o),
(1234,1576,cs),
(1204,1652,o),
(1154,1729,o),
(1072,1729,cs),
(763,1729,o),
(577,1355,o),
(521,855,cs),
(490,594,o),
(501,279,o),
(689,279,cs),
(807,279,o),
(942,423,o),
(1073,623,cs),
(1151,744,o),
(1186,767,o),
(1247,762,cs),
(1323,758,o),
(1364,701,o),
(1364,644,cs),
(1364,624,o),
(1359,586,o),
(1281,468,cs),
(1088,169,o),
(865,20,o),
(687,20,cs)
);
}
);
vertWidth = 0;
width = 1375;
}
);
metricLeft = C;
metricWidth = C;
},
{
color = 5;
glyphname = D.ss02;
lastChange = "2023-10-13 22:27:06 +0000";
layers = (
{
layerId = m01;
shapes = (
{
closed = 1;
nodes = (
(328,0,ls),
(965,0,o),
(1377,400,o),
(1544,1197,cs),
(1647,1687,o),
(1415,2008,o),
(935,2008,cs),
(607,2008,ls),
(534,2008,o),
(515,1977,o),
(503,1927,cs),
(47,98,ls),
(35,50,o),
(60,0,o),
(122,0,cs)
);
},
{
closed = 1;
nodes = (
(74,20,o),
(57,54,o),
(67,94,cs),
(523,1923,ls),
(534,1968,o),
(546,1988,o),
(607,1988,cs),
(935,1988,ls),
(1403,1988,o),
(1625,1681,o),
(1524,1201,cs),
(1359,411,o),
(956,20,o),
(328,20,cs),
(122,20,ls)
);
},
{
closed = 1;
nodes = (
(662,1848,l),
(914,1848,ls),
(1276,1848,o),
(1453,1605,o),
(1363,1188,cs),
(1221,510,o),
(878,160,o),
(338,160,cs),
(241,160,l)
);
},
{
closed = 1;
nodes = (
(338,140,ls),
(887,140,o),
(1239,499,o),
(1383,1184,cs),
(1475,1611,o),
(1288,1868,o),
(914,1868,cs),
(646,1868,l),
(215,140,l)
);
}
);
vertWidth = 0;
width = 1444;
},
{
layerId = "6449507E-FEE0-4D4A-A81F-7CAB6A5803D5";
shapes = (
{
closed = 1;
nodes = (
(414,-20,ls),
(1043,-20,o),
(1462,369,o),
(1628,1161,cs),
(1739,1686,o),
(1488,2028,o),
(983,2028,cs),
(684,2028,ls),
(549,2028,o),
(516,1970,o),
(494,1883,cs),
(67,190,ls),
(41,87,o),
(95,-20,o),
(229,-20,cs)
);
},
{
closed = 1;
nodes = (
(122,20,o),
(84,95,o),
(105,180,cs),
(532,1873,ls),
(553,1952,o),
(573,1988,o),
(684,1988,cs),
(983,1988,ls),
(1465,1988,o),
(1696,1673,o),
(1588,1169,cs),
(1426,392,o),
(1025,20,o),
(414,20,cs),
(229,20,ls)
);
},
{
closed = 1;
nodes = (
(807,1689,l),
(965,1689,ls),
(1234,1689,o),
(1340,1493,o),
(1276,1193,cs),
(1154,635,o),
(886,320,o),
(442,320,cs),
(465,320,l)
);
},
{
closed = 1;
nodes = (
(442,280,ls),
(906,280,o),
(1190,615,o),
(1316,1185,cs),
(1383,1503,o),
(1260,1729,o),
(965,1729,cs),
(775,1729,l),
(413,280,l)
);
}
);
vertWidth = 0;
width = 1535;
}
);
metricLeft = D;
metricWidth = D;
},
{
color = 5;
glyphname = E.ss02;
lastChange = "2023-10-13 22:27:06 +0000";
layers = (
{
layerId = m01;
shapes = (
{
closed = 1;
nodes = (
(1040,0,ls),
(1094,0,o),
(1131,36,o),
(1131,88,cs),
(1131,130,o),
(1094,158,o),
(1040,158,cs),
(241,158,l),
(450,998,l),
(992,998,ls),
(1047,998,o),
(1083,1031,o),
(1083,1078,cs),
(1083,1128,o),
(1047,1156,o),
(992,1156,cs),
(489,1156,l),
(662,1850,l),
(1435,1850,ls),
(1489,1850,o),
(1525,1880,o),
(1525,1930,cs),
(1525,1981,o),
(1489,2008,o),
(1435,2008,cs),
(610,2008,ls),
(539,2008,o),
(515,1978,o),
(502,1925,cs),
(47,100,ls),
(35,51,o),
(59,0,o),
(122,0,cs)
);
},
{
closed = 1;
nodes = (
(73,20,o),
(57,55,o),
(67,96,cs),
(522,1921,ls),
(533,1967,o),
(550,1988,o),
(610,1988,cs),
(1435,1988,ls),
(1481,1988,o),
(1505,1970,o),
(1505,1930,cs),
(1505,1891,o),
(1480,1870,o),
(1435,1870,cs),
(646,1870,l),
(463,1136,l),
(992,1136,ls),
(1039,1136,o),
(1063,1117,o),
(1063,1078,cs),
(1063,1041,o),
(1038,1018,o),
(992,1018,cs),
(434,1018,l),
(215,138,l),
(1040,138,ls),
(1086,138,o),
(1111,119,o),
(1111,88,cs),
(1111,45,o),
(1085,20,o),
(1040,20,cs),
(122,20,ls)
);
}
);
vertWidth = 0;
width = 1185;
},
{
layerId = "6449507E-FEE0-4D4A-A81F-7CAB6A5803D5";
shapes = (
{
closed = 1;
nodes = (
(1071,-20,ls),
(1180,-20,o),
(1249,55,o),
(1249,153,cs),
(1249,238,o),
(1198,317,o),
(1071,317,cs),
(464,317,l),
(609,906,l),
(1029,906,ls),
(1145,906,o),
(1208,981,o),
(1208,1075,cs),
(1208,1170,o),
(1148,1243,o),
(1029,1243,cs),
(692,1243,l),
(801,1691,l),
(1433,1691,ls),
(1551,1691,o),
(1611,1766,o),
(1611,1860,cs),
(1611,1956,o),
(1554,2028,o),
(1433,2028,cs),
(681,2028,ls),
(555,2028,o),
(511,1970,o),
(488,1878,cs),
(68,192,ls),
(40,80,o),
(102,-20,o),
(230,-20,cs)
);
},
{
closed = 1;
nodes = (
(127,20,o),
(83,89,o),
(106,182,cs),
(526,1868,ls),
(546,1950,o),
(577,1988,o),
(681,1988,cs),
(1433,1988,ls),
(1532,1988,o),
(1571,1939,o),
(1571,1860,cs),
(1571,1783,o),
(1529,1731,o),
(1433,1731,cs),
(769,1731,l),
(640,1203,l),
(1029,1203,ls),
(1127,1203,o),
(1168,1153,o),
(1168,1075,cs),
(1168,998,o),
(1124,946,o),
(1029,946,cs),
(577,946,l),
(412,277,l),
(1071,277,ls),
(1174,277,o),
(1209,223,o),
(1209,153,cs),
(1209,73,o),
(1160,20,o),
(1071,20,cs),
(230,20,ls)
);
}
);
vertWidth = 0;
width = 1341;
}
);
metricLeft = E;
metricWidth = E;
},
{
color = 5;
glyphname = F.ss02;
lastChange = "2023-10-13 22:27:06 +0000";
layers = (
{
layerId = m01;
shapes = (
{
closed = 1;
nodes = (
(196,0,o),
(216,55,o),
(224,88,cs),
(451,997,l),
(994,997,ls),
(1048,997,o),
(1085,1030,o),
(1085,1080,cs),
(1085,1127,o),
(1048,1157,o),
(994,1157,cs),
(490,1157,l),
(663,1850,l),
(1436,1850,ls),
(1490,1850,o),
(1526,1880,o),
(1526,1930,cs),
(1526,1981,o),
(1490,2008,o),
(1436,2008,cs),
(611,2008,ls),
(540,2008,o),
(515,1978,o),
(502,1925,cs),
(47,100,ls),
(35,51,o),
(59,0,o),
(122,0,cs)
);
},
{
closed = 1;
nodes = (
(73,20,o),
(57,55,o),
(67,96,cs),
(522,1921,ls),
(533,1967,o),
(551,1988,o),
(611,1988,cs),
(1436,1988,ls),
(1482,1988,o),
(1506,1970,o),
(1506,1930,cs),
(1506,1891,o),
(1481,1870,o),
(1436,1870,cs),
(647,1870,l),
(464,1137,l),
(994,1137,ls),
(1039,1137,o),
(1065,1116,o),
(1065,1080,cs),
(1065,1040,o),
(1039,1017,o),
(994,1017,cs),
(435,1017,l),
(204,94,ls),
(196,61,o),
(182,20,o),
(122,20,cs)
);
}
);
vertWidth = 0;
width = 1121;
},
{
layerId = "6449507E-FEE0-4D4A-A81F-7CAB6A5803D5";
shapes = (
{
closed = 1;
nodes = (
(360,-20,o),
(399,70,o),
(414,128,cs),
(607,906,l),
(1033,906,ls),
(1149,906,o),
(1211,981,o),
(1211,1074,cs),
(1211,1170,o),
(1154,1242,o),
(1033,1242,cs),
(691,1242,l),
(802,1691,l),
(1438,1691,ls),
(1552,1691,o),
(1615,1766,o),
(1615,1860,cs),
(1615,1956,o),
(1555,2028,o),
(1438,2028,cs),
(682,2028,ls),
(559,2028,o),
(510,1970,o),
(488,1878,cs),
(72,192,l),
(40,79,o),
(102,-20,o),
(232,-20,cs)
);
},
{
closed = 1;
nodes = (
(126,20,o),
(85,89,o),
(110,182,cs),
(526,1868,ls),
(546,1950,o),
(579,1988,o),
(682,1988,cs),
(1438,1988,ls),
(1534,1988,o),
(1575,1939,o),
(1575,1860,cs),
(1575,1783,o),
(1531,1731,o),
(1438,1731,cs),
(770,1731,l),
(639,1202,l),
(1033,1202,ls),
(1132,1202,o),
(1171,1153,o),
(1171,1074,cs),
(1171,998,o),
(1128,946,o),
(1033,946,cs),
(575,946,l),
(376,138,ls),
(361,85,o),
(333,20,o),
(232,20,cs)
);
}
);
vertWidth = 0;
width = 1282;
}
);
metricLeft = F;
metricWidth = F;
},
{
color = 5;
glyphname = G.ss02;
lastChange = "2023-10-13 22:27:06 +0000";
layers = (
{
layerId = m01;
shapes = (
{
closed = 1;
nodes = (
(765,-20,o),
(956,103,o),
(1124,359,c),
(1058,98,ls),
(1048,59,o),
(1059,0,o),
(1128,0,cs),
(1205,0,o),
(1227,49,o),
(1236,85,cs),
(1451,946,ls),
(1468,1014,o),
(1415,1048,o),
(1371,1048,cs),
(1312,1048,o),
(1297,1039,o),
(1188,766,cs),
(1037,383,o),
(803,138,o),
(565,138,cs),
(340,138,o),
(294,522,o),
(450,1142,cs),
(571,1618,o),
(798,1868,o),
(1069,1868,cs),
(1164,1868,o),
(1235,1807,o),
(1282,1682,cs),
(1300,1634,o),
(1346,1609,o),
(1400,1626,cs),
(1447,1641,o),
(1465,1679,o),
(1450,1722,cs),
(1379,1924,o),
(1256,2028,o),
(1080,2028,cs),
(689,2028,o),
(405,1676,o),
(264,1120,cs),
(91,424,o),
(197,-20,o),
(547,-20,cs)
);
},
{
closed = 1;
nodes = (
(214,0,o),
(112,427,o),
(284,1116,cs),
(423,1665,o),
(700,2008,o),
(1080,2008,cs),
(1248,2008,o),
(1362,1911,o),
(1432,1716,cs),
(1443,1682,o),
(1432,1657,o),
(1394,1646,cs),
(1349,1631,o),
(1314,1648,o),
(1300,1688,cs),
(1249,1819,o),
(1173,1888,o),
(1069,1888,cs),
(788,1888,o),
(553,1629,o),
(430,1146,cs),
(273,521,o),
(320,118,o),
(565,118,cs),
(812,118,o),
(1054,370,o),
(1206,758,cs),
(1312,1023,o),
(1320,1028,o),
(1371,1028,cs),
(1407,1028,o),
(1444,1004,o),
(1431,952,cs),
(1216,91,ls),
(1208,57,o),
(1191,20,o),
(1128,20,cs),
(1076,20,o),
(1069,59,o),
(1078,94,cs),
(1161,417,ls),
(1175,472,o),
(1169,470,o),
(1142,425,cs),
(968,134,o),
(774,0,o),
(547,0,cs)
);
}
);
vertWidth = 0;
width = 1454;
},
{
layerId = "6449507E-FEE0-4D4A-A81F-7CAB6A5803D5";
shapes = (
{
closed = 1;
nodes = (
(765,-20,o),
(874,57,o),
(978,188,c),
(971,190,l),
(944,96,o),
(982,0,o),
(1121,0,cs),
(1257,0,o),
(1303,67,o),
(1318,128,cs),
(1518,929,ls),
(1553,1071,o),
(1445,1141,o),
(1354,1141,cs),
(1263,1141,o),
(1217,1112,o),
(1098,825,cs),
(975,520,o),
(806,317,o),
(615,317,cs),
(447,317,o),
(565,951,o),
(606,1103,cs),
(696,1476,o),
(862,1689,o),
(1076,1689,cs),
(1127,1689,o),
(1154,1650,o),
(1181,1582,cs),
(1217,1493,o),
(1298,1442,o),
(1407,1474,cs),
(1513,1506,o),
(1550,1591,o),
(1518,1682,cs),
(1435,1918,o),
(1287,2028,o),
(1089,2028,cs),
(695,2028,o),
(392,1703,o),
(248,1136,cs),
(33,278,o),
(247,-20,o),
(597,-20,cs)
);
},
{
closed = 1;
nodes = (
(271,20,o),
(78,290,o),
(286,1126,cs),
(428,1681,o),
(715,1988,o),
(1089,1988,cs),
(1271,1988,o),
(1402,1892,o),
(1480,1668,cs),
(1507,1595,o),
(1482,1536,o),
(1395,1512,cs),
(1307,1484,o),
(1248,1522,o),
(1219,1596,cs),
(1189,1670,o),
(1150,1729,o),
(1076,1729,cs),
(840,1729,o),
(664,1495,o),
(568,1113,cs),
(532,968,o),
(391,277,o),
(615,277,cs),
(826,277,o),
(1009,498,o),
(1136,809,cs),
(1248,1082,o),
(1277,1101,o),
(1354,1101,cs),
(1431,1101,o),
(1508,1051,o),
(1480,939,cs),
(1280,138,ls),
(1266,82,o),
(1230,40,o),
(1121,40,cs),
(1013,40,o),
(991,100,o),
(1009,180,cs),
(1025,253,ls),
(1044,342,o),
(1042,351,o),
(984,269,cs),
(856,89,o),
(752,20,o),
(597,20,cs)
);
}
);
vertWidth = 0;
width = 1536;
}
);
metricLeft = G;
metricWidth = G;
},
{
color = 5;
glyphname = H.ss02;
lastChange = "2023-10-13 22:27:06 +0000";
layers = (
{
layerId = m01;
shapes = (
{
closed = 1;
nodes = (
(197,0,o),
(218,45,o),
(226,78,cs),
(455,998,l),
(1321,998,l),
(1097,98,ls),
(1087,59,o),
(1095,0,o),
(1172,0,cs),
(1238,0,o),
(1265,39,o),
(1273,70,cs),
(1731,1905,ls),
(1745,1962,o),
(1727,2008,o),
(1659,2008,cs),
(1599,2008,o),
(1565,1973,o),
(1556,1938,cs),
(1361,1156,l),
(495,1156,l),
(679,1895,ls),
(694,1954,o),
(668,2008,o),
(608,2008,cs),
(542,2008,o),
(515,1978,o),
(502,1925,cs),
(47,100,ls),
(35,51,o),
(59,0,o),
(122,0,cs)
);
},
{
closed = 1;
nodes = (
(73,20,o),
(57,55,o),
(67,96,cs),
(522,1921,ls),
(533,1967,o),
(553,1988,o),
(608,1988,cs),
(653,1988,o),
(672,1951,o),
(659,1899,cs),
(468,1136,l),
(1377,1136,l),
(1575,1934,ls),
(1582,1962,o),
(1608,1988,o),
(1659,1988,cs),
(1712,1988,o),
(1723,1958,o),
(1711,1909,cs),
(1254,74,ls),
(1248,48,o),
(1227,20,o),
(1172,20,cs),
(1114,20,o),
(1108,59,o),
(1117,94,cs),
(1347,1018,l),
(439,1018,l),
(206,82,ls),
(199,52,o),
(184,20,o),
(122,20,cs)
);
}
);
vertWidth = 0;
width = 1494;
},
{
layerId = "6449507E-FEE0-4D4A-A81F-7CAB6A5803D5";
shapes = (
{
closed = 1;
nodes = (
(374,-20,o),
(407,71,o),
(418,129,c),
(611,906,l),
(1204,906,l),
(1029,190,ls),
(1009,101,o),
(1028,-20,o),
(1191,-20,cs),
(1319,-20,o),
(1363,60,o),
(1377,120,cs),
(1788,1816,ls),
(1817,1945,o),
(1758,2028,o),
(1628,2028,cs),
(1506,2028,o),
(1459,1950,o),
(1445,1891,cs),
(1286,1242,l),
(694,1242,l),
(834,1806,l),
(862,1956,o),
(786,2028,o),
(676,2028,cs),
(564,2028,o),
(516,1973,o),
(488,1878,c),
(72,192,l),
(40,79,o),
(102,-20,o),
(232,-20,cs)
);
},
{
closed = 1;
nodes = (
(126,20,o),
(85,89,o),
(110,182,cs),
(526,1868,l),
(551,1951,o),
(584,1988,o),
(676,1988,cs),
(767,1988,o),
(818,1939,o),
(794,1814,c),
(642,1202,l),
(1318,1202,l),
(1483,1881,ls),
(1496,1932,o),
(1530,1988,o),
(1628,1988,cs),
(1735,1988,o),
(1774,1934,o),
(1750,1826,cs),
(1339,130,ls),
(1326,77,o),
(1294,20,o),
(1191,20,cs),
(1063,20,o),
(1050,103,o),
(1067,180,cs),
(1254,946,l),
(579,946,l),
(378,137,l),
(369,84,o),
(346,20,o),
(232,20,cs)
);
}
);
vertWidth = 0;
width = 1597;
}
);
metricLeft = H;
metricWidth = H;
},
{
color = 5;
glyphname = I.ss02;
lastChange = "2023-10-13 22:27:06 +0000";
layers = (
{
layerId = m01;
shapes = (
{
closed = 1;
nodes = (
(835,1850,l),
(413,158,l),
(88,158,ls),
(19,158,o),
(-2,123,o),
(-2,80,cs),
(-2,40,o),
(19,0,o),
(88,0,cs),
(875,0,ls),
(944,0,o),
(965,40,o),
(965,80,cs),
(965,123,o),
(944,158,o),
(875,158,cs),
(593,158,l),
(1015,1850,l),
(1335,1850,ls),
(1404,1850,o),
(1426,1887,o),
(1426,1928,cs),
(1426,1968,o),
(1404,2008,o),
(1335,2008,cs),
(550,2008,ls),
(480,2008,o),
(459,1968,o),
(459,1928,cs),
(459,1887,o),
(480,1850,o),
(550,1850,cs)
);
},
{
closed = 1;
nodes = (
(493,1870,o),
(479,1894,o),
(479,1928,cs),
(479,1962,o),
(493,1988,o),
(550,1988,cs),
(1335,1988,ls),
(1391,1988,o),
(1406,1961,o),
(1406,1928,cs),
(1406,1894,o),
(1391,1870,o),
(1335,1870,cs),
(999,1870,l),
(567,138,l),
(875,138,ls),
(931,138,o),
(945,116,o),
(945,80,cs),
(945,46,o),
(931,20,o),
(875,20,cs),
(88,20,ls),
(32,20,o),
(18,46,o),
(18,80,cs),
(18,116,o),
(32,138,o),
(88,138,cs),
(429,138,l),
(861,1870,l),
(550,1870,ls)
);
}
);
vertWidth = 0;
width = 1142;
},
{
layerId = "6449507E-FEE0-4D4A-A81F-7CAB6A5803D5";
shapes = (
{
closed = 1;
nodes = (
(784,1691,l),
(439,317,l),
(223,317,ls),
(74,317,o),
(47,230,o),
(47,151,cs),
(47,72,o),
(80,-20,o),
(223,-20,cs),
(941,-20,ls),
(1087,-20,o),
(1120,72,o),
(1120,151,cs),
(1120,229,o),
(1090,317,o),
(941,317,cs),
(805,317,l),
(1145,1691,l),
(1362,1691,ls),
(1512,1691,o),
(1538,1782,o),
(1538,1857,cs),
(1538,1939,o),
(1508,2028,o),
(1362,2028,cs),
(644,2028,ls),
(498,2028,o),
(466,1939,o),
(466,1857,cs),
(466,1782,o),
(496,1691,o),
(644,1691,cs)
);
},
{
closed = 1;
nodes = (
(526,1731,o),
(506,1790,o),
(506,1857,cs),
(506,1929,o),
(528,1988,o),
(644,1988,cs),
(1362,1988,ls),
(1478,1988,o),
(1498,1930,o),
(1498,1857,cs),
(1498,1790,o),
(1480,1731,o),
(1362,1731,cs),
(1113,1731,l),
(753,277,l),
(941,277,ls),
(1060,277,o),
(1080,221,o),
(1080,151,cs),
(1080,82,o),
(1057,20,o),
(941,20,cs),
(223,20,ls),
(110,20,o),
(87,82,o),
(87,151,cs),
(87,221,o),
(105,277,o),
(223,277,cs),
(471,277,l),
(836,1731,l),
(644,1731,ls)
);
}
);
vertWidth = 0;
width = 1304;
}
);
metricLeft = I;
metricWidth = I;
},
{
color = 5;
glyphname = J.ss02;
lastChange = "2023-10-13 22:27:06 +0000";
layers = (
{
layerId = m01;
shapes = (
{
closed = 1;
nodes = (
(669,0,o),
(867,194,o),
(966,591,cs),
(1292,1897,ls),
(1305,1950,o),
(1298,2008,o),
(1225,2008,cs),
(1157,2008,o),
(1129,1978,o),
(1116,1925,cs),
(787,605,ls),
(711,301,o),
(575,163,o),
(407,163,cs),
(244,163,o),
(185,280,o),
(185,473,cs),
(185,562,o),
(165,613,o),
(105,613,cs),
(52,613,o),
(12,570,o),
(12,473,cs),
(9,182,o),
(149,0,o),
(399,0,cs)
);
},
{
closed = 1;
nodes = (
(160,20,o),
(29,190,o),
(32,473,cs),
(32,560,o),
(62,593,o),
(105,593,cs),
(150,593,o),
(165,557,o),
(165,473,cs),
(165,274,o),
(231,143,o),
(407,143,cs),
(585,143,o),
(729,290,o),
(807,601,cs),
(1136,1921,ls),
(1147,1967,o),
(1168,1988,o),
(1225,1988,cs),
(1279,1988,o),
(1284,1951,o),
(1272,1901,cs),
(946,595,ls),
(849,205,o),
(660,20,o),
(399,20,cs)
);
}
);
vertWidth = 0;
width = 1055;
},
{
layerId = "6449507E-FEE0-4D4A-A81F-7CAB6A5803D5";
shapes = (
{
closed = 1;
nodes = (
(790,-20,o),
(1010,180,o),
(1116,604,cs),
(1418,1808,ls),
(1451,1941,o),
(1400,2028,o),
(1270,2028,cs),
(1148,2028,o),
(1094,1973,o),
(1070,1878,cs),
(768,663,ls),
(715,449,o),
(633,319,o),
(514,319,cs),
(420,319,o),
(407,403,o),
(407,510,cs),
(407,709,o),
(324,733,o),
(236,733,cs),
(161,733,o),
(55,701,o),
(55,510,cs),
(55,172,o),
(224,-20,o),
(507,-20,cs)
);
},
{
closed = 1;
nodes = (
(245,20,o),
(95,190,o),
(95,510,cs),
(95,669,o),
(169,693,o),
(236,693,cs),
(316,693,o),
(367,677,o),
(367,510,cs),
(367,399,o),
(385,279,o),
(514,279,cs),
(657,279,o),
(751,431,o),
(806,653,cs),
(1108,1868,ls),
(1129,1953,o),
(1168,1988,o),
(1268,1988,cs),
(1368,1988,o),
(1408,1931,o),
(1380,1818,cs),
(1078,614,ls),
(975,204,o),
(772,20,o),
(507,20,cs)
);
}
);
vertWidth = 0;
width = 1216;
}
);
metricLeft = J;
metricWidth = J;
},
{
color = 5;
glyphname = K.ss02;
lastChange = "2023-10-13 22:27:06 +0000";
layers = (
{
layerId = m01;
shapes = (
{
closed = 1;
nodes = (
(1300,0,o),
(1363,69,o),
(1304,146,cs),
(600,1076,l),
(1603,1842,ls),
(1641,1871,o),
(1664,1903,o),
(1664,1941,cs),
(1664,1977,o),
(1639,2008,o),
(1592,2008,cs),
(1566,2008,o),
(1528,1995,o),
(1492,1967,cs),
(504,1209,l),
(675,1895,ls),
(690,1954,o),
(676,2008,o),
(608,2008,cs),
(540,2008,o),
(513,1970,o),
(502,1925,cs),
(51,116,ls),
(39,68,o),
(60,0,o),
(124,0,cs),
(193,0,o),
(217,55,o),
(227,96,cs),
(447,980,l),
(1142,64,ls),
(1167,31,o),
(1198,0,o),
(1244,0,cs)
);
},
{
closed = 1;
nodes = (
(1206,20,o),
(1182,44,o),
(1158,76,cs),
(457,1001,ls),
(439,1025,o),
(438,1025,o),
(431,998,cs),
(207,100,ls),
(197,62,o),
(179,20,o),
(124,20,cs),
(76,20,o),
(60,70,o),
(71,112,cs),
(522,1921,ls),
(532,1961,o),
(551,1988,o),
(608,1988,cs),
(660,1988,o),
(668,1952,o),
(655,1899,cs),
(481,1198,ls),
(472,1160,o),
(472,1159,o),
(510,1188,cs),
(1504,1951,ls),
(1538,1977,o),
(1570,1988,o),
(1590,1988,cs),
(1628,1988,o),
(1644,1969,o),
(1644,1941,cs),
(1644,1910,o),
(1626,1885,o),
(1591,1858,cs),
(572,1080,l),
(1288,134,ls),
(1336,71,o),
(1289,20,o),
(1244,20,cs)
);
}
);
vertWidth = 0;
width = 1363;
},
{
layerId = "6449507E-FEE0-4D4A-A81F-7CAB6A5803D5";
shapes = (
{
closed = 1;
nodes = (
(1378,-20,o),
(1510,107,o),
(1391,269,cs),
(799,1078,l),
(1655,1706,ls),
(1709,1746,o),
(1746,1794,o),
(1746,1873,cs),
(1746,1949,o),
(1690,2028,o),
(1589,2028,cs),
(1549,2028,o),
(1498,2018,o),
(1436,1972,cs),
(749,1463,l),
(835,1805,ls),
(871,1950,o),
(807,2028,o),
(683,2028,cs),
(562,2028,o),
(514,1965,o),
(493,1880,cs),
(71,205,ls),
(42,91,o),
(111,-20,o),
(228,-20,cs),
(348,-20,o),
(395,67,o),
(414,143,cs),
(576,779,l),
(1094,74,ls),
(1136,17,o),
(1191,-20,o),
(1261,-20,cs)
);
},
{
closed = 1;
nodes = (
(1204,20,o),
(1163,48,o),
(1126,98,cs),
(599,815,ls),
(559,870,o),
(558,870,o),
(543,812,cs),
(376,153,ls),
(358,83,o),
(323,20,o),
(228,20,cs),
(135,20,o),
(85,101,o),
(109,195,cs),
(531,1870,ls),
(550,1945,o),
(584,1988,o),
(683,1988,cs),
(785,1988,o),
(828,1936,o),
(797,1815,cs),
(703,1444,ls),
(684,1369,o),
(686,1367,o),
(760,1422,cs),
(1460,1940,ls),
(1514,1980,o),
(1554,1988,o),
(1589,1988,cs),
(1667,1988,o),
(1706,1934,o),
(1706,1873,cs),
(1706,1809,o),
(1680,1774,o),
(1631,1738,cs),
(743,1086,l),
(1359,245,ls),
(1457,112,o),
(1354,20,o),
(1261,20,cs)
);
}
);
vertWidth = 0;
width = 1471;
}
);
metricLeft = K;
metricWidth = K;
},
{
color = 5;
glyphname = L.ss02;
lastChange = "2023-10-13 22:27:06 +0000";
layers = (
{
layerId = m01;
shapes = (
{
closed = 1;
nodes = (
(949,0,ls),
(1022,0,o),
(1068,38,o),
(1068,96,cs),
(1068,137,o),
(1031,158,o),
(978,158,cs),
(241,158,l),
(673,1889,ls),
(687,1946,o),
(689,2008,o),
(611,2008,cs),
(540,2008,o),
(515,1978,o),
(502,1925,cs),
(47,100,ls),
(35,51,o),
(59,0,o),
(122,0,cs)
);
},
{
closed = 1;
nodes = (
(73,20,o),
(57,55,o),
(67,96,cs),
(522,1921,ls),
(533,1967,o),
(551,1988,o),
(611,1988,cs),
(668,1988,o),
(666,1947,o),
(653,1893,cs),
(215,138,l),
(978,138,ls),
(1024,138,o),
(1048,124,o),
(1048,96,cs),
(1048,49,o),
(1013,20,o),
(949,20,cs),
(122,20,ls)
);
}
);
vertWidth = 0;
width = 1120;
},
{
layerId = "6449507E-FEE0-4D4A-A81F-7CAB6A5803D5";
shapes = (
{
closed = 1;
nodes = (
(982,-20,ls),
(1124,-20,o),
(1192,69,o),
(1192,164,cs),
(1192,238,o),
(1153,317,o),
(1011,317,cs),
(461,317,l),
(832,1800,ls),
(870,1951,o),
(815,2028,o),
(681,2028,cs),
(558,2028,o),
(511,1970,o),
(488,1878,cs),
(68,192,ls),
(40,79,o),
(96,-20,o),
(228,-20,cs)
);
},
{
closed = 1;
nodes = (
(123,20,o),
(83,88,o),
(106,182,cs),
(526,1868,ls),
(546,1950,o),
(578,1988,o),
(681,1988,cs),
(792,1988,o),
(826,1938,o),
(794,1810,cs),
(409,277,l),
(1011,277,ls),
(1126,277,o),
(1152,226,o),
(1152,164,cs),
(1152,85,o),
(1102,20,o),
(982,20,cs),
(228,20,ls)
);
}
);
vertWidth = 0;
width = 1281;
}
);
metricLeft = L;
metricWidth = L;
},
{
color = 5;
glyphname = M.ss02;
lastChange = "2023-10-13 22:27:06 +0000";
layers = (
{
layerId = m01;
shapes = (
{
closed = 1;
nodes = (
(187,0,o),
(215,41,o),
(225,83,cs),
(607,1622,l),
(764,64,ls),
(768,21,o),
(799,0,o),
(845,0,cs),
(884,0,o),
(923,20,o),
(947,60,cs),
(1884,1623,l),
(1507,107,ls),
(1497,67,o),
(1511,0,o),
(1582,0,cs),
(1654,0,o),
(1671,40,o),
(1679,73,cs),
(2127,1869,ls),
(2152,1968,o),
(2103,2008,o),
(2011,2008,cs),
(1948,2008,o),
(1913,1982,o),
(1845,1868,cs),
(915,317,l),
(757,1875,ls),
(747,1978,o),
(708,2008,o),
(634,2008,cs),
(559,2008,o),
(518,1992,o),
(495,1898,cs),
(49,106,ls),
(37,57,o),
(64,0,o),
(124,0,cs)
);
},
{
closed = 1;
nodes = (
(79,20,o),
(59,61,o),
(69,102,cs),
(515,1894,ls),
(537,1981,o),
(568,1988,o),
(634,1988,cs),
(697,1988,o),
(727,1969,o),
(737,1873,cs),
(897,304,ls),
(901,260,o),
(905,260,o),
(930,302,cs),
(1870,1869,ls),
(1936,1979,o),
(1957,1988,o),
(2011,1988,cs),
(2091,1988,o),
(2129,1962,o),
(2107,1873,cs),
(1659,77,ls),
(1652,47,o),
(1640,20,o),
(1582,20,cs),
(1527,20,o),
(1519,68,o),
(1527,101,cs),
(1910,1643,ls),
(1930,1724,o),
(1922,1727,o),
(1877,1652,cs),
(929,70,ls),
(908,36,o),
(879,20,o),
(845,20,cs),
(806,20,o),
(787,34,o),
(784,66,cs),
(625,1651,ls),
(617,1730,o),
(613,1730,o),
(593,1649,cs),
(205,87,ls),
(196,50,o),
(176,20,o),
(124,20,cs)
);
}
);
vertWidth = 0;
width = 1903;
},
{
layerId = "6449507E-FEE0-4D4A-A81F-7CAB6A5803D5";
shapes = (
{
closed = 1;
nodes = (
(347,-20,o),
(399,55,o),
(417,128,cs),
(637,1018,l),
(721,125,ls),
(729,38,o),
(785,-20,o),
(894,-20,cs),
(960,-20,o),
(1026,16,o),
(1067,84,cs),
(1597,962,l),
(1406,197,ls),
(1385,113,o),
(1424,-20,o),
(1568,-20,cs),
(1699,-20,o),
(1732,58,o),
(1746,115,cs),
(2166,1802,ls),
(2209,1974,o),
(2111,2028,o),
(1963,2028,cs),
(1881,2028,o),
(1824,2013,o),
(1732,1859,cs),
(1020,665,l),
(913,1826,ls),
(897,2002,o),
(810,2028,o),
(702,2028,cs),
(599,2028,o),
(518,2002,o),
(483,1858,cs),
(74,196,ls),
(47,88,o),
(116,-20,o),
(231,-20,cs)
);
},
{
closed = 1;
nodes = (
(141,20,o),
(90,99,o),
(112,188,cs),
(521,1850,ls),
(552,1976,o),
(615,1988,o),
(702,1988,cs),
(795,1988,o),
(859,1977,o),
(873,1822,cs),
(983,637,ls),
(992,545,o),
(995,544,o),
(1049,635,cs),
(1766,1839,ls),
(1851,1981,o),
(1893,1988,o),
(1963,1988,cs),
(2090,1988,o),
(2165,1959,o),
(2128,1812,cs),
(1708,125,ls),
(1695,71,o),
(1671,20,o),
(1568,20,cs),
(1456,20,o),
(1426,117,o),
(1444,187,cs),
(1662,1056,ls),
(1692,1175,o),
(1681,1179,o),
(1616,1071,cs),
(1033,104,ls),
(999,47,o),
(949,20,o),
(894,20,cs),
(805,20,o),
(768,58,o),
(761,129,cs),
(671,1085,ls),
(658,1223,o),
(647,1224,o),
(613,1086,cs),
(379,138,ls),
(363,73,o),
(324,20,o),
(231,20,cs)
);
}
);
vertWidth = 0;
width = 1967;
}
);
metricLeft = M;
metricWidth = M;
},
{
color = 5;
glyphname = N.ss02;
lastChange = "2023-10-13 22:27:06 +0000";
layers = (
{
layerId = m01;
shapes = (
{
closed = 1;
nodes = (
(194,0,o),
(218,50,o),
(228,89,cs),
(617,1666,l),
(1090,62,ls),
(1100,29,o),
(1134,0,o),
(1184,0,cs),
(1239,0,o),
(1269,44,o),
(1277,78,cs),
(1731,1900,ls),
(1746,1961,o),
(1732,2008,o),
(1661,2008,cs),
(1602,2008,o),
(1570,1973,o),
(1558,1927,cs),
(1169,381,l),
(711,1939,ls),
(702,1971,o),
(668,2008,o),
(608,2008,cs),
(537,2008,o),
(515,1977,o),
(502,1925,cs),
(47,100,ls),
(35,52,o),
(57,0,o),
(122,0,cs)
);
},
{
closed = 1;
nodes = (
(72,20,o),
(57,55,o),
(67,96,cs),
(522,1921,ls),
(534,1968,o),
(548,1988,o),
(608,1988,cs),
(658,1988,o),
(685,1960,o),
(693,1933,cs),
(1154,361,ls),
(1170,308,o),
(1172,308,o),
(1186,362,cs),
(1578,1923,ls),
(1588,1961,o),
(1611,1988,o),
(1661,1988,cs),
(1716,1988,o),
(1725,1959,o),
(1711,1904,cs),
(1257,82,ls),
(1250,53,o),
(1228,20,o),
(1184,20,cs),
(1143,20,o),
(1118,42,o),
(1110,68,cs),
(630,1693,ls),
(617,1737,o),
(613,1737,o),
(603,1695,cs),
(208,93,ls),
(199,57,o),
(181,20,o),
(122,20,cs)
);
}
);
vertWidth = 0;
width = 1495;
},
{
layerId = "6449507E-FEE0-4D4A-A81F-7CAB6A5803D5";
shapes = (
{
closed = 1;
nodes = (
(352,-20,o),
(396,61,o),
(414,134,cs),
(702,1279,l),
(1024,99,ls),
(1043,31,o),
(1107,-20,o),
(1196,-20,cs),
(1306,-20,o),
(1361,65,o),
(1377,128,cs),
(1796,1808,ls),
(1833,1956,o),
(1776,2028,o),
(1644,2028,cs),
(1538,2028,o),
(1475,1969,o),
(1453,1883,cs),
(1171,761,l),
(864,1901,ls),
(849,1955,o),
(786,2028,o),
(681,2028,cs),
(550,2028,o),
(511,1969,o),
(488,1878,cs),
(68,192,ls),
(40,79,o),
(91,-20,o),
(227,-20,cs)
);
},
{
closed = 1;
nodes = (
(117,20,o),
(82,87,o),
(106,182,cs),
(526,1868,ls),
(547,1951,o),
(572,1988,o),
(681,1988,cs),
(766,1988,o),
(815,1933,o),
(826,1891,cs),
(1141,718,ls),
(1171,606,o),
(1175,606,o),
(1202,715,cs),
(1491,1873,ls),
(1509,1945,o),
(1556,1988,o),
(1644,1988,cs),
(1754,1988,o),
(1789,1942,o),
(1758,1818,cs),
(1339,138,ls),
(1325,83,o),
(1282,20,o),
(1196,20,cs),
(1122,20,o),
(1076,57,o),
(1062,109,cs),
(727,1338,ls),
(703,1427,o),
(698,1427,o),
(675,1337,cs),
(374,142,ls),
(358,79,o),
(328,20,o),
(227,20,cs)
);
}
);
vertWidth = 0;
width = 1595;
}
);
metricLeft = N;
metricWidth = N;
},
{
color = 5;
glyphname = O.ss02;
lastChange = "2023-10-13 22:27:06 +0000";
layers = (
{
layerId = m01;
shapes = (
{
closed = 1;
nodes = (
(1025,-20,o),
(1342,411,o),
(1489,1088,cs),
(1610,1653,o),
(1456,2028,o),
(1078,2028,cs),
(630,2028,o),
(302,1560,o),
(213,823,cs),
(155,311,o),
(315,-20,o),
(642,-20,cs)
);
},
{
closed = 1;
nodes = (
(328,0,o),
(176,317,o),
(233,821,cs),
(321,1551,o),
(641,2008,o),
(1078,2008,cs),
(1441,2008,o),
(1589,1648,o),
(1469,1092,cs),
(1324,420,o),
(1014,0,o),
(642,0,cs)
);
},
{
closed = 1;
nodes = (
(472,1474,o),
(717,1868,o),
(1060,1868,cs),
(1311,1868,o),
(1409,1565,o),
(1305,1084,cs),
(1179,503,o),
(930,143,o),
(644,143,cs),
(438,143,o),
(345,412,o),
(397,850,cs)
);
},
{
closed = 1;
nodes = (
(324,407,o),
(423,123,o),
(644,123,cs),
(941,123,o),
(1197,494,o),
(1325,1080,cs),
(1430,1570,o),
(1326,1888,o),
(1060,1888,cs),
(705,1888,o),
(452,1482,o),
(377,852,cs)
);
}
);
vertWidth = 0;
width = 1426;
},
{
layerId = "6449507E-FEE0-4D4A-A81F-7CAB6A5803D5";
shapes = (
{
closed = 1;
nodes = (
(1063,-20,o),
(1399,370,o),
(1549,1062,cs),
(1690,1704,o),
(1468,2028,o),
(1082,2028,cs),
(638,2028,o),
(285,1603,o),
(193,850,cs),
(127,271,o),
(344,-20,o),
(681,-20,cs)
);
},
{
closed = 1;
nodes = (
(366,20,o),
(169,287,o),
(233,846,cs),
(323,1584,o),
(659,1988,o),
(1082,1988,cs),
(1445,1988,o),
(1646,1689,o),
(1509,1070,cs),
(1363,391,o),
(1042,20,o),
(681,20,cs)
);
},
{
closed = 1;
nodes = (
(609,1341,o),
(784,1689,o),
(1066,1689,cs),
(1252,1689,o),
(1257,1381,o),
(1195,1099,cs),
(1094,642,o),
(916,319,o),
(684,319,cs),
(537,319,o),
(522,595,o),
(553,851,cs)
);
},
{
closed = 1;
nodes = (
(482,594,o),
(497,279,o),
(684,279,cs),
(942,279,o),
(1131,626,o),
(1235,1091,cs),
(1297,1379,o),
(1294,1729,o),
(1066,1729,cs),
(757,1729,o),
(571,1355,o),
(513,855,cs)
);
}
);
vertWidth = 0;
width = 1484;
}
);
metricLeft = O;
metricWidth = O;
},
{
color = 5;
glyphname = P.ss02;
lastChange = "2023-10-13 22:27:06 +0000";
layers = (
{
layerId = m01;
shapes = (
{
closed = 1;
nodes = (
(197,0,o),
(216,58,o),
(224,89,cs),
(448,991,l),
(1056,997,o),
(1512,1070,o),
(1609,1455,cs),
(1705,1832,o),
(1268,2008,o),
(608,2008,cs),
(533,2008,o),
(515,1977,o),
(502,1925,cs),
(50,111,ls),
(37,60,o),
(62,0,o),
(125,0,cs)
);
},
{
closed = 1;
nodes = (
(77,20,o),
(59,63,o),
(70,107,cs),
(522,1921,ls),
(534,1968,o),
(546,1988,o),
(608,1988,cs),
(1261,1988,o),
(1681,1820,o),
(1589,1459,cs),
(1496,1085,o),
(1046,1015,o),
(432,1011,c),
(203,93,ls),
(196,65,o),
(183,20,o),
(125,20,cs)
);
},
{
closed = 1;
nodes = (
(658,1834,l),
(1244,1822,o),
(1494,1699,o),
(1438,1485,cs),
(1376,1238,o),
(983,1171,o),
(491,1164,c)
);
},
{
closed = 1;
nodes = (
(972,1149,o),
(1391,1215,o),
(1458,1481,cs),
(1518,1712,o),
(1247,1844,o),
(642,1854,c),
(465,1144,l)
);
}
);
vertWidth = 0;
width = 1447;
},
{
layerId = "6449507E-FEE0-4D4A-A81F-7CAB6A5803D5";
shapes = (
{
closed = 1;
nodes = (
(357,-20,o),
(406,80,o),
(417,133,c),
(606,901,l),
(1186,915,o),
(1592,1020,o),
(1686,1392,cs),
(1781,1780,o),
(1474,2028,o),
(676,2028,cs),
(546,2028,o),
(510,1971,o),
(488,1878,cs),
(72,200,l),
(39,89,o),
(109,-20,o),
(229,-20,cs)
);
},
{
closed = 1;
nodes = (
(133,20,o),
(84,99,o),
(110,190,c),
(526,1868,ls),
(547,1953,o),
(570,1988,o),
(676,1988,cs),
(1455,1988,o),
(1736,1761,o),
(1648,1402,cs),
(1558,1048,o),
(1164,951,o),
(574,941,c),
(379,143,ls),
(368,95,o),
(331,20,o),
(229,20,cs)
);
},
{
closed = 1;
nodes = (
(795,1671,l),
(1089,1656,o),
(1377,1603,o),
(1344,1469,cs),
(1297,1288,o),
(1007,1256,o),
(692,1250,c)
);
},
{
closed = 1;
nodes = (
(975,1213,o),
(1326,1238,o),
(1382,1459,cs),
(1428,1644,o),
(1072,1700,o),
(763,1713,c),
(640,1210,l)
);
}
);
vertWidth = 0;
width = 1524;
}
);
metricLeft = P;
metricWidth = P;
},
{
color = 5;
glyphname = Q.ss02;
lastChange = "2023-10-13 22:27:06 +0000";
layers = (
{
layerId = m01;
shapes = (
{
closed = 1;
nodes = (
(767,-20,o),
(885,25,o),
(992,118,c),
(1115,-73,ls),
(1146,-121,o),
(1190,-136,o),
(1232,-113,cs),
(1281,-87,o),
(1291,-36,o),
(1258,15,cs),
(1116,238,l),
(1279,428,o),
(1409,721,o),
(1489,1088,cs),
(1610,1653,o),
(1456,2028,o),
(1078,2028,cs),
(630,2028,o),
(302,1560,o),
(213,823,cs),
(155,311,o),
(315,-20,o),
(642,-20,cs)
);
},
{
closed = 1;
nodes = (
(328,0,o),
(176,317,o),
(233,821,cs),
(321,1551,o),
(641,2008,o),
(1078,2008,cs),
(1441,2008,o),
(1589,1648,o),
(1469,1092,cs),
(1389,719,o),
(1257,428,o),
(1092,240,c),
(1242,5,ls),
(1270,-38,o),
(1262,-74,o),
(1222,-95,cs),
(1189,-114,o),
(1157,-104,o),
(1131,-63,cs),
(996,148,l),
(887,47,o),
(769,0,o),
(642,0,cs)
);
},
{
closed = 1;
nodes = (
(472,1474,o),
(717,1868,o),
(1060,1868,cs),
(1311,1868,o),
(1409,1565,o),
(1305,1084,cs),
(1240,785,o),
(1142,546,o),
(1023,386,c),
(938,517,ls),
(901,574,o),
(855,589,o),
(807,557,cs),
(766,528,o),
(764,474,o),
(797,422,cs),
(903,256,l),
(822,179,o),
(735,143,o),
(644,143,cs),
(438,143,o),
(345,412,o),
(397,850,cs)
);
},
{
closed = 1;
nodes = (
(324,407,o),
(423,123,o),
(644,123,cs),
(745,123,o),
(842,165,o),
(929,252,c),
(813,432,ls),
(783,478,o),
(787,518,o),
(819,541,cs),
(857,566,o),
(891,556,o),
(922,507,cs),
(1021,351,l),
(1150,513,o),
(1256,765,o),
(1325,1080,cs),
(1430,1570,o),
(1326,1888,o),
(1060,1888,cs),
(705,1888,o),
(452,1482,o),
(377,852,cs)
);
}
);
vertWidth = 0;
width = 1498;
},
{
layerId = "6449507E-FEE0-4D4A-A81F-7CAB6A5803D5";
shapes = (
{
closed = 1;
nodes = (
(772,-20,o),
(862,3,o),
(945,46,c),
(992,-27,ls),
(1058,-132,o),
(1161,-155,o),
(1238,-113,cs),
(1320,-67,o),
(1349,53,o),
(1294,145,cs),
(1213,275,l),
(1357,458,o),
(1476,724,o),
(1549,1062,cs),
(1690,1704,o),
(1468,2028,o),
(1082,2028,cs),
(638,2028,o),
(285,1603,o),
(193,850,cs),
(127,271,o),
(344,-20,o),
(681,-20,cs)
);
},
{
closed = 1;
nodes = (
(366,20,o),
(169,287,o),
(233,846,cs),
(323,1584,o),
(659,1988,o),
(1082,1988,cs),
(1445,1988,o),
(1646,1689,o),
(1509,1070,cs),
(1434,722,o),
(1313,457,o),
(1163,278,c),
(1260,125,ls),
(1305,49,o),
(1283,-42,o),
(1218,-79,cs),
(1157,-112,o),
(1082,-94,o),
(1026,-5,cs),
(959,99,l),
(869,47,o),
(778,20,o),
(681,20,cs)
);
},
{
closed = 1;
nodes = (
(609,1341,o),
(784,1689,o),
(1066,1689,cs),
(1252,1689,o),
(1257,1381,o),
(1195,1099,cs),
(1151,896,o),
(1090,720,o),
(1015,585,c),
(1003,604,ls),
(943,698,o),
(844,730,o),
(746,665,cs),
(654,606,o),
(649,507,o),
(709,413,cs),
(762,332,l),
(736,323,o),
(711,319,o),
(684,319,cs),
(537,319,o),
(522,595,o),
(553,851,cs)
);
},
{
closed = 1;
nodes = (
(482,594,o),
(497,279,o),
(684,279,cs),
(731,279,o),
(779,292,o),
(821,314,c),
(743,435,ls),
(691,515,o),
(695,585,o),
(768,631,cs),
(848,685,o),
(918,662,o),
(969,582,cs),
(1016,508,l),
(1108,652,o),
(1183,856,o),
(1235,1091,cs),
(1297,1379,o),
(1294,1729,o),
(1066,1729,cs),
(757,1729,o),
(571,1355,o),
(513,855,cs)
);
}
);
vertWidth = 0;
width = 1507;
}
);
metricLeft = Q;
metricWidth = Q;
},
{
color = 5;
glyphname = R.ss02;
lastChange = "2023-10-13 22:27:06 +0000";
layers = (
{
layerId = m01;
shapes = (
{
closed = 1;
nodes = (
(1264,0,o),
(1297,92,o),
(1255,146,cs),
(602,999,l),
(1109,1013,o),
(1531,1090,o),
(1629,1483,cs),
(1724,1860,o),
(1291,2018,o),
(610,2008,cs),
(534,2007,o),
(515,1976,o),
(503,1926,cs),
(51,116,ls),
(37,59,o),
(57,0,o),
(119,0,cs),
(194,0,o),
(214,50,o),
(225,94,cs),
(434,932,l),
(1102,64,ls),
(1135,21,o),
(1158,0,o),
(1185,0,cs)
);
},
{
closed = 1;
nodes = (
(1166,20,o),
(1149,36,o),
(1118,76,cs),
(449,946,ls),
(427,974,o),
(423,973,o),
(416,944,cs),
(205,98,ls),
(195,57,o),
(180,20,o),
(119,20,cs),
(72,20,o),
(60,62,o),
(72,112,cs),
(523,1920,ls),
(535,1967,o),
(547,1987,o),
(610,1988,cs),
(1283,1998,o),
(1700,1848,o),
(1609,1487,cs),
(1515,1107,o),
(1104,1035,o),
(598,1020,cs),
(564,1019,o),
(563,1018,o),
(584,990,cs),
(1239,134,ls),
(1273,89,o),
(1248,20,o),
(1185,20,cs)
);
},
{
closed = 1;
nodes = (
(662,1848,l),
(1202,1842,o),
(1516,1755,o),
(1458,1518,cs),
(1381,1212,o),
(967,1163,o),
(490,1158,c)
);
},
{
closed = 1;
nodes = (
(953,1141,o),
(1395,1187,o),
(1478,1514,cs),
(1540,1771,o),
(1203,1864,o),
(646,1868,c),
(464,1138,l)
);
}
);
vertWidth = 0;
width = 1432;
},
{
layerId = "6449507E-FEE0-4D4A-A81F-7CAB6A5803D5";
shapes = (
{
closed = 1;
nodes = (
(1359,-20,o),
(1435,152,o),
(1350,264,cs),
(853,918,l),
(1286,954,o),
(1615,1072,o),
(1699,1420,cs),
(1798,1802,o),
(1521,2028,o),
(684,2028,cs),
(555,2028,o),
(513,1977,o),
(488,1878,cs),
(71,205,ls),
(38,71,o),
(111,-20,o),
(225,-20,cs),
(353,-20,o),
(392,61,o),
(413,141,cs),
(562,721,l),
(1056,74,ls),
(1117,-6,o),
(1163,-20,o),
(1210,-20,cs)
);
},
{
closed = 1;
nodes = (
(1171,20,o),
(1140,29,o),
(1088,98,cs),
(586,756,ls),
(547,807,o),
(543,807,o),
(526,739,cs),
(375,151,ls),
(356,76,o),
(327,20,o),
(225,20,cs),
(133,20,o),
(81,83,o),
(109,195,cs),
(526,1868,ls),
(548,1957,o),
(577,1988,o),
(684,1988,cs),
(1503,1988,o),
(1751,1784,o),
(1661,1430,cs),
(1581,1103,o),
(1274,992,o),
(845,957,cs),
(783,952,o),
(779,949,o),
(824,890,cs),
(1318,240,ls),
(1387,150,o),
(1329,20,o),
(1210,20,cs)
);
},
{
closed = 1;
nodes = (
(804,1688,l),
(1242,1679,o),
(1391,1622,o),
(1360,1501,cs),
(1304,1281,o),
(1016,1250,o),
(694,1246,c)
);
},
{
closed = 1;
nodes = (
(987,1208,o),
(1332,1230,o),
(1398,1491,cs),
(1440,1653,o),
(1247,1721,o),
(772,1728,c),
(642,1206,l)
);
}
);
vertWidth = 0;
width = 1536;
}
);
metricLeft = R;
metricWidth = R;
},
{
color = 5;
glyphname = S.ss02;
lastChange = "2023-10-13 22:27:06 +0000";
layers = (
{
layerId = m01;
shapes = (
{
closed = 1;
nodes = (
(925,-20,o),
(1153,189,o),
(1235,505,cs),
(1319,861,o),
(1195,1054,o),
(814,1154,cs),
(593,1211,o),
(507,1313,o),
(545,1460,cs),
(602,1682,o),
(832,1868,o),
(1043,1868,cs),
(1168,1868,o),
(1247,1776,o),
(1311,1581,cs),
(1326,1533,o),
(1373,1518,o),
(1416,1527,cs),
(1473,1536,o),
(1493,1589,o),
(1482,1626,cs),
(1408,1891,o),
(1274,2028,o),
(1058,2028,cs),
(760,2028,o),
(446,1796,o),
(374,1498,cs),
(314,1242,o),
(453,1066,o),
(779,978,cs),
(1039,909,o),
(1117,784,o),
(1061,533,cs),
(1005,296,o),
(846,143,o),
(642,143,cs),
(443,143,o),
(314,280,o),
(290,511,cs),
(284,559,o),
(251,580,o),
(196,577,cs),
(142,575,o),
(109,544,o),
(114,494,cs),
(149,176,o),
(348,-20,o),
(632,-20,cs)
);
},
{
closed = 1;
nodes = (
(357,0,o),
(168,187,o),
(134,496,cs),
(130,535,o),
(152,555,o),
(198,557,cs),
(244,560,o),
(266,546,o),
(270,509,cs),
(295,270,o),
(433,123,o),
(642,123,cs),
(855,123,o),
(1023,285,o),
(1081,529,cs),
(1139,789,o),
(1053,926,o),
(785,998,cs),
(466,1083,o),
(336,1248,o),
(394,1494,cs),
(464,1783,o),
(767,2008,o),
(1058,2008,cs),
(1265,2008,o),
(1390,1880,o),
(1462,1620,cs),
(1471,1591,o),
(1457,1554,o),
(1412,1547,cs),
(1376,1539,o),
(1342,1550,o),
(1331,1587,cs),
(1265,1787,o),
(1179,1888,o),
(1043,1888,cs),
(825,1888,o),
(584,1695,o),
(525,1464,cs),
(485,1308,o),
(579,1194,o),
(808,1134,cs),
(1182,1037,o),
(1297,856,o),
(1215,509,cs),
(1135,201,o),
(916,0,o),
(632,0,cs)
);
}
);
vertWidth = 0;
width = 1310;
},
{
layerId = "6449507E-FEE0-4D4A-A81F-7CAB6A5803D5";
shapes = (
{
closed = 1;
nodes = (
(981,-20,o),
(1240,185,o),
(1315,524,cs),
(1400,911,o),
(1278,1125,o),
(863,1234,cs),
(725,1270,o),
(666,1320,o),
(684,1394,cs),
(725,1561,o),
(890,1689,o),
(1045,1689,cs),
(1126,1689,o),
(1164,1617,o),
(1203,1492,cs),
(1230,1404,o),
(1318,1363,o),
(1405,1379,cs),
(1525,1401,o),
(1561,1520,o),
(1540,1590,cs),
(1455,1888,o),
(1297,2028,o),
(1061,2028,cs),
(745,2028,o),
(419,1793,o),
(344,1480,cs),
(276,1196,o),
(406,987,o),
(780,889,cs),
(955,841,o),
(1008,766,o),
(970,594,cs),
(931,426,o),
(826,319,o),
(678,319,cs),
(545,319,o),
(468,419,o),
(454,572,cs),
(445,665,o),
(384,726,o),
(266,717,cs),
(148,711,o),
(93,644,o),
(102,539,cs),
(139,186,o),
(364,-20,o),
(670,-20,cs)
);
},
{
closed = 1;
nodes = (
(382,20,o),
(177,208,o),
(142,543,cs),
(135,629,o),
(171,672,o),
(268,677,cs),
(366,684,o),
(407,644,o),
(414,568,cs),
(430,401,o),
(523,279,o),
(678,279,cs),
(845,279,o),
(967,404,o),
(1010,586,cs),
(1051,777,o),
(982,875,o),
(790,927,cs),
(434,1021,o),
(319,1205,o),
(382,1470,cs),
(454,1767,o),
(760,1988,o),
(1061,1988,cs),
(1279,1988,o),
(1420,1864,o),
(1502,1578,cs),
(1518,1524,o),
(1492,1436,o),
(1397,1419,cs),
(1325,1405,o),
(1262,1436,o),
(1241,1504,cs),
(1201,1632,o),
(1153,1729,o),
(1045,1729,cs),
(875,1729,o),
(692,1587,o),
(646,1404,cs),
(621,1304,o),
(704,1235,o),
(853,1196,cs),
(1249,1093,o),
(1357,902,o),
(1275,532,cs),
(1204,209,o),
(965,20,o),
(670,20,cs)
);
}
);
vertWidth = 0;
width = 1363;
}
);
metricLeft = S;
metricWidth = S;
},
{
color = 5;
glyphname = T.ss02;
lastChange = "2023-10-13 22:27:06 +0000";
layers = (
{
layerId = m01;
shapes = (
{
closed = 1;
nodes = (
(462,0,o),
(489,45,o),
(497,78,cs),
(941,1850,l),
(1415,1850,ls),
(1481,1850,o),
(1503,1887,o),
(1503,1928,cs),
(1503,1968,o),
(1481,2008,o),
(1415,2008,cs),
(319,2008,ls),
(250,2008,o),
(229,1968,o),
(229,1928,cs),
(229,1887,o),
(250,1850,o),
(319,1850,cs),
(761,1850,l),
(324,108,ls),
(312,60,o),
(336,0,o),
(402,0,cs)
);
},
{
closed = 1;
nodes = (
(351,20,o),
(334,63,o),
(344,104,cs),
(787,1870,l),
(319,1870,ls),
(263,1870,o),
(249,1894,o),
(249,1928,cs),
(249,1962,o),
(263,1988,o),
(319,1988,cs),
(1415,1988,ls),
(1468,1988,o),
(1483,1961,o),
(1483,1928,cs),
(1483,1894,o),
(1468,1870,o),
(1415,1870,cs),
(925,1870,l),
(477,82,ls),
(470,53,o),
(451,20,o),
(402,20,cs)
);
}
);
vertWidth = 0;
width = 990;
},
{
layerId = "6449507E-FEE0-4D4A-A81F-7CAB6A5803D5";
shapes = (
{
closed = 1;
nodes = (
(742,-20,o),
(789,66,o),
(805,128,cs),
(1197,1691,l),
(1554,1691,ls),
(1702,1691,o),
(1732,1782,o),
(1732,1857,cs),
(1732,1939,o),
(1700,2028,o),
(1554,2028,cs),
(552,2028,ls),
(409,2028,o),
(376,1939,o),
(376,1857,cs),
(376,1782,o),
(402,1691,o),
(552,1691,cs),
(832,1691,l),
(460,200,ls),
(433,91,o),
(503,-20,o),
(625,-20,cs)
);
},
{
closed = 1;
nodes = (
(527,20,o),
(475,102,o),
(498,190,cs),
(884,1731,l),
(552,1731,ls),
(434,1731,o),
(416,1790,o),
(416,1857,cs),
(416,1929,o),
(439,1988,o),
(552,1988,cs),
(1554,1988,ls),
(1670,1988,o),
(1692,1929,o),
(1692,1857,cs),
(1692,1790,o),
(1672,1731,o),
(1554,1731,cs),
(1165,1731,l),
(767,138,ls),
(752,83,o),
(717,20,o),
(625,20,cs)
);
}
);
vertWidth = 0;
width = 1410;
}
);
metricLeft = T;
metricWidth = T;
},
{
color = 5;
glyphname = U.ss02;
lastChange = "2023-10-13 22:27:06 +0000";
layers = (
{
layerId = m01;
shapes = (
{
closed = 1;
nodes = (
(748,-20,o),
(993,181,o),
(1166,475,c),
(1074,100,ls),
(1059,39,o),
(1099,3,o),
(1148,0,cs),
(1189,-3,o),
(1235,20,o),
(1248,72,cs),
(1706,1909,ls),
(1719,1962,o),
(1696,2008,o),
(1628,2008,cs),
(1568,2008,o),
(1540,1969,o),
(1530,1930,cs),
(1380,1328,l),
(1194,649,o),
(835,138,o),
(542,138,cs),
(351,138,o),
(289,356,o),
(377,705,cs),
(678,1904,ls),
(690,1952,o),
(663,2008,o),
(608,2008,cs),
(553,2008,o),
(512,1968,o),
(499,1914,cs),
(204,728,ls),
(91,274,o),
(207,-20,o),
(508,-20,cs)
);
},
{
closed = 1;
nodes = (
(221,0,o),
(113,279,o),
(224,724,cs),
(519,1910,ls),
(531,1957,o),
(562,1988,o),
(608,1988,cs),
(649,1988,o),
(668,1949,o),
(658,1910,cs),
(357,709,ls),
(268,352,o),
(336,118,o),
(542,118,cs),
(847,118,o),
(1212,640,o),
(1400,1322,c),
(1550,1926,ls),
(1558,1960,o),
(1579,1988,o),
(1628,1988,cs),
(1682,1988,o),
(1697,1958,o),
(1686,1915,cs),
(1228,78,ls),
(1217,35,o),
(1184,17,o),
(1150,20,cs),
(1109,23,o),
(1082,47,o),
(1094,96,cs),
(1205,546,ls),
(1217,597,o),
(1210,599,o),
(1186,553,cs),
(1014,224,o),
(758,0,o),
(508,0,cs)
);
}
);
vertWidth = 0;
width = 1469;
},
{
layerId = "6449507E-FEE0-4D4A-A81F-7CAB6A5803D5";
shapes = (
{
closed = 1;
nodes = (
(756,-20,o),
(905,91,o),
(1020,248,c),
(1004,191,ls),
(968,63,o),
(1061,-20,o),
(1161,-20,cs),
(1237,-20,o),
(1330,19,o),
(1355,120,cs),
(1778,1818,ls),
(1804,1923,o),
(1766,2028,o),
(1624,2028,cs),
(1503,2028,o),
(1450,1961,o),
(1430,1883,cs),
(1287,1312,l),
(1122,731,o),
(849,317,o),
(617,317,cs),
(491,317,o),
(520,552,o),
(558,705,cs),
(835,1813,ls),
(860,1913,o),
(798,2028,o),
(688,2028,cs),
(594,2028,o),
(511,1969,o),
(487,1873,cs),
(213,775,ls),
(75,223,o),
(265,-20,o),
(586,-20,cs)
);
},
{
closed = 1;
nodes = (
(286,20,o),
(120,238,o),
(251,765,cs),
(525,1863,ls),
(545,1944,o),
(608,1988,o),
(688,1988,cs),
(772,1988,o),
(816,1904,o),
(796,1823,cs),
(520,715,ls),
(481,558,o),
(443,277,o),
(617,277,cs),
(874,277,o),
(1158,712,o),
(1325,1302,c),
(1468,1873,ls),
(1485,1941,o),
(1523,1988,o),
(1624,1988,cs),
(1737,1988,o),
(1762,1916,o),
(1740,1828,cs),
(1317,130,ls),
(1297,48,o),
(1227,20,o),
(1161,20,cs),
(1080,20,o),
(1015,76,o),
(1042,183,cs),
(1073,304,ls),
(1105,430,o),
(1104,435,o),
(1029,322,cs),
(898,124,o),
(741,20,o),
(586,20,cs)
);
}
);
vertWidth = 0;
width = 1574;
}
);
metricLeft = U;
metricWidth = U;
},
{
color = 5;
glyphname = V.ss02;
lastChange = "2023-10-13 22:27:06 +0000";
layers = (
{
layerId = m01;
shapes = (
{
closed = 1;
nodes = (
(642,0,o),
(662,40,o),
(684,84,cs),
(1582,1895,ls),
(1617,1966,o),
(1574,2008,o),
(1521,2008,cs),
(1458,2008,o),
(1431,1981,o),
(1405,1927,cs),
(640,371,l),
(558,1926,ls),
(556,1959,o),
(540,2008,o),
(464,2008,cs),
(400,2008,o),
(379,1967,o),
(382,1916,cs),
(488,87,ls),
(490,54,o),
(511,0,o),
(576,0,cs)
);
},
{
closed = 1;
nodes = (
(526,20,o),
(510,59,o),
(508,89,cs),
(402,1918,ls),
(399,1962,o),
(413,1988,o),
(464,1988,cs),
(525,1988,o),
(536,1954,o),
(538,1924,cs),
(621,350,ls),
(624,299,o),
(627,299,o),
(652,350,cs),
(1423,1919,ls),
(1447,1968,o),
(1467,1988,o),
(1521,1988,cs),
(1564,1988,o),
(1592,1960,o),
(1564,1903,cs),
(666,92,ls),
(644,48,o),
(630,20,o),
(576,20,cs)
);
}
);
vertWidth = 0;
width = 1206;
},
{
layerId = "6449507E-FEE0-4D4A-A81F-7CAB6A5803D5";
shapes = (
{
closed = 1;
nodes = (
(714,-20,o),
(755,36,o),
(791,108,cs),
(1624,1786,ls),
(1702,1944,o),
(1592,2028,o),
(1478,2028,cs),
(1378,2028,o),
(1333,1987,o),
(1289,1897,cs),
(744,789,l),
(689,1861,ls),
(685,1932,o),
(653,2028,o),
(508,2028,cs),
(381,2028,o),
(331,1951,o),
(337,1843,cs),
(431,147,ls),
(435,79,o),
(481,-20,o),
(607,-20,cs)
);
},
{
closed = 1;
nodes = (
(508,20,o),
(474,91,o),
(471,149,cs),
(377,1845,ls),
(372,1938,o),
(405,1988,o),
(508,1988,cs),
(624,1988,o),
(646,1921,o),
(649,1859,cs),
(706,755,ls),
(711,652,o),
(721,652,o),
(772,755,cs),
(1325,1879,ls),
(1365,1961,o),
(1394,1988,o),
(1478,1988,cs),
(1571,1988,o),
(1652,1933,o),
(1588,1804,cs),
(755,126,ls),
(722,59,o),
(693,20,o),
(607,20,cs)
);
}
);
vertWidth = 0;
width = 1278;
}
);
metricLeft = V;
metricWidth = V;
},
{
color = 5;
glyphname = W.ss02;
lastChange = "2023-10-13 22:27:06 +0000";
layers = (
{
layerId = m01;
shapes = (
{
closed = 1;
nodes = (
(576,0,o),
(603,32,o),
(636,83,cs),
(1110,814,l),
(1348,93,ls),
(1367,36,o),
(1374,0,o),
(1434,0,cs),
(1482,0,o),
(1521,28,o),
(1547,84,cs),
(2382,1895,ls),
(2410,1955,o),
(2376,2008,o),
(2311,2008,cs),
(2265,2008,o),
(2226,1976,o),
(2203,1927,cs),
(1465,327,l),
(1239,1010,ls),
(1225,1051,o),
(1210,1092,o),
(1151,1092,cs),
(1099,1092,o),
(1068,1053,o),
(1041,1012,cs),
(590,316,l),
(556,1923,ls),
(555,1972,o),
(520,2008,o),
(468,2008,cs),
(417,2008,o),
(379,1972,o),
(380,1917,cs),
(418,96,ls),
(419,34,o),
(445,0,o),
(503,0,cs)
);
},
{
closed = 1;
nodes = (
(456,20,o),
(439,42,o),
(438,96,cs),
(400,1917,ls),
(399,1963,o),
(426,1988,o),
(468,1988,cs),
(511,1988,o),
(535,1963,o),
(536,1923,cs),
(570,299,ls),
(571,257,o),
(574,257,o),
(601,298,cs),
(1057,1002,ls),
(1082,1041,o),
(1109,1072,o),
(1151,1072,cs),
(1196,1072,o),
(1206,1045,o),
(1219,1004,cs),
(1448,310,ls),
(1460,273,o),
(1462,273,o),
(1479,309,cs),
(2221,1919,ls),
(2241,1963,o),
(2273,1988,o),
(2311,1988,cs),
(2362,1988,o),
(2386,1951,o),
(2364,1903,cs),
(1529,92,ls),
(1506,42,o),
(1475,20,o),
(1434,20,cs),
(1390,20,o),
(1387,42,o),
(1368,99,cs),
(1128,827,ls),
(1118,858,o),
(1116,858,o),
(1095,826,cs),
(620,93,ls),
(588,44,o),
(567,20,o),
(503,20,cs)
);
}
);
vertWidth = 0;
width = 2002;
},
{
layerId = "6449507E-FEE0-4D4A-A81F-7CAB6A5803D5";
shapes = (
{
closed = 1;
nodes = (
(612,-20,o),
(667,16,o),
(726,110,cs),
(1071,655,l),
(1225,179,ls),
(1262,63,o),
(1290,0,o),
(1402,0,cs),
(1477,0,o),
(1545,36,o),
(1589,132,cs),
(2345,1769,ls),
(2403,1895,o),
(2325,2008,o),
(2194,2008,cs),
(2116,2008,o),
(2048,1965,o),
(2007,1876,cs),
(1489,756,l),
(1353,1175,ls),
(1324,1265,o),
(1299,1343,o),
(1181,1343,cs),
(1096,1343,o),
(1040,1289,o),
(992,1213,cs),
(704,756,l),
(680,1835,ls),
(678,1937,o),
(606,2008,o),
(501,2008,cs),
(403,2008,o),
(326,1943,o),
(328,1832,cs),
(364,161,ls),
(367,32,o),
(429,-20,o),
(537,-20,cs)
);
},
{
closed = 1;
nodes = (
(446,20,o),
(406,54,o),
(404,161,cs),
(368,1832,ls),
(366,1922,o),
(420,1968,o),
(501,1968,cs),
(587,1968,o),
(638,1917,o),
(640,1835,cs),
(664,724,ls),
(666,630,o),
(669,630,o),
(727,721,cs),
(1026,1193,ls),
(1070,1263,o),
(1113,1303,o),
(1181,1303,cs),
(1272,1303,o),
(1287,1252,o),
(1315,1165,cs),
(1458,725,ls),
(1482,650,o),
(1484,650,o),
(1519,726,cs),
(2043,1860,ls),
(2078,1935,o),
(2130,1968,o),
(2194,1968,cs),
(2300,1968,o),
(2356,1887,o),
(2309,1785,cs),
(1553,148,ls),
(1516,67,o),
(1465,40,o),
(1402,40,cs),
(1314,40,o),
(1298,80,o),
(1263,189,cs),
(1104,679,ls),
(1083,744,o),
(1080,744,o),
(1040,681,cs),
(692,130,ls),
(638,45,o),
(599,20,o),
(537,20,cs)
);
}
);
vertWidth = 0;
width = 2003;
}
);
metricLeft = W;
metricWidth = W;
},
{
color = 5;
glyphname = X.ss02;
lastChange = "2023-10-13 22:27:06 +0000";
layers = (
{
layerId = m01;
shapes = (
{
closed = 1;
nodes = (
(-16,-10,o),
(46,-10,o),
(89,41,cs),
(753,833,l),
(1017,70,ls),
(1041,2,o),
(1103,-13,o),
(1151,9,cs),
(1184,27,o),
(1202,69,o),
(1184,120,cs),
(893,967,l),
(1653,1864,ls),
(1697,1916,o),
(1682,1965,o),
(1651,1990,cs),
(1617,2017,o),
(1557,2017,o),
(1514,1965,cs),
(830,1153,l),
(558,1943,ls),
(536,2006,o),
(470,2019,o),
(427,2003,cs),
(383,1986,o),
(373,1942,o),
(394,1882,cs),
(690,1020,l),
(-57,134,ls),
(-90,94,o),
(-83,46,o),
(-52,21,cs)
);
},
{
closed = 1;
nodes = (
(-63,55,o),
(-69,89,o),
(-41,122,cs),
(712,1016,l),
(412,1888,ls),
(393,1942,o),
(401,1973,o),
(435,1985,cs),
(469,2000,o),
(522,1988,o),
(540,1937,cs),
(813,1139,ls),
(821,1115,o),
(824,1115,o),
(844,1139,cs),
(1530,1953,ls),
(1566,1996,o),
(1612,1996,o),
(1639,1974,cs),
(1663,1954,o),
(1674,1921,o),
(1637,1878,cs),
(871,971,l),
(1166,114,ls),
(1181,71,o),
(1167,41,o),
(1141,27,cs),
(1103,9,o),
(1054,20,o),
(1035,76,cs),
(769,850,ls),
(762,871,o),
(759,871,o),
(741,849,cs),
(73,53,ls),
(37,11,o),
(-9,11,o),
(-40,37,cs)
);
}
);
vertWidth = 0;
width = 1263;
},
{
layerId = "6449507E-FEE0-4D4A-A81F-7CAB6A5803D5";
shapes = (
{
closed = 1;
nodes = (
(161,-37,o),
(269,-47,o),
(353,52,cs),
(866,658,l),
(1053,110,ls),
(1097,-18,o),
(1224,-38,o),
(1306,-2,cs),
(1370,29,o),
(1424,109,o),
(1387,218,cs),
(1141,937,l),
(1823,1740,ls),
(1919,1854,o),
(1864,1947,o),
(1807,1990,cs),
(1749,2039,o),
(1630,2052,o),
(1546,1953,cs),
(1010,1320,l),
(810,1903,ls),
(766,2030,o),
(634,2047,o),
(560,2019,cs),
(491,1992,o),
(429,1930,o),
(478,1788,cs),
(734,1041,l),
(71,260,ls),
(-7,169,o),
(31,70,o),
(94,19,cs)
);
},
{
closed = 1;
nodes = (
(67,93,o),
(40,163,o),
(101,234,cs),
(780,1033,l),
(516,1802,ls),
(477,1916,o),
(515,1959,o),
(574,1981,cs),
(637,2005,o),
(737,1991,o),
(772,1889,cs),
(972,1304,ls),
(993,1243,o),
(996,1243,o),
(1044,1299,cs),
(1576,1927,ls),
(1645,2008,o),
(1734,1997,o),
(1783,1958,cs),
(1831,1920,o),
(1870,1857,o),
(1793,1766,cs),
(1095,945,l),
(1349,204,ls),
(1379,117,o),
(1343,58,o),
(1290,34,cs),
(1221,3,o),
(1127,20,o),
(1091,124,cs),
(899,683,ls),
(881,735,o),
(877,735,o),
(835,685,cs),
(323,78,ls),
(254,-4,o),
(175,3,o),
(120,49,cs)
);
}
);
vertWidth = 0;
width = 1479;
}
);
metricLeft = X;
metricWidth = X;
},
{
color = 5;
glyphname = Y.ss02;
lastChange = "2023-10-13 22:27:06 +0000";
layers = (
{
layerId = m01;
shapes = (
{
closed = 1;
nodes = (
(307,-10,o),
(366,-13,o),
(401,40,cs),
(1595,1866,ls),
(1627,1915,o),
(1615,1967,o),
(1582,1990,cs),
(1543,2020,o),
(1477,2008,o),
(1443,1956,cs),
(927,1168,l),
(556,1941,ls),
(526,2003,o),
(471,2016,o),
(430,2000,cs),
(387,1984,o),
(367,1939,o),
(396,1878,cs),
(815,996,l),
(252,133,ls),
(226,93,o),
(232,45,o),
(267,21,cs)
);
},
{
closed = 1;
nodes = (
(251,56,o),
(247,90,o),
(268,123,cs),
(837,994,l),
(414,1886,ls),
(389,1938,o),
(402,1970,o),
(438,1982,cs),
(471,1996,o),
(513,1985,o),
(538,1933,cs),
(912,1155,ls),
(924,1131,o),
(926,1131,o),
(943,1156,cs),
(1459,1946,ls),
(1487,1989,o),
(1539,1997,o),
(1570,1974,cs),
(1596,1956,o),
(1606,1917,o),
(1579,1876,cs),
(385,50,ls),
(357,7,o),
(313,11,o),
(279,37,cs)
);
}
);
vertWidth = 0;
width = 1243;
},
{
layerId = "6449507E-FEE0-4D4A-A81F-7CAB6A5803D5";
shapes = (
{
closed = 1;
nodes = (
(544,-39,o),
(663,-46,o),
(730,57,cs),
(1832,1750,ls),
(1901,1856,o),
(1859,1947,o),
(1801,1993,cs),
(1728,2046,o),
(1600,2041,o),
(1533,1938,cs),
(1111,1291,l),
(809,1913,ls),
(750,2034,o),
(640,2048,o),
(562,2019,cs),
(497,1995,o),
(416,1922,o),
(484,1778,cs),
(881,939,l),
(430,248,ls),
(372,159,o),
(402,70,o),
(469,18,cs)
);
},
{
closed = 1;
nodes = (
(438,93,o),
(418,155,o),
(464,226,cs),
(927,935,l),
(520,1796,ls),
(466,1910,o),
(521,1961,o),
(576,1981,cs),
(642,2007,o),
(724,1996,o),
(773,1895,cs),
(1081,1258,ls),
(1104,1211,o),
(1107,1211,o),
(1138,1259,cs),
(1567,1916,ls),
(1621,1999,o),
(1717,2004,o),
(1777,1961,c),
(1825,1922,o),
(1854,1857,o),
(1798,1772,cs),
(696,79,ls),
(643,-2,o),
(556,2,o),
(493,50,cs)
);
}
);
vertWidth = 0;
width = 1502;
}
);
metricLeft = Y;
metricWidth = Y;
},
{
color = 5;
glyphname = Z.ss02;
lastChange = "2023-10-13 22:27:06 +0000";
layers = (
{
layerId = m01;
shapes = (
{
closed = 1;
nodes = (
(1256,1,ls),
(1325,1,o),
(1346,41,o),
(1346,81,cs),
(1346,124,o),
(1325,164,o),
(1256,164,cs),
(268,164,l),
(1674,1865,ls),
(1716,1915,o),
(1706,1966,o),
(1680,1988,cs),
(1663,2002,o),
(1645,2008,o),
(1614,2008,cs),
(540,2008,ls),
(470,2008,o),
(449,1968,o),
(449,1928,cs),
(449,1887,o),
(470,1848,o),
(540,1848,cs),
(1436,1848,l),
(20,134,ls),
(-6,102,o),
(-9,58,o),
(12,31,cs),
(24,15,o),
(59,1,o),
(95,1,cs)
);
},
{
closed = 1;
nodes = (
(64,21,o),
(36,32,o),
(28,43,cs),
(12,63,o),
(14,95,o),
(36,122,cs),
(1455,1840,ls),
(1477,1866,o),
(1477,1868,o),
(1440,1868,cs),
(540,1868,ls),
(483,1868,o),
(469,1894,o),
(469,1928,cs),
(469,1962,o),
(483,1988,o),
(540,1988,cs),
(1614,1988,ls),
(1641,1988,o),
(1653,1984,o),
(1668,1972,cs),
(1686,1957,o),
(1694,1920,o),
(1658,1877,cs),
(246,168,ls),
(227,145,o),
(228,144,o),
(257,144,cs),
(1256,144,ls),
(1312,144,o),
(1326,118,o),
(1326,81,cs),
(1326,47,o),
(1312,21,o),
(1256,21,cs),
(95,21,ls)
);
}
);
vertWidth = 0;
width = 1502;
},
{
layerId = "6449507E-FEE0-4D4A-A81F-7CAB6A5803D5";
shapes = (
{
closed = 1;
nodes = (
(1254,-20,ls),
(1400,-20,o),
(1433,72,o),
(1433,151,cs),
(1433,230,o),
(1400,319,o),
(1254,319,cs),
(550,319,l),
(1725,1740,ls),
(1821,1856,o),
(1763,1946,o),
(1721,1987,cs),
(1685,2019,o),
(1651,2028,o),
(1598,2028,cs),
(612,2028,ls),
(466,2028,o),
(436,1939,o),
(436,1857,cs),
(436,1781,o),
(467,1689,o),
(612,1689,cs),
(1230,1689,l),
(48,260,ls),
(-8,192,o),
(-2,98,o),
(37,43,c),
(57,19,o),
(115,-20,o),
(188,-20,cs)
);
},
{
closed = 1;
nodes = (
(130,20,o),
(86,48,o),
(69,67,c),
(39,112,o),
(34,181,o),
(78,234,cs),
(1271,1675,ls),
(1314,1727,o),
(1312,1729,o),
(1239,1729,cs),
(612,1729,ls),
(496,1729,o),
(476,1790,o),
(476,1857,cs),
(476,1930,o),
(496,1988,o),
(612,1988,cs),
(1598,1988,ls),
(1644,1988,o),
(1666,1982,o),
(1693,1957,cs),
(1730,1922,o),
(1771,1858,o),
(1695,1766,cs),
(501,324,ls),
(465,281,o),
(465,279,o),
(530,279,cs),
(1254,279,ls),
(1370,279,o),
(1393,220,o),
(1393,151,cs),
(1393,82,o),
(1370,20,o),
(1254,20,cs),
(188,20,ls)
);
}
);
vertWidth = 0;
width = 1597;
}
);
metricLeft = Z;
metricWidth = Z;
},
{
color = 5;
glyphname = A.ss04;
lastChange = "2023-10-13 22:27:06 +0000";
layers = (
{
layerId = m01;
shapes = (
{
closed = 1;
nodes = (
(53,0,o),
(71,20,o),
(105,75,cs),
(674,999,l),
(1090,999,l),
(1098,75,ls),
(1098,42,o),
(1106,0,o),
(1180,0,cs),
(1244,0,o),
(1269,35,o),
(1268,85,cs),
(1245,1936,ls),
(1245,1973,o),
(1211,2008,o),
(1162,2008,cs),
(1095,2008,o),
(1079,1972,o),
(1055,1933,cs),
(-67,116,ls),
(-107,51,o),
(-69,0,o),
(-15,0,cs)
);
},
{
closed = 1;
nodes = (
(-57,20,o),
(-83,54,o),
(-51,106,cs),
(1071,1923,ls),
(1096,1963,o),
(1108,1988,o),
(1162,1988,cs),
(1202,1988,o),
(1225,1963,o),
(1225,1936,cs),
(1248,85,ls),
(1249,42,o),
(1233,20,o),
(1180,20,cs),
(1123,20,o),
(1118,45,o),
(1118,75,cs),
(1110,1019,l),
(662,1019,l),
(89,85,ls),
(56,31,o),
(44,20,o),
(-15,20,cs)
);
},
{
closed = 1;
nodes = (
(1080,1651,l),
(1088,1160,l),
(773,1160,l)
);
},
{
closed = 1;
nodes = (
(1108,1140,l),
(1101,1676,ls),
(1100,1718,o),
(1098,1717,o),
(1072,1676,cs),
(737,1140,l)
);
},
{
closed = 1;
nodes = (
(1176,1881,o),
(1192,1898,o),
(1192,1919,cs),
(1192,1940,o),
(1176,1956,o),
(1155,1956,cs),
(1134,1956,o),
(1117,1940,o),
(1117,1919,cs),
(1117,1898,o),
(1134,1881,o),
(1155,1881,cs)
);
}
);
vertWidth = 0;
width = 1388;
},
{
layerId = "6449507E-FEE0-4D4A-A81F-7CAB6A5803D5";
shapes = (
{
closed = 1;
nodes = (
(198,-20,o),
(232,3,o),
(288,94,cs),
(690,746,l),
(1020,746,l),
(1026,143,ls),
(1027,79,o),
(1039,-20,o),
(1202,-20,cs),
(1330,-20,o),
(1377,51,o),
(1376,151,cs),
(1355,1870,ls),
(1354,1942,o),
(1296,2028,o),
(1184,2028,cs),
(1077,2028,o),
(1044,1981,o),
(1003,1915,cs),
(-32,234,ls),
(-134,68,o),
(-15,-20,o),
(100,-20,cs)
);
},
{
closed = 1;
nodes = (
(9,20,o),
(-83,76,o),
(2,214,cs),
(1037,1893,ls),
(1078,1959,o),
(1099,1988,o),
(1184,1988,cs),
(1273,1988,o),
(1314,1927,o),
(1315,1870,cs),
(1336,151,ls),
(1337,66,o),
(1306,20,o),
(1202,20,cs),
(1074,20,o),
(1067,82,o),
(1066,143,cs),
(1059,786,l),
(668,786,l),
(254,114,ls),
(204,32,o),
(185,20,o),
(100,20,cs)
);
},
{
closed = 1;
nodes = (
(1015,1272,l),
(1017,1082,l),
(897,1082,l)
);
},
{
closed = 1;
nodes = (
(1057,1042,l),
(1054,1314,ls),
(1053,1410,o),
(1051,1409,o),
(993,1315,cs),
(825,1042,l)
);
},
{
closed = 1;
nodes = (
(1211,1803,o),
(1238,1830,o),
(1238,1863,cs),
(1238,1896,o),
(1211,1923,o),
(1178,1923,cs),
(1145,1923,o),
(1118,1896,o),
(1118,1863,cs),
(1118,1830,o),
(1145,1803,o),
(1178,1803,cs)
);
}
);
vertWidth = 0;
width = 1471;
}
);
metricLeft = A.ss02;
metricWidth = A;
},
{
color = 5;
glyphname = B.ss04;
lastChange = "2023-10-13 22:27:06 +0000";
layers = (
{
layerId = m01;
shapes = (
{
closed = 1;
nodes = (
(793,2,o),
(1162,141,o),
(1238,443,cs),
(1311,737,o),
(1157,955,o),
(831,1061,c),
(1117,1097,o),
(1288,1208,o),
(1337,1413,cs),
(1426,1792,o),
(1150,2011,o),
(608,2008,cs),
(552,2008,o),
(517,1988,o),
(502,1926,cs),
(50,113,ls),
(36,56,o),
(68,0,o),
(127,0,cs)
);
},
{
closed = 1;
nodes = (
(81,20,o),
(58,61,o),
(70,109,cs),
(521,1920,ls),
(534,1974,o),
(559,1988,o),
(608,1988,cs),
(1140,1991,o),
(1404,1783,o),
(1317,1417,cs),
(1269,1214,o),
(1097,1108,o),
(799,1078,cs),
(740,1072,o),
(744,1068,o),
(799,1051,cs),
(1135,950,o),
(1290,740,o),
(1218,447,cs),
(1146,157,o),
(788,22,o),
(127,20,cs)
);
},
{
closed = 1;
nodes = (
(451,1001,l),
(910,960,o),
(1139,764,o),
(1070,481,cs),
(1016,261,o),
(742,159,o),
(240,155,c)
);
},
{
closed = 1;
nodes = (
(737,135,o),
(1032,242,o),
(1090,477,cs),
(1163,775,o),
(915,984,o),
(435,1023,c),
(214,135,l)
);
},
{
closed = 1;
nodes = (
(662,1850,l),
(1045,1843,o),
(1231,1695,o),
(1166,1433,cs),
(1120,1237,o),
(897,1154,o),
(494,1175,c)
);
},
{
closed = 1;
nodes = (
(892,1130,o),
(1136,1217,o),
(1186,1429,cs),
(1255,1706,o),
(1050,1867,o),
(646,1870,c),
(468,1157,l)
);
},
{
closed = 1;
nodes = (
(616,1881,o),
(632,1898,o),
(632,1919,cs),
(632,1940,o),
(616,1956,o),
(595,1956,cs),
(574,1956,o),
(557,1940,o),
(557,1919,cs),
(557,1898,o),
(574,1881,o),
(595,1881,cs)
);
}
);
vertWidth = 0;
width = 1330;
},
{
layerId = "6449507E-FEE0-4D4A-A81F-7CAB6A5803D5";
shapes = (
{
closed = 1;
nodes = (
(913,-20,o),
(1269,163,o),
(1346,468,cs),
(1410,723,o),
(1329,905,o),
(1098,1020,c),
(1288,1079,o),
(1397,1190,o),
(1437,1355,cs),
(1531,1751,o),
(1288,2028,o),
(685,2028,cs),
(582,2028,o),
(519,1999,o),
(489,1880,cs),
(71,203,ls),
(40,80,o),
(116,-20,o),
(228,-20,cs)
);
},
{
closed = 1;
nodes = (
(139,20,o),
(84,92,o),
(109,193,cs),
(527,1870,ls),
(552,1969,o),
(594,1988,o),
(685,1988,cs),
(1266,1988,o),
(1487,1738,o),
(1399,1365,cs),
(1360,1205,o),
(1255,1105,o),
(1061,1051,cs),
(989,1031,o),
(989,1027,o),
(1061,994,cs),
(1292,887,o),
(1369,724,o),
(1308,478,cs),
(1235,193,o),
(901,20,o),
(228,20,cs)
);
},
{
closed = 1;
nodes = (
(605,893,l),
(874,851,o),
(1055,745,o),
(1009,549,cs),
(970,395,o),
(764,332,o),
(458,317,c)
);
},
{
closed = 1;
nodes = (
(747,285,o),
(1001,352,o),
(1047,539,cs),
(1104,776,o),
(872,899,o),
(575,937,c),
(406,275,l)
);
},
{
closed = 1;
nodes = (
(804,1686,l),
(1008,1665,o),
(1136,1585,o),
(1095,1420,cs),
(1062,1291,o),
(913,1227,o),
(686,1216,c)
);
},
{
closed = 1;
nodes = (
(900,1177,o),
(1093,1249,o),
(1133,1410,cs),
(1185,1616,o),
(1007,1713,o),
(774,1728,c),
(634,1174,l)
);
},
{
closed = 1;
nodes = (
(689,1803,o),
(716,1830,o),
(716,1863,cs),
(716,1896,o),
(689,1923,o),
(656,1923,cs),
(623,1923,o),
(596,1896,o),
(596,1863,cs),
(596,1830,o),
(623,1803,o),
(656,1803,cs)
);
}
);
vertWidth = 0;
width = 1424;
}
);
metricLeft = B.ss02;
metricWidth = B;
},
{
color = 5;
glyphname = C.ss04;
lastChange = "2023-10-13 22:27:06 +0000";
layers = (
{
layerId = m01;
shapes = (
{
closed = 1;
nodes = (
(827,-20,o),
(1048,149,o),
(1239,437,cs),
(1305,542,o),
(1317,580,o),
(1317,600,cs),
(1319,643,o),
(1285,665,o),
(1248,668,cs),
(1189,674,o),
(1166,624,o),
(1114,546,cs),
(943,288,o),
(775,143,o),
(644,143,cs),
(437,143,o),
(344,412,o),
(396,850,cs),
(471,1474,o),
(717,1868,o),
(1060,1868,cs),
(1170,1868,o),
(1248,1787,o),
(1295,1661,cs),
(1315,1613,o),
(1362,1589,o),
(1411,1607,cs),
(1458,1621,o),
(1476,1658,o),
(1465,1702,cs),
(1412,1903,o),
(1281,2028,o),
(1078,2028,cs),
(630,2028,o),
(302,1560,o),
(212,823,cs),
(155,312,o),
(313,-20,o),
(641,-20,cs)
);
},
{
closed = 1;
nodes = (
(327,0,o),
(175,317,o),
(232,821,cs),
(321,1551,o),
(641,2008,o),
(1078,2008,cs),
(1272,2008,o),
(1394,1892,o),
(1445,1696,cs),
(1454,1661,o),
(1443,1637,o),
(1405,1625,cs),
(1365,1611,o),
(1330,1628,o),
(1313,1669,cs),
(1265,1798,o),
(1179,1888,o),
(1060,1888,cs),
(704,1888,o),
(451,1482,o),
(376,852,cs),
(324,408,o),
(422,123,o),
(644,123,cs),
(784,123,o),
(955,276,o),
(1130,536,cs),
(1181,616,o),
(1201,652,o),
(1246,648,cs),
(1278,645,o),
(1299,632,o),
(1297,600,cs),
(1297,583,o),
(1289,548,o),
(1223,447,cs),
(1036,161,o),
(820,0,o),
(641,0,cs)
);
},
{
closed = 1;
nodes = (
(1400,1651,o),
(1416,1668,o),
(1416,1689,cs),
(1416,1710,o),
(1400,1726,o),
(1379,1726,cs),
(1358,1726,o),
(1341,1710,o),
(1341,1689,cs),
(1341,1668,o),
(1358,1651,o),
(1379,1651,cs)
);
}
);
vertWidth = 0;
width = 1288;
},
{
layerId = "6449507E-FEE0-4D4A-A81F-7CAB6A5803D5";
shapes = (
{
closed = 1;
nodes = (
(879,-20,o),
(1117,139,o),
(1315,446,cs),
(1398,573,o),
(1404,620,o),
(1404,644,cs),
(1404,716,o),
(1347,796,o),
(1249,802,cs),
(1174,808,o),
(1124,775,o),
(1039,645,cs),
(910,448,o),
(787,319,o),
(689,319,cs),
(542,319,o),
(530,595,o),
(561,851,cs),
(616,1341,o),
(791,1689,o),
(1072,1689,cs),
(1131,1689,o),
(1169,1632,o),
(1196,1562,cs),
(1234,1463,o),
(1327,1425,o),
(1423,1454,cs),
(1516,1483,o),
(1559,1556,o),
(1535,1655,cs),
(1479,1887,o),
(1323,2028,o),
(1087,2028,cs),
(643,2028,o),
(290,1603,o),
(198,850,cs),
(132,272,o),
(348,-20,o),
(687,-20,cs)
);
},
{
closed = 1;
nodes = (
(371,20,o),
(174,286,o),
(238,846,cs),
(328,1584,o),
(665,1988,o),
(1087,1988,cs),
(1305,1988,o),
(1444,1863,o),
(1497,1645,cs),
(1516,1564,o),
(1486,1515,o),
(1411,1492,cs),
(1332,1467,o),
(1265,1495,o),
(1234,1576,cs),
(1204,1652,o),
(1154,1729,o),
(1072,1729,cs),
(763,1729,o),
(577,1355,o),
(521,855,cs),
(490,594,o),
(501,279,o),
(689,279,cs),
(807,279,o),
(942,423,o),
(1073,623,cs),
(1151,744,o),
(1186,767,o),
(1247,762,cs),
(1323,758,o),
(1364,701,o),
(1364,644,cs),
(1364,624,o),
(1359,586,o),
(1281,468,cs),
(1088,169,o),
(865,20,o),
(687,20,cs)
);
},
{
closed = 1;
nodes = (
(1405,1552,o),
(1432,1579,o),
(1432,1612,cs),
(1432,1645,o),
(1405,1672,o),
(1372,1672,cs),
(1339,1672,o),
(1312,1645,o),
(1312,1612,cs),
(1312,1579,o),
(1339,1552,o),
(1372,1552,cs)
);
}
);
vertWidth = 0;
width = 1375;
}
);
metricLeft = C.ss02;
metricWidth = C;
},
{
color = 5;
glyphname = D.ss04;
lastChange = "2023-10-13 22:27:06 +0000";
layers = (
{
layerId = m01;
shapes = (
{
closed = 1;
nodes = (
(328,0,ls),
(965,0,o),
(1377,400,o),
(1544,1197,cs),
(1647,1687,o),
(1415,2008,o),
(935,2008,cs),
(607,2008,ls),
(534,2008,o),
(515,1977,o),
(503,1927,cs),
(47,98,ls),
(35,50,o),
(60,0,o),
(122,0,cs)
);
},
{
closed = 1;
nodes = (
(74,20,o),
(57,54,o),
(67,94,cs),
(523,1923,ls),
(534,1968,o),
(546,1988,o),
(607,1988,cs),
(935,1988,ls),
(1403,1988,o),
(1625,1681,o),
(1524,1201,cs),
(1359,411,o),
(956,20,o),
(328,20,cs),
(122,20,ls)
);
},
{
closed = 1;
nodes = (
(662,1848,l),
(914,1848,ls),
(1276,1848,o),
(1453,1605,o),
(1363,1188,cs),
(1221,510,o),
(878,160,o),
(338,160,cs),
(241,160,l)
);
},
{
closed = 1;
nodes = (
(338,140,ls),
(887,140,o),
(1239,499,o),
(1383,1184,cs),
(1475,1611,o),
(1288,1868,o),
(914,1868,cs),
(646,1868,l),
(215,140,l)
);
},
{
closed = 1;
nodes = (
(616,1881,o),
(632,1898,o),
(632,1919,cs),
(632,1940,o),
(616,1956,o),
(595,1956,cs),
(574,1956,o),
(557,1940,o),
(557,1919,cs),
(557,1898,o),
(574,1881,o),
(595,1881,cs)
);
}
);
vertWidth = 0;
width = 1444;
},
{
layerId = "6449507E-FEE0-4D4A-A81F-7CAB6A5803D5";
shapes = (
{
closed = 1;
nodes = (
(414,-20,ls),
(1043,-20,o),
(1462,369,o),
(1628,1161,cs),
(1739,1686,o),
(1488,2028,o),
(983,2028,cs),
(684,2028,ls),
(549,2028,o),
(516,1970,o),
(494,1883,cs),
(67,190,ls),
(41,87,o),
(95,-20,o),
(229,-20,cs)
);
},
{
closed = 1;
nodes = (
(122,20,o),
(84,95,o),
(105,180,cs),
(532,1873,ls),
(553,1952,o),
(573,1988,o),
(684,1988,cs),
(983,1988,ls),
(1465,1988,o),
(1696,1673,o),
(1588,1169,cs),
(1426,392,o),
(1025,20,o),
(414,20,cs),
(229,20,ls)
);
},
{
closed = 1;
nodes = (
(807,1689,l),
(965,1689,ls),
(1234,1689,o),
(1340,1493,o),
(1276,1193,cs),
(1154,635,o),
(886,320,o),
(442,320,cs),
(465,320,l)
);
},
{
closed = 1;
nodes = (
(442,280,ls),
(906,280,o),
(1190,615,o),
(1316,1185,cs),
(1383,1503,o),
(1260,1729,o),
(965,1729,cs),
(775,1729,l),
(413,280,l)
);
},
{
closed = 1;
nodes = (
(689,1803,o),
(716,1830,o),
(716,1863,cs),
(716,1896,o),
(689,1923,o),
(656,1923,cs),
(623,1923,o),
(596,1896,o),
(596,1863,cs),
(596,1830,o),
(623,1803,o),
(656,1803,cs)
);
}
);
vertWidth = 0;
width = 1535;
}
);
metricLeft = D.ss02;
metricWidth = D;
},
{
color = 5;
glyphname = E.ss04;
lastChange = "2023-10-13 22:27:06 +0000";
layers = (
{
layerId = m01;
shapes = (
{
closed = 1;
nodes = (
(1040,0,ls),
(1094,0,o),
(1131,36,o),
(1131,88,cs),
(1131,130,o),
(1094,158,o),
(1040,158,cs),
(241,158,l),
(450,998,l),
(992,998,ls),
(1047,998,o),
(1083,1031,o),
(1083,1078,cs),
(1083,1128,o),
(1047,1156,o),
(992,1156,cs),
(489,1156,l),
(662,1850,l),
(1435,1850,ls),
(1489,1850,o),
(1525,1880,o),
(1525,1930,cs),
(1525,1981,o),
(1489,2008,o),
(1435,2008,cs),
(610,2008,ls),
(539,2008,o),
(515,1978,o),
(502,1925,cs),
(47,100,ls),
(35,51,o),
(59,0,o),
(122,0,cs)
);
},
{
closed = 1;
nodes = (
(73,20,o),
(57,55,o),
(67,96,cs),
(522,1921,ls),
(533,1967,o),
(550,1988,o),
(610,1988,cs),
(1435,1988,ls),
(1481,1988,o),
(1505,1970,o),
(1505,1930,cs),
(1505,1891,o),
(1480,1870,o),
(1435,1870,cs),
(646,1870,l),
(463,1136,l),
(992,1136,ls),
(1039,1136,o),
(1063,1117,o),
(1063,1078,cs),
(1063,1041,o),
(1038,1018,o),
(992,1018,cs),
(434,1018,l),
(215,138,l),
(1040,138,ls),
(1086,138,o),
(1111,119,o),
(1111,88,cs),
(1111,45,o),
(1085,20,o),
(1040,20,cs),
(122,20,ls)
);
},
{
closed = 1;
nodes = (
(616,1881,o),
(632,1898,o),
(632,1919,cs),
(632,1940,o),
(616,1956,o),
(595,1956,cs),
(574,1956,o),
(557,1940,o),
(557,1919,cs),
(557,1898,o),
(574,1881,o),
(595,1881,cs)
);
}
);
vertWidth = 0;
width = 1185;
},
{
layerId = "6449507E-FEE0-4D4A-A81F-7CAB6A5803D5";
shapes = (
{
closed = 1;
nodes = (
(1071,-20,ls),
(1180,-20,o),
(1249,55,o),
(1249,153,cs),
(1249,238,o),
(1198,317,o),
(1071,317,cs),
(464,317,l),
(609,906,l),
(1029,906,ls),
(1145,906,o),
(1208,981,o),
(1208,1075,cs),
(1208,1170,o),
(1148,1243,o),
(1029,1243,cs),
(692,1243,l),
(801,1691,l),
(1433,1691,ls),
(1551,1691,o),
(1611,1766,o),
(1611,1860,cs),
(1611,1956,o),
(1554,2028,o),
(1433,2028,cs),
(681,2028,ls),
(555,2028,o),
(511,1970,o),
(488,1878,cs),
(68,192,ls),
(40,80,o),
(102,-20,o),
(230,-20,cs)
);
},
{
closed = 1;
nodes = (
(127,20,o),
(83,89,o),
(106,182,cs),
(526,1868,ls),
(546,1950,o),
(577,1988,o),
(681,1988,cs),
(1433,1988,ls),
(1532,1988,o),
(1571,1939,o),
(1571,1860,cs),
(1571,1783,o),
(1529,1731,o),
(1433,1731,cs),
(769,1731,l),
(640,1203,l),
(1029,1203,ls),
(1127,1203,o),
(1168,1153,o),
(1168,1075,cs),
(1168,998,o),
(1124,946,o),
(1029,946,cs),
(577,946,l),
(412,277,l),
(1071,277,ls),
(1174,277,o),
(1209,223,o),
(1209,153,cs),
(1209,73,o),
(1160,20,o),
(1071,20,cs),
(230,20,ls)
);
},
{
closed = 1;
nodes = (
(689,1803,o),
(716,1830,o),
(716,1863,cs),
(716,1896,o),
(689,1923,o),
(656,1923,cs),
(623,1923,o),
(596,1896,o),
(596,1863,cs),
(596,1830,o),
(623,1803,o),
(656,1803,cs)
);
}
);
vertWidth = 0;
width = 1341;
}
);
metricLeft = E.ss02;
metricWidth = E;
},
{
color = 5;
glyphname = F.ss04;
lastChange = "2023-10-13 22:27:06 +0000";
layers = (
{
layerId = m01;
shapes = (
{
closed = 1;
nodes = (
(196,0,o),
(216,55,o),
(224,88,cs),
(451,997,l),
(994,997,ls),
(1048,997,o),
(1085,1030,o),
(1085,1080,cs),
(1085,1127,o),
(1048,1157,o),
(994,1157,cs),
(490,1157,l),
(663,1850,l),
(1436,1850,ls),
(1490,1850,o),
(1526,1880,o),
(1526,1930,cs),
(1526,1981,o),
(1490,2008,o),
(1436,2008,cs),
(611,2008,ls),
(540,2008,o),
(515,1978,o),
(502,1925,cs),
(47,100,ls),
(35,51,o),
(59,0,o),
(122,0,cs)
);
},
{
closed = 1;
nodes = (
(73,20,o),
(57,55,o),
(67,96,cs),
(522,1921,ls),
(533,1967,o),
(551,1988,o),
(611,1988,cs),
(1436,1988,ls),
(1482,1988,o),
(1506,1970,o),
(1506,1930,cs),
(1506,1891,o),
(1481,1870,o),
(1436,1870,cs),
(647,1870,l),
(464,1137,l),
(994,1137,ls),
(1039,1137,o),
(1065,1116,o),
(1065,1080,cs),
(1065,1040,o),
(1039,1017,o),
(994,1017,cs),
(435,1017,l),
(204,94,ls),
(196,61,o),
(182,20,o),
(122,20,cs)
);
},
{
closed = 1;
nodes = (
(616,1881,o),
(632,1898,o),
(632,1919,cs),
(632,1940,o),
(616,1956,o),
(595,1956,cs),
(574,1956,o),
(557,1940,o),
(557,1919,cs),
(557,1898,o),
(574,1881,o),
(595,1881,cs)
);
}
);
vertWidth = 0;
width = 1121;
},
{
layerId = "6449507E-FEE0-4D4A-A81F-7CAB6A5803D5";
shapes = (
{
closed = 1;
nodes = (
(360,-20,o),
(399,70,o),
(414,128,cs),
(607,906,l),
(1033,906,ls),
(1149,906,o),
(1211,981,o),
(1211,1074,cs),
(1211,1170,o),
(1154,1242,o),
(1033,1242,cs),
(691,1242,l),
(802,1691,l),
(1438,1691,ls),
(1552,1691,o),
(1615,1766,o),
(1615,1860,cs),
(1615,1956,o),
(1555,2028,o),
(1438,2028,cs),
(682,2028,ls),
(559,2028,o),
(510,1970,o),
(488,1878,cs),
(72,192,l),
(40,79,o),
(102,-20,o),
(232,-20,cs)
);
},
{
closed = 1;
nodes = (
(126,20,o),
(85,89,o),
(110,182,cs),
(526,1868,ls),
(546,1950,o),
(579,1988,o),
(682,1988,cs),
(1438,1988,ls),
(1534,1988,o),
(1575,1939,o),
(1575,1860,cs),
(1575,1783,o),
(1531,1731,o),
(1438,1731,cs),
(770,1731,l),
(639,1202,l),
(1033,1202,ls),
(1132,1202,o),
(1171,1153,o),
(1171,1074,cs),
(1171,998,o),
(1128,946,o),
(1033,946,cs),
(575,946,l),
(376,138,ls),
(361,85,o),
(333,20,o),
(232,20,cs)
);
},
{
closed = 1;
nodes = (
(689,1803,o),
(716,1830,o),
(716,1863,cs),
(716,1896,o),
(689,1923,o),
(656,1923,cs),
(623,1923,o),
(596,1896,o),
(596,1863,cs),
(596,1830,o),
(623,1803,o),
(656,1803,cs)
);
}
);
vertWidth = 0;
width = 1282;
}
);
metricLeft = F.ss02;
metricWidth = F;
},
{
color = 5;
glyphname = G.ss04;
lastChange = "2023-10-13 22:27:06 +0000";
layers = (
{
layerId = m01;
shapes = (
{
closed = 1;
nodes = (
(765,-20,o),
(956,103,o),
(1124,359,c),
(1058,98,ls),
(1048,59,o),
(1059,0,o),
(1128,0,cs),
(1205,0,o),
(1227,49,o),
(1236,85,cs),
(1451,946,ls),
(1468,1014,o),
(1415,1048,o),
(1371,1048,cs),
(1312,1048,o),
(1297,1039,o),
(1188,766,cs),
(1037,383,o),
(803,138,o),
(565,138,cs),
(340,138,o),
(294,522,o),
(450,1142,cs),
(571,1618,o),
(798,1868,o),
(1069,1868,cs),
(1164,1868,o),
(1235,1807,o),
(1282,1682,cs),
(1300,1634,o),
(1346,1609,o),
(1400,1626,cs),
(1447,1641,o),
(1465,1679,o),
(1450,1722,cs),
(1379,1924,o),
(1256,2028,o),
(1080,2028,cs),
(689,2028,o),
(405,1676,o),
(264,1120,cs),
(91,424,o),
(197,-20,o),
(547,-20,cs)
);
},
{
closed = 1;
nodes = (
(214,0,o),
(112,427,o),
(284,1116,cs),
(423,1665,o),
(700,2008,o),
(1080,2008,cs),
(1248,2008,o),
(1362,1911,o),
(1432,1716,cs),
(1443,1682,o),
(1432,1657,o),
(1394,1646,cs),
(1349,1631,o),
(1314,1648,o),
(1300,1688,cs),
(1249,1819,o),
(1173,1888,o),
(1069,1888,cs),
(788,1888,o),
(553,1629,o),
(430,1146,cs),
(273,521,o),
(320,118,o),
(565,118,cs),
(812,118,o),
(1054,370,o),
(1206,758,cs),
(1312,1023,o),
(1320,1028,o),
(1371,1028,cs),
(1407,1028,o),
(1444,1004,o),
(1431,952,cs),
(1216,91,ls),
(1208,57,o),
(1191,20,o),
(1128,20,cs),
(1076,20,o),
(1069,59,o),
(1078,94,cs),
(1161,417,ls),
(1175,472,o),
(1169,470,o),
(1142,425,cs),
(968,134,o),
(774,0,o),
(547,0,cs)
);
},
{
closed = 1;
nodes = (
(1387,1669,o),
(1403,1686,o),
(1403,1707,cs),
(1403,1728,o),
(1387,1744,o),
(1366,1744,cs),
(1345,1744,o),
(1328,1728,o),
(1328,1707,cs),
(1328,1686,o),
(1345,1669,o),
(1366,1669,cs)
);
}
);
vertWidth = 0;
width = 1454;
},
{
layerId = "6449507E-FEE0-4D4A-A81F-7CAB6A5803D5";
shapes = (
{
closed = 1;
nodes = (
(765,-20,o),
(874,57,o),
(978,188,c),
(971,190,l),
(944,96,o),
(982,0,o),
(1121,0,cs),
(1257,0,o),
(1303,67,o),
(1318,128,cs),
(1518,929,ls),
(1553,1071,o),
(1445,1141,o),
(1354,1141,cs),
(1263,1141,o),
(1217,1112,o),
(1098,825,cs),
(975,520,o),
(806,317,o),
(615,317,cs),
(447,317,o),
(565,951,o),
(606,1103,cs),
(696,1476,o),
(862,1689,o),
(1076,1689,cs),
(1127,1689,o),
(1154,1650,o),
(1181,1582,cs),
(1217,1493,o),
(1298,1442,o),
(1407,1474,cs),
(1513,1506,o),
(1550,1591,o),
(1518,1682,cs),
(1435,1918,o),
(1287,2028,o),
(1089,2028,cs),
(695,2028,o),
(392,1703,o),
(248,1136,cs),
(33,278,o),
(247,-20,o),
(597,-20,cs)
);
},
{
closed = 1;
nodes = (
(271,20,o),
(78,290,o),
(286,1126,cs),
(428,1681,o),
(715,1988,o),
(1089,1988,cs),
(1271,1988,o),
(1402,1892,o),
(1480,1668,cs),
(1507,1595,o),
(1482,1536,o),
(1395,1512,cs),
(1307,1484,o),
(1248,1522,o),
(1219,1596,cs),
(1189,1670,o),
(1150,1729,o),
(1076,1729,cs),
(840,1729,o),
(664,1495,o),
(568,1113,cs),
(532,968,o),
(391,277,o),
(615,277,cs),
(826,277,o),
(1009,498,o),
(1136,809,cs),
(1248,1082,o),
(1277,1101,o),
(1354,1101,cs),
(1431,1101,o),
(1508,1051,o),
(1480,939,cs),
(1280,138,ls),
(1266,82,o),
(1230,40,o),
(1121,40,cs),
(1013,40,o),
(991,100,o),
(1009,180,cs),
(1025,253,ls),
(1044,342,o),
(1042,351,o),
(984,269,cs),
(856,89,o),
(752,20,o),
(597,20,cs)
);
},
{
closed = 1;
nodes = (
(1394,1563,o),
(1421,1590,o),
(1421,1623,cs),
(1421,1656,o),
(1394,1683,o),
(1361,1683,cs),
(1328,1683,o),
(1301,1656,o),
(1301,1623,cs),
(1301,1590,o),
(1328,1563,o),
(1361,1563,cs)
);
}
);
vertWidth = 0;
width = 1536;
}
);
metricLeft = G.ss02;
metricWidth = G;
},
{
color = 5;
glyphname = H.ss04;
lastChange = "2023-10-13 22:27:06 +0000";
layers = (
{
layerId = m01;
shapes = (
{
closed = 1;
nodes = (
(197,0,o),
(218,45,o),
(226,78,cs),
(455,998,l),
(1321,998,l),
(1097,98,ls),
(1087,59,o),
(1095,0,o),
(1172,0,cs),
(1238,0,o),
(1265,39,o),
(1273,70,cs),
(1731,1905,ls),
(1745,1962,o),
(1727,2008,o),
(1659,2008,cs),
(1599,2008,o),
(1565,1973,o),
(1556,1938,cs),
(1361,1156,l),
(495,1156,l),
(679,1895,ls),
(694,1954,o),
(668,2008,o),
(608,2008,cs),
(542,2008,o),
(515,1978,o),
(502,1925,cs),
(47,100,ls),
(35,51,o),
(59,0,o),
(122,0,cs)
);
},
{
closed = 1;
nodes = (
(73,20,o),
(57,55,o),
(67,96,cs),
(522,1921,ls),
(533,1967,o),
(553,1988,o),
(608,1988,cs),
(653,1988,o),
(672,1951,o),
(659,1899,cs),
(468,1136,l),
(1377,1136,l),
(1575,1934,ls),
(1582,1962,o),
(1608,1988,o),
(1659,1988,cs),
(1712,1988,o),
(1723,1958,o),
(1711,1909,cs),
(1254,74,ls),
(1248,48,o),
(1227,20,o),
(1172,20,cs),
(1114,20,o),
(1108,59,o),
(1117,94,cs),
(1347,1018,l),
(439,1018,l),
(206,82,ls),
(199,52,o),
(184,20,o),
(122,20,cs)
);
},
{
closed = 1;
nodes = (
(616,1881,o),
(632,1898,o),
(632,1919,cs),
(632,1940,o),
(616,1956,o),
(595,1956,cs),
(574,1956,o),
(557,1940,o),
(557,1919,cs),
(557,1898,o),
(574,1881,o),
(595,1881,cs)
);
}
);
vertWidth = 0;
width = 1494;
},
{
layerId = "6449507E-FEE0-4D4A-A81F-7CAB6A5803D5";
shapes = (
{
closed = 1;
nodes = (
(374,-20,o),
(407,71,o),
(418,129,c),
(611,906,l),
(1204,906,l),
(1029,190,ls),
(1009,101,o),
(1028,-20,o),
(1191,-20,cs),
(1319,-20,o),
(1363,60,o),
(1377,120,cs),
(1788,1816,ls),
(1817,1945,o),
(1758,2028,o),
(1628,2028,cs),
(1506,2028,o),
(1459,1950,o),
(1445,1891,cs),
(1286,1242,l),
(694,1242,l),
(834,1806,l),
(862,1956,o),
(786,2028,o),
(676,2028,cs),
(564,2028,o),
(516,1973,o),
(488,1878,c),
(72,192,l),
(40,79,o),
(102,-20,o),
(232,-20,cs)
);
},
{
closed = 1;
nodes = (
(126,20,o),
(85,89,o),
(110,182,cs),
(526,1868,l),
(551,1951,o),
(584,1988,o),
(676,1988,cs),
(767,1988,o),
(818,1939,o),
(794,1814,c),
(642,1202,l),
(1318,1202,l),
(1483,1881,ls),
(1496,1932,o),
(1530,1988,o),
(1628,1988,cs),
(1735,1988,o),
(1774,1934,o),
(1750,1826,cs),
(1339,130,ls),
(1326,77,o),
(1294,20,o),
(1191,20,cs),
(1063,20,o),
(1050,103,o),
(1067,180,cs),
(1254,946,l),
(579,946,l),
(378,137,l),
(369,84,o),
(346,20,o),
(232,20,cs)
);
},
{
closed = 1;
nodes = (
(689,1803,o),
(716,1830,o),
(716,1863,cs),
(716,1896,o),
(689,1923,o),
(656,1923,cs),
(623,1923,o),
(596,1896,o),
(596,1863,cs),
(596,1830,o),
(623,1803,o),
(656,1803,cs)
);
}
);
vertWidth = 0;
width = 1597;
}
);
metricLeft = H.ss02;
metricWidth = H;
},
{
color = 5;
glyphname = I.ss04;
lastChange = "2023-10-13 22:27:06 +0000";
layers = (
{
layerId = m01;
shapes = (
{
closed = 1;
nodes = (
(835,1850,l),
(413,158,l),
(88,158,ls),
(19,158,o),
(-2,123,o),
(-2,80,cs),
(-2,40,o),
(19,0,o),
(88,0,cs),
(875,0,ls),
(944,0,o),
(965,40,o),
(965,80,cs),
(965,123,o),
(944,158,o),
(875,158,cs),
(593,158,l),
(1015,1850,l),
(1335,1850,ls),
(1404,1850,o),
(1426,1887,o),
(1426,1928,cs),
(1426,1968,o),
(1404,2008,o),
(1335,2008,cs),
(550,2008,ls),
(480,2008,o),
(459,1968,o),
(459,1928,cs),
(459,1887,o),
(480,1850,o),
(550,1850,cs)
);
},
{
closed = 1;
nodes = (
(493,1870,o),
(479,1894,o),
(479,1928,cs),
(479,1962,o),
(493,1988,o),
(550,1988,cs),
(1335,1988,ls),
(1391,1988,o),
(1406,1961,o),
(1406,1928,cs),
(1406,1894,o),
(1391,1870,o),
(1335,1870,cs),
(999,1870,l),
(567,138,l),
(875,138,ls),
(931,138,o),
(945,116,o),
(945,80,cs),
(945,46,o),
(931,20,o),
(875,20,cs),
(88,20,ls),
(32,20,o),
(18,46,o),
(18,80,cs),
(18,116,o),
(32,138,o),
(88,138,cs),
(429,138,l),
(861,1870,l),
(550,1870,ls)
);
},
{
closed = 1;
nodes = (
(949,1829,o),
(965,1846,o),
(965,1867,cs),
(965,1888,o),
(949,1904,o),
(928,1904,cs),
(907,1904,o),
(890,1888,o),
(890,1867,cs),
(890,1846,o),
(907,1829,o),
(928,1829,cs)
);
}
);
vertWidth = 0;
width = 1142;
},
{
layerId = "6449507E-FEE0-4D4A-A81F-7CAB6A5803D5";
shapes = (
{
closed = 1;
nodes = (
(784,1691,l),
(439,317,l),
(223,317,ls),
(74,317,o),
(47,230,o),
(47,151,cs),
(47,72,o),
(80,-20,o),
(223,-20,cs),
(941,-20,ls),
(1087,-20,o),
(1120,72,o),
(1120,151,cs),
(1120,229,o),
(1090,317,o),
(941,317,cs),
(805,317,l),
(1145,1691,l),
(1362,1691,ls),
(1512,1691,o),
(1538,1782,o),
(1538,1857,cs),
(1538,1939,o),
(1508,2028,o),
(1362,2028,cs),
(644,2028,ls),
(498,2028,o),
(466,1939,o),
(466,1857,cs),
(466,1782,o),
(496,1691,o),
(644,1691,cs)
);
},
{
closed = 1;
nodes = (
(526,1731,o),
(506,1790,o),
(506,1857,cs),
(506,1929,o),
(528,1988,o),
(644,1988,cs),
(1362,1988,ls),
(1478,1988,o),
(1498,1930,o),
(1498,1857,cs),
(1498,1790,o),
(1480,1731,o),
(1362,1731,cs),
(1113,1731,l),
(753,277,l),
(941,277,ls),
(1060,277,o),
(1080,221,o),
(1080,151,cs),
(1080,82,o),
(1057,20,o),
(941,20,cs),
(223,20,ls),
(110,20,o),
(87,82,o),
(87,151,cs),
(87,221,o),
(105,277,o),
(223,277,cs),
(471,277,l),
(836,1731,l),
(644,1731,ls)
);
},
{
closed = 1;
nodes = (
(1001,1658,o),
(1028,1685,o),
(1028,1718,cs),
(1028,1751,o),
(1001,1778,o),
(968,1778,cs),
(935,1778,o),
(908,1751,o),
(908,1718,cs),
(908,1685,o),
(935,1658,o),
(968,1658,cs)
);
}
);
vertWidth = 0;
width = 1304;
}
);
metricLeft = I.ss02;
metricWidth = I;
},
{
color = 5;
glyphname = J.ss04;
lastChange = "2023-10-13 22:27:06 +0000";
layers = (
{
layerId = m01;
shapes = (
{
closed = 1;
nodes = (
(669,0,o),
(867,194,o),
(966,591,cs),
(1292,1897,ls),
(1305,1950,o),
(1298,2008,o),
(1225,2008,cs),
(1157,2008,o),
(1129,1978,o),
(1116,1925,cs),
(787,605,ls),
(711,301,o),
(575,163,o),
(407,163,cs),
(244,163,o),
(185,280,o),
(185,473,cs),
(185,562,o),
(165,613,o),
(105,613,cs),
(52,613,o),
(12,570,o),
(12,473,cs),
(9,182,o),
(149,0,o),
(399,0,cs)
);
},
{
closed = 1;
nodes = (
(160,20,o),
(29,190,o),
(32,473,cs),
(32,560,o),
(62,593,o),
(105,593,cs),
(150,593,o),
(165,557,o),
(165,473,cs),
(165,274,o),
(231,143,o),
(407,143,cs),
(585,143,o),
(729,290,o),
(807,601,cs),
(1136,1921,ls),
(1147,1967,o),
(1168,1988,o),
(1225,1988,cs),
(1279,1988,o),
(1284,1951,o),
(1272,1901,cs),
(946,595,ls),
(849,205,o),
(660,20,o),
(399,20,cs)
);
},
{
closed = 1;
nodes = (
(1230,1882,o),
(1246,1899,o),
(1246,1920,cs),
(1246,1941,o),
(1230,1957,o),
(1209,1957,cs),
(1188,1957,o),
(1171,1941,o),
(1171,1920,cs),
(1171,1899,o),
(1188,1882,o),
(1209,1882,cs)
);
}
);
vertWidth = 0;
width = 1055;
},
{
layerId = "6449507E-FEE0-4D4A-A81F-7CAB6A5803D5";
shapes = (
{
closed = 1;
nodes = (
(790,-20,o),
(1010,180,o),
(1116,604,cs),
(1418,1808,ls),
(1451,1941,o),
(1400,2028,o),
(1270,2028,cs),
(1148,2028,o),
(1094,1973,o),
(1070,1878,cs),
(768,663,ls),
(715,449,o),
(633,319,o),
(514,319,cs),
(420,319,o),
(407,403,o),
(407,510,cs),
(407,709,o),
(324,733,o),
(236,733,cs),
(161,733,o),
(55,701,o),
(55,510,cs),
(55,172,o),
(224,-20,o),
(507,-20,cs)
);
},
{
closed = 1;
nodes = (
(245,20,o),
(95,190,o),
(95,510,cs),
(95,669,o),
(169,693,o),
(236,693,cs),
(316,693,o),
(367,677,o),
(367,510,cs),
(367,399,o),
(385,279,o),
(514,279,cs),
(657,279,o),
(751,431,o),
(806,653,cs),
(1108,1868,ls),
(1129,1953,o),
(1168,1988,o),
(1268,1988,cs),
(1368,1988,o),
(1408,1931,o),
(1380,1818,cs),
(1078,614,ls),
(975,204,o),
(772,20,o),
(507,20,cs)
);
},
{
closed = 1;
nodes = (
(1284,1803,o),
(1311,1830,o),
(1311,1863,cs),
(1311,1896,o),
(1284,1923,o),
(1251,1923,cs),
(1218,1923,o),
(1191,1896,o),
(1191,1863,cs),
(1191,1830,o),
(1218,1803,o),
(1251,1803,cs)
);
}
);
vertWidth = 0;
width = 1216;
}
);
metricLeft = J.ss02;
metricWidth = J;
},
{
color = 5;
glyphname = K.ss04;
lastChange = "2023-10-13 22:27:06 +0000";
layers = (
{
layerId = m01;
shapes = (
{
closed = 1;
nodes = (
(1300,0,o),
(1363,69,o),
(1304,146,cs),
(600,1076,l),
(1603,1842,ls),
(1641,1871,o),
(1664,1903,o),
(1664,1941,cs),
(1664,1977,o),
(1639,2008,o),
(1592,2008,cs),
(1566,2008,o),
(1528,1995,o),
(1492,1967,cs),
(504,1209,l),
(675,1895,ls),
(690,1954,o),
(676,2008,o),
(608,2008,cs),
(540,2008,o),
(513,1970,o),
(502,1925,cs),
(51,116,ls),
(39,68,o),
(60,0,o),
(124,0,cs),
(193,0,o),
(217,55,o),
(227,96,cs),
(447,980,l),
(1142,64,ls),
(1167,31,o),
(1198,0,o),
(1244,0,cs)
);
},
{
closed = 1;
nodes = (
(1206,20,o),
(1182,44,o),
(1158,76,cs),
(457,1001,ls),
(439,1025,o),
(438,1025,o),
(431,998,cs),
(207,100,ls),
(197,62,o),
(179,20,o),
(124,20,cs),
(76,20,o),
(60,70,o),
(71,112,cs),
(522,1921,ls),
(532,1961,o),
(551,1988,o),
(608,1988,cs),
(660,1988,o),
(668,1952,o),
(655,1899,cs),
(481,1198,ls),
(472,1160,o),
(472,1159,o),
(510,1188,cs),
(1504,1951,ls),
(1538,1977,o),
(1570,1988,o),
(1590,1988,cs),
(1628,1988,o),
(1644,1969,o),
(1644,1941,cs),
(1644,1910,o),
(1626,1885,o),
(1591,1858,cs),
(572,1080,l),
(1288,134,ls),
(1336,71,o),
(1289,20,o),
(1244,20,cs)
);
},
{
closed = 1;
nodes = (
(616,1881,o),
(632,1898,o),
(632,1919,cs),
(632,1940,o),
(616,1956,o),
(595,1956,cs),
(574,1956,o),
(557,1940,o),
(557,1919,cs),
(557,1898,o),
(574,1881,o),
(595,1881,cs)
);
}
);
vertWidth = 0;
width = 1363;
},
{
layerId = "6449507E-FEE0-4D4A-A81F-7CAB6A5803D5";
shapes = (
{
closed = 1;
nodes = (
(1378,-20,o),
(1510,107,o),
(1391,269,cs),
(799,1078,l),
(1655,1706,ls),
(1709,1746,o),
(1746,1794,o),
(1746,1873,cs),
(1746,1949,o),
(1690,2028,o),
(1589,2028,cs),
(1549,2028,o),
(1498,2018,o),
(1436,1972,cs),
(749,1463,l),
(835,1805,ls),
(871,1950,o),
(807,2028,o),
(683,2028,cs),
(562,2028,o),
(514,1965,o),
(493,1880,cs),
(71,205,ls),
(42,91,o),
(111,-20,o),
(228,-20,cs),
(348,-20,o),
(395,67,o),
(414,143,cs),
(576,779,l),
(1094,74,ls),
(1136,17,o),
(1191,-20,o),
(1261,-20,cs)
);
},
{
closed = 1;
nodes = (
(1204,20,o),
(1163,48,o),
(1126,98,cs),
(599,815,ls),
(559,870,o),
(558,870,o),
(543,812,cs),
(376,153,ls),
(358,83,o),
(323,20,o),
(228,20,cs),
(135,20,o),
(85,101,o),
(109,195,cs),
(531,1870,ls),
(550,1945,o),
(584,1988,o),
(683,1988,cs),
(785,1988,o),
(828,1936,o),
(797,1815,cs),
(703,1444,ls),
(684,1369,o),
(686,1367,o),
(760,1422,cs),
(1460,1940,ls),
(1514,1980,o),
(1554,1988,o),
(1589,1988,cs),
(1667,1988,o),
(1706,1934,o),
(1706,1873,cs),
(1706,1809,o),
(1680,1774,o),
(1631,1738,cs),
(743,1086,l),
(1359,245,ls),
(1457,112,o),
(1354,20,o),
(1261,20,cs)
);
},
{
closed = 1;
nodes = (
(689,1803,o),
(716,1830,o),
(716,1863,cs),
(716,1896,o),
(689,1923,o),
(656,1923,cs),
(623,1923,o),
(596,1896,o),
(596,1863,cs),
(596,1830,o),
(623,1803,o),
(656,1803,cs)
);
}
);
vertWidth = 0;
width = 1471;
}
);
metricLeft = K.ss02;
metricWidth = K;
},
{
color = 5;
glyphname = L.ss04;
lastChange = "2023-10-13 22:27:06 +0000";
layers = (
{
layerId = m01;
shapes = (
{
closed = 1;
nodes = (
(949,0,ls),
(1022,0,o),
(1068,38,o),
(1068,96,cs),
(1068,137,o),
(1031,158,o),
(978,158,cs),
(241,158,l),
(673,1889,ls),
(687,1946,o),
(689,2008,o),
(611,2008,cs),
(540,2008,o),
(515,1978,o),
(502,1925,cs),
(47,100,ls),
(35,51,o),
(59,0,o),
(122,0,cs)
);
},
{
closed = 1;
nodes = (
(73,20,o),
(57,55,o),
(67,96,cs),
(522,1921,ls),
(533,1967,o),
(551,1988,o),
(611,1988,cs),
(668,1988,o),
(666,1947,o),
(653,1893,cs),
(215,138,l),
(978,138,ls),
(1024,138,o),
(1048,124,o),
(1048,96,cs),
(1048,49,o),
(1013,20,o),
(949,20,cs),
(122,20,ls)
);
},
{
closed = 1;
nodes = (
(616,1881,o),
(632,1898,o),
(632,1919,cs),
(632,1940,o),
(616,1956,o),
(595,1956,cs),
(574,1956,o),
(557,1940,o),
(557,1919,cs),
(557,1898,o),
(574,1881,o),
(595,1881,cs)
);
}
);
vertWidth = 0;
width = 1120;
},
{
layerId = "6449507E-FEE0-4D4A-A81F-7CAB6A5803D5";
shapes = (
{
closed = 1;
nodes = (
(982,-20,ls),
(1124,-20,o),
(1192,69,o),
(1192,164,cs),
(1192,238,o),
(1153,317,o),
(1011,317,cs),
(461,317,l),
(832,1800,ls),
(870,1951,o),
(815,2028,o),
(681,2028,cs),
(558,2028,o),
(511,1970,o),
(488,1878,cs),
(68,192,ls),
(40,79,o),
(96,-20,o),
(228,-20,cs)
);
},
{
closed = 1;
nodes = (
(123,20,o),
(83,88,o),
(106,182,cs),
(526,1868,ls),
(546,1950,o),
(578,1988,o),
(681,1988,cs),
(792,1988,o),
(826,1938,o),
(794,1810,cs),
(409,277,l),
(1011,277,ls),
(1126,277,o),
(1152,226,o),
(1152,164,cs),
(1152,85,o),
(1102,20,o),
(982,20,cs),
(228,20,ls)
);
},
{
closed = 1;
nodes = (
(689,1803,o),
(716,1830,o),
(716,1863,cs),
(716,1896,o),
(689,1923,o),
(656,1923,cs),
(623,1923,o),
(596,1896,o),
(596,1863,cs),
(596,1830,o),
(623,1803,o),
(656,1803,cs)
);
}
);
vertWidth = 0;
width = 1281;
}
);
metricLeft = L.ss02;
metricWidth = L;
},
{
color = 5;
glyphname = M.ss04;
lastChange = "2023-10-13 22:27:06 +0000";
layers = (
{
layerId = m01;
shapes = (
{
closed = 1;
nodes = (
(187,0,o),
(215,41,o),
(225,83,cs),
(607,1622,l),
(764,64,ls),
(768,21,o),
(799,0,o),
(845,0,cs),
(884,0,o),
(923,20,o),
(947,60,cs),
(1884,1623,l),
(1507,107,ls),
(1497,67,o),
(1511,0,o),
(1582,0,cs),
(1654,0,o),
(1671,40,o),
(1679,73,cs),
(2127,1869,ls),
(2152,1968,o),
(2103,2008,o),
(2011,2008,cs),
(1948,2008,o),
(1913,1982,o),
(1845,1868,cs),
(915,317,l),
(757,1875,ls),
(747,1978,o),
(708,2008,o),
(634,2008,cs),
(559,2008,o),
(518,1992,o),
(495,1898,cs),
(49,106,ls),
(37,57,o),
(64,0,o),
(124,0,cs)
);
},
{
closed = 1;
nodes = (
(79,20,o),
(59,61,o),
(69,102,cs),
(515,1894,ls),
(537,1981,o),
(568,1988,o),
(634,1988,cs),
(697,1988,o),
(727,1969,o),
(737,1873,cs),
(897,304,ls),
(901,260,o),
(905,260,o),
(930,302,cs),
(1870,1869,ls),
(1936,1979,o),
(1957,1988,o),
(2011,1988,cs),
(2091,1988,o),
(2129,1962,o),
(2107,1873,cs),
(1659,77,ls),
(1652,47,o),
(1640,20,o),
(1582,20,cs),
(1527,20,o),
(1519,68,o),
(1527,101,cs),
(1910,1643,ls),
(1930,1724,o),
(1922,1727,o),
(1877,1652,cs),
(929,70,ls),
(908,36,o),
(879,20,o),
(845,20,cs),
(806,20,o),
(787,34,o),
(784,66,cs),
(625,1651,ls),
(617,1730,o),
(613,1730,o),
(593,1649,cs),
(205,87,ls),
(196,50,o),
(176,20,o),
(124,20,cs)
);
},
{
closed = 1;
nodes = (
(154,47,o),
(170,64,o),
(170,85,cs),
(170,106,o),
(154,122,o),
(133,122,cs),
(112,122,o),
(95,106,o),
(95,85,cs),
(95,64,o),
(112,47,o),
(133,47,cs)
);
}
);
vertWidth = 0;
width = 1903;
},
{
layerId = "6449507E-FEE0-4D4A-A81F-7CAB6A5803D5";
shapes = (
{
closed = 1;
nodes = (
(347,-20,o),
(399,55,o),
(417,128,cs),
(637,1018,l),
(721,125,ls),
(729,38,o),
(785,-20,o),
(894,-20,cs),
(960,-20,o),
(1026,16,o),
(1067,84,cs),
(1597,962,l),
(1406,197,ls),
(1385,113,o),
(1424,-20,o),
(1568,-20,cs),
(1699,-20,o),
(1732,58,o),
(1746,115,cs),
(2166,1802,ls),
(2209,1974,o),
(2111,2028,o),
(1963,2028,cs),
(1881,2028,o),
(1824,2013,o),
(1732,1859,cs),
(1020,665,l),
(913,1826,ls),
(897,2002,o),
(810,2028,o),
(702,2028,cs),
(599,2028,o),
(518,2002,o),
(483,1858,cs),
(74,196,ls),
(47,88,o),
(116,-20,o),
(231,-20,cs)
);
},
{
closed = 1;
nodes = (
(141,20,o),
(90,99,o),
(112,188,cs),
(521,1850,ls),
(552,1976,o),
(615,1988,o),
(702,1988,cs),
(795,1988,o),
(859,1977,o),
(873,1822,cs),
(983,637,ls),
(992,545,o),
(995,544,o),
(1049,635,cs),
(1766,1839,ls),
(1851,1981,o),
(1893,1988,o),
(1963,1988,cs),
(2090,1988,o),
(2165,1959,o),
(2128,1812,cs),
(1708,125,ls),
(1695,71,o),
(1671,20,o),
(1568,20,cs),
(1456,20,o),
(1426,117,o),
(1444,187,cs),
(1662,1056,ls),
(1692,1175,o),
(1681,1179,o),
(1616,1071,cs),
(1033,104,ls),
(999,47,o),
(949,20,o),
(894,20,cs),
(805,20,o),
(768,58,o),
(761,129,cs),
(671,1085,ls),
(658,1223,o),
(647,1224,o),
(613,1086,cs),
(379,138,ls),
(363,73,o),
(324,20,o),
(231,20,cs)
);
},
{
closed = 1;
nodes = (
(276,84,o),
(303,111,o),
(303,144,cs),
(303,177,o),
(276,204,o),
(243,204,cs),
(210,204,o),
(183,177,o),
(183,144,cs),
(183,111,o),
(210,84,o),
(243,84,cs)
);
}
);
vertWidth = 0;
width = 1967;
}
);
metricLeft = M.ss02;
metricWidth = M;
},
{
color = 5;
glyphname = N.ss04;
lastChange = "2023-10-13 22:27:06 +0000";
layers = (
{
layerId = m01;
shapes = (
{
closed = 1;
nodes = (
(194,0,o),
(218,50,o),
(228,89,cs),
(617,1666,l),
(1090,62,ls),
(1100,29,o),
(1134,0,o),
(1184,0,cs),
(1239,0,o),
(1269,44,o),
(1277,78,cs),
(1731,1900,ls),
(1746,1961,o),
(1732,2008,o),
(1661,2008,cs),
(1602,2008,o),
(1570,1973,o),
(1558,1927,cs),
(1169,381,l),
(711,1939,ls),
(702,1971,o),
(668,2008,o),
(608,2008,cs),
(537,2008,o),
(515,1977,o),
(502,1925,cs),
(47,100,ls),
(35,52,o),
(57,0,o),
(122,0,cs)
);
},
{
closed = 1;
nodes = (
(72,20,o),
(57,55,o),
(67,96,cs),
(522,1921,ls),
(534,1968,o),
(548,1988,o),
(608,1988,cs),
(658,1988,o),
(685,1960,o),
(693,1933,cs),
(1154,361,ls),
(1170,308,o),
(1172,308,o),
(1186,362,cs),
(1578,1923,ls),
(1588,1961,o),
(1611,1988,o),
(1661,1988,cs),
(1716,1988,o),
(1725,1959,o),
(1711,1904,cs),
(1257,82,ls),
(1250,53,o),
(1228,20,o),
(1184,20,cs),
(1143,20,o),
(1118,42,o),
(1110,68,cs),
(630,1693,ls),
(617,1737,o),
(613,1737,o),
(603,1695,cs),
(208,93,ls),
(199,57,o),
(181,20,o),
(122,20,cs)
);
},
{
closed = 1;
nodes = (
(154,47,o),
(170,64,o),
(170,85,cs),
(170,106,o),
(154,122,o),
(133,122,cs),
(112,122,o),
(95,106,o),
(95,85,cs),
(95,64,o),
(112,47,o),
(133,47,cs)
);
}
);
vertWidth = 0;
width = 1495;
},
{
layerId = "6449507E-FEE0-4D4A-A81F-7CAB6A5803D5";
shapes = (
{
closed = 1;
nodes = (
(352,-20,o),
(396,61,o),
(414,134,cs),
(702,1279,l),
(1024,99,ls),
(1043,31,o),
(1107,-20,o),
(1196,-20,cs),
(1306,-20,o),
(1361,65,o),
(1377,128,cs),
(1796,1808,ls),
(1833,1956,o),
(1776,2028,o),
(1644,2028,cs),
(1538,2028,o),
(1475,1969,o),
(1453,1883,cs),
(1171,761,l),
(864,1901,ls),
(849,1955,o),
(786,2028,o),
(681,2028,cs),
(550,2028,o),
(511,1969,o),
(488,1878,cs),
(68,192,ls),
(40,79,o),
(91,-20,o),
(227,-20,cs)
);
},
{
closed = 1;
nodes = (
(117,20,o),
(82,87,o),
(106,182,cs),
(526,1868,ls),
(547,1951,o),
(572,1988,o),
(681,1988,cs),
(766,1988,o),
(815,1933,o),
(826,1891,cs),
(1141,718,ls),
(1171,606,o),
(1175,606,o),
(1202,715,cs),
(1491,1873,ls),
(1509,1945,o),
(1556,1988,o),
(1644,1988,cs),
(1754,1988,o),
(1789,1942,o),
(1758,1818,cs),
(1339,138,ls),
(1325,83,o),
(1282,20,o),
(1196,20,cs),
(1122,20,o),
(1076,57,o),
(1062,109,cs),
(727,1338,ls),
(703,1427,o),
(698,1427,o),
(675,1337,cs),
(374,142,ls),
(358,79,o),
(328,20,o),
(227,20,cs)
);
},
{
closed = 1;
nodes = (
(269,84,o),
(296,111,o),
(296,144,cs),
(296,177,o),
(269,204,o),
(236,204,cs),
(203,204,o),
(176,177,o),
(176,144,cs),
(176,111,o),
(203,84,o),
(236,84,cs)
);
}
);
vertWidth = 0;
width = 1595;
}
);
metricLeft = N.ss02;
metricWidth = N;
},
{
color = 5;
glyphname = O.ss04;
lastChange = "2023-10-13 22:27:06 +0000";
layers = (
{
layerId = m01;
shapes = (
{
closed = 1;
nodes = (
(1025,-20,o),
(1342,411,o),
(1489,1088,cs),
(1610,1653,o),
(1456,2028,o),
(1078,2028,cs),
(630,2028,o),
(302,1560,o),
(213,823,cs),
(155,311,o),
(315,-20,o),
(642,-20,cs)
);
},
{
closed = 1;
nodes = (
(328,0,o),
(176,317,o),
(233,821,cs),
(321,1551,o),
(641,2008,o),
(1078,2008,cs),
(1441,2008,o),
(1589,1648,o),
(1469,1092,cs),
(1324,420,o),
(1014,0,o),
(642,0,cs)
);
},
{
closed = 1;
nodes = (
(472,1474,o),
(717,1868,o),
(1060,1868,cs),
(1311,1868,o),
(1409,1565,o),
(1305,1084,cs),
(1179,503,o),
(930,143,o),
(644,143,cs),
(438,143,o),
(345,412,o),
(397,850,cs)
);
},
{
closed = 1;
nodes = (
(324,407,o),
(423,123,o),
(644,123,cs),
(941,123,o),
(1197,494,o),
(1325,1080,cs),
(1430,1570,o),
(1326,1888,o),
(1060,1888,cs),
(705,1888,o),
(452,1482,o),
(377,852,cs)
);
},
{
closed = 1;
nodes = (
(1361,1777,o),
(1377,1794,o),
(1377,1815,cs),
(1377,1836,o),
(1361,1852,o),
(1340,1852,cs),
(1319,1852,o),
(1302,1836,o),
(1302,1815,cs),
(1302,1794,o),
(1319,1777,o),
(1340,1777,cs)
);
}
);
vertWidth = 0;
width = 1426;
},
{
layerId = "6449507E-FEE0-4D4A-A81F-7CAB6A5803D5";
shapes = (
{
closed = 1;
nodes = (
(1063,-20,o),
(1399,370,o),
(1549,1062,cs),
(1690,1704,o),
(1468,2028,o),
(1082,2028,cs),
(638,2028,o),
(285,1603,o),
(193,850,cs),
(127,271,o),
(344,-20,o),
(681,-20,cs)
);
},
{
closed = 1;
nodes = (
(366,20,o),
(169,287,o),
(233,846,cs),
(323,1584,o),
(659,1988,o),
(1082,1988,cs),
(1445,1988,o),
(1646,1689,o),
(1509,1070,cs),
(1363,391,o),
(1042,20,o),
(681,20,cs)
);
},
{
closed = 1;
nodes = (
(609,1341,o),
(784,1689,o),
(1066,1689,cs),
(1252,1689,o),
(1257,1381,o),
(1195,1099,cs),
(1094,642,o),
(916,319,o),
(684,319,cs),
(537,319,o),
(522,595,o),
(553,851,cs)
);
},
{
closed = 1;
nodes = (
(482,594,o),
(497,279,o),
(684,279,cs),
(942,279,o),
(1131,626,o),
(1235,1091,cs),
(1297,1379,o),
(1294,1729,o),
(1066,1729,cs),
(757,1729,o),
(571,1355,o),
(513,855,cs)
);
},
{
closed = 1;
nodes = (
(1341,1700,o),
(1368,1727,o),
(1368,1760,cs),
(1368,1793,o),
(1341,1820,o),
(1308,1820,cs),
(1275,1820,o),
(1248,1793,o),
(1248,1760,cs),
(1248,1727,o),
(1275,1700,o),
(1308,1700,cs)
);
}
);
vertWidth = 0;
width = 1484;
}
);
metricLeft = O.ss02;
metricWidth = O;
},
{
color = 5;
glyphname = P.ss04;
lastChange = "2023-10-13 22:27:06 +0000";
layers = (
{
layerId = m01;
shapes = (
{
closed = 1;
nodes = (
(197,0,o),
(216,58,o),
(224,89,cs),
(448,991,l),
(1056,997,o),
(1512,1070,o),
(1609,1455,cs),
(1705,1832,o),
(1268,2008,o),
(608,2008,cs),
(533,2008,o),
(515,1977,o),
(502,1925,cs),
(50,111,ls),
(37,60,o),
(62,0,o),
(125,0,cs)
);
},
{
closed = 1;
nodes = (
(77,20,o),
(59,63,o),
(70,107,cs),
(522,1921,ls),
(534,1968,o),
(546,1988,o),
(608,1988,cs),
(1261,1988,o),
(1681,1820,o),
(1589,1459,cs),
(1496,1085,o),
(1046,1015,o),
(432,1011,c),
(203,93,ls),
(196,65,o),
(183,20,o),
(125,20,cs)
);
},
{
closed = 1;
nodes = (
(658,1834,l),
(1244,1822,o),
(1494,1699,o),
(1438,1485,cs),
(1376,1238,o),
(983,1171,o),
(491,1164,c)
);
},
{
closed = 1;
nodes = (
(972,1149,o),
(1391,1215,o),
(1458,1481,cs),
(1518,1712,o),
(1247,1844,o),
(642,1854,c),
(465,1144,l)
);
},
{
closed = 1;
nodes = (
(616,1881,o),
(632,1898,o),
(632,1919,cs),
(632,1940,o),
(616,1956,o),
(595,1956,cs),
(574,1956,o),
(557,1940,o),
(557,1919,cs),
(557,1898,o),
(574,1881,o),
(595,1881,cs)
);
}
);
vertWidth = 0;
width = 1447;
},
{
layerId = "6449507E-FEE0-4D4A-A81F-7CAB6A5803D5";
shapes = (
{
closed = 1;
nodes = (
(357,-20,o),
(406,80,o),
(417,133,c),
(606,901,l),
(1186,915,o),
(1592,1020,o),
(1686,1392,cs),
(1781,1780,o),
(1474,2028,o),
(676,2028,cs),
(546,2028,o),
(510,1971,o),
(488,1878,cs),
(72,200,l),
(39,89,o),
(109,-20,o),
(229,-20,cs)
);
},
{
closed = 1;
nodes = (
(133,20,o),
(84,99,o),
(110,190,c),
(526,1868,ls),
(547,1953,o),
(570,1988,o),
(676,1988,cs),
(1455,1988,o),
(1736,1761,o),
(1648,1402,cs),
(1558,1048,o),
(1164,951,o),
(574,941,c),
(379,143,ls),
(368,95,o),
(331,20,o),
(229,20,cs)
);
},
{
closed = 1;
nodes = (
(795,1671,l),
(1089,1656,o),
(1377,1603,o),
(1344,1469,cs),
(1297,1288,o),
(1007,1256,o),
(692,1250,c)
);
},
{
closed = 1;
nodes = (
(975,1213,o),
(1326,1238,o),
(1382,1459,cs),
(1428,1644,o),
(1072,1700,o),
(763,1713,c),
(640,1210,l)
);
},
{
closed = 1;
nodes = (
(689,1803,o),
(716,1830,o),
(716,1863,cs),
(716,1896,o),
(689,1923,o),
(656,1923,cs),
(623,1923,o),
(596,1896,o),
(596,1863,cs),
(596,1830,o),
(623,1803,o),
(656,1803,cs)
);
}
);
vertWidth = 0;
width = 1524;
}
);
metricLeft = P.ss02;
metricWidth = P;
},
{
color = 5;
glyphname = Q.ss04;
lastChange = "2023-10-13 22:27:06 +0000";
layers = (
{
layerId = m01;
shapes = (
{
closed = 1;
nodes = (
(767,-20,o),
(885,25,o),
(992,118,c),
(1115,-73,ls),
(1146,-121,o),
(1190,-136,o),
(1232,-113,cs),
(1281,-87,o),
(1291,-36,o),
(1258,15,cs),
(1116,238,l),
(1279,428,o),
(1409,721,o),
(1489,1088,cs),
(1610,1653,o),
(1456,2028,o),
(1078,2028,cs),
(630,2028,o),
(302,1560,o),
(213,823,cs),
(155,311,o),
(315,-20,o),
(642,-20,cs)
);
},
{
closed = 1;
nodes = (
(328,0,o),
(176,317,o),
(233,821,cs),
(321,1551,o),
(641,2008,o),
(1078,2008,cs),
(1441,2008,o),
(1589,1648,o),
(1469,1092,cs),
(1389,719,o),
(1257,428,o),
(1092,240,c),
(1242,5,ls),
(1270,-38,o),
(1262,-74,o),
(1222,-95,cs),
(1189,-114,o),
(1157,-104,o),
(1131,-63,cs),
(996,148,l),
(887,47,o),
(769,0,o),
(642,0,cs)
);
},
{
closed = 1;
nodes = (
(472,1474,o),
(717,1868,o),
(1060,1868,cs),
(1311,1868,o),
(1409,1565,o),
(1305,1084,cs),
(1240,785,o),
(1142,546,o),
(1023,386,c),
(938,517,ls),
(901,574,o),
(855,589,o),
(807,557,cs),
(766,528,o),
(764,474,o),
(797,422,cs),
(903,256,l),
(822,179,o),
(735,143,o),
(644,143,cs),
(438,143,o),
(345,412,o),
(397,850,cs)
);
},
{
closed = 1;
nodes = (
(324,407,o),
(423,123,o),
(644,123,cs),
(745,123,o),
(842,165,o),
(929,252,c),
(813,432,ls),
(783,478,o),
(787,518,o),
(819,541,cs),
(857,566,o),
(891,556,o),
(922,507,cs),
(1021,351,l),
(1150,513,o),
(1256,765,o),
(1325,1080,cs),
(1430,1570,o),
(1326,1888,o),
(1060,1888,cs),
(705,1888,o),
(452,1482,o),
(377,852,cs)
);
},
{
closed = 1;
nodes = (
(1361,1777,o),
(1377,1794,o),
(1377,1815,cs),
(1377,1836,o),
(1361,1852,o),
(1340,1852,cs),
(1319,1852,o),
(1302,1836,o),
(1302,1815,cs),
(1302,1794,o),
(1319,1777,o),
(1340,1777,cs)
);
}
);
vertWidth = 0;
width = 1498;
},
{
layerId = "6449507E-FEE0-4D4A-A81F-7CAB6A5803D5";
shapes = (
{
closed = 1;
nodes = (
(772,-20,o),
(862,3,o),
(945,46,c),
(992,-27,ls),
(1058,-132,o),
(1161,-155,o),
(1238,-113,cs),
(1320,-67,o),
(1349,53,o),
(1294,145,cs),
(1213,275,l),
(1357,458,o),
(1476,724,o),
(1549,1062,cs),
(1690,1704,o),
(1468,2028,o),
(1082,2028,cs),
(638,2028,o),
(285,1603,o),
(193,850,cs),
(127,271,o),
(344,-20,o),
(681,-20,cs)
);
},
{
closed = 1;
nodes = (
(366,20,o),
(169,287,o),
(233,846,cs),
(323,1584,o),
(659,1988,o),
(1082,1988,cs),
(1445,1988,o),
(1646,1689,o),
(1509,1070,cs),
(1434,722,o),
(1313,457,o),
(1163,278,c),
(1260,125,ls),
(1305,49,o),
(1283,-42,o),
(1218,-79,cs),
(1157,-112,o),
(1082,-94,o),
(1026,-5,cs),
(959,99,l),
(869,47,o),
(778,20,o),
(681,20,cs)
);
},
{
closed = 1;
nodes = (
(609,1341,o),
(784,1689,o),
(1066,1689,cs),
(1252,1689,o),
(1257,1381,o),
(1195,1099,cs),
(1151,896,o),
(1090,720,o),
(1015,585,c),
(1003,604,ls),
(943,698,o),
(844,730,o),
(746,665,cs),
(654,606,o),
(649,507,o),
(709,413,cs),
(762,332,l),
(736,323,o),
(711,319,o),
(684,319,cs),
(537,319,o),
(522,595,o),
(553,851,cs)
);
},
{
closed = 1;
nodes = (
(482,594,o),
(497,279,o),
(684,279,cs),
(731,279,o),
(779,292,o),
(821,314,c),
(743,435,ls),
(691,515,o),
(695,585,o),
(768,631,cs),
(848,685,o),
(918,662,o),
(969,582,cs),
(1016,508,l),
(1108,652,o),
(1183,856,o),
(1235,1091,cs),
(1297,1379,o),
(1294,1729,o),
(1066,1729,cs),
(757,1729,o),
(571,1355,o),
(513,855,cs)
);
},
{
closed = 1;
nodes = (
(1341,1700,o),
(1368,1727,o),
(1368,1760,cs),
(1368,1793,o),
(1341,1820,o),
(1308,1820,cs),
(1275,1820,o),
(1248,1793,o),
(1248,1760,cs),
(1248,1727,o),
(1275,1700,o),
(1308,1700,cs)
);
}
);
vertWidth = 0;
width = 1507;
}
);
metricLeft = Q.ss02;
metricWidth = Q;
},
{
color = 5;
glyphname = R.ss04;
lastChange = "2023-10-13 22:27:06 +0000";
layers = (
{
layerId = m01;
shapes = (
{
closed = 1;
nodes = (
(1264,0,o),
(1297,92,o),
(1255,146,cs),
(602,999,l),
(1109,1013,o),
(1531,1090,o),
(1629,1483,cs),
(1724,1860,o),
(1291,2018,o),
(610,2008,cs),
(534,2007,o),
(515,1976,o),
(503,1926,cs),
(51,116,ls),
(37,59,o),
(57,0,o),
(119,0,cs),
(194,0,o),
(214,50,o),
(225,94,cs),
(434,932,l),
(1102,64,ls),
(1135,21,o),
(1158,0,o),
(1185,0,cs)
);
},
{
closed = 1;
nodes = (
(1166,20,o),
(1149,36,o),
(1118,76,cs),
(449,946,ls),
(427,974,o),
(423,973,o),
(416,944,cs),
(205,98,ls),
(195,57,o),
(180,20,o),
(119,20,cs),
(72,20,o),
(60,62,o),
(72,112,cs),
(523,1920,ls),
(535,1967,o),
(547,1987,o),
(610,1988,cs),
(1283,1998,o),
(1700,1848,o),
(1609,1487,cs),
(1515,1107,o),
(1104,1035,o),
(598,1020,cs),
(564,1019,o),
(563,1018,o),
(584,990,cs),
(1239,134,ls),
(1273,89,o),
(1248,20,o),
(1185,20,cs)
);
},
{
closed = 1;
nodes = (
(662,1848,l),
(1202,1842,o),
(1516,1755,o),
(1458,1518,cs),
(1381,1212,o),
(967,1163,o),
(490,1158,c)
);
},
{
closed = 1;
nodes = (
(953,1141,o),
(1395,1187,o),
(1478,1514,cs),
(1540,1771,o),
(1203,1864,o),
(646,1868,c),
(464,1138,l)
);
},
{
closed = 1;
nodes = (
(617,1881,o),
(633,1898,o),
(633,1919,cs),
(633,1940,o),
(617,1956,o),
(596,1956,cs),
(575,1956,o),
(558,1940,o),
(558,1919,cs),
(558,1898,o),
(575,1881,o),
(596,1881,cs)
);
}
);
vertWidth = 0;
width = 1432;
},
{
layerId = "6449507E-FEE0-4D4A-A81F-7CAB6A5803D5";
shapes = (
{
closed = 1;
nodes = (
(1359,-20,o),
(1435,152,o),
(1350,264,cs),
(853,918,l),
(1286,954,o),
(1615,1072,o),
(1699,1420,cs),
(1798,1802,o),
(1521,2028,o),
(684,2028,cs),
(555,2028,o),
(513,1977,o),
(488,1878,cs),
(71,205,ls),
(38,71,o),
(111,-20,o),
(225,-20,cs),
(353,-20,o),
(392,61,o),
(413,141,cs),
(562,721,l),
(1056,74,ls),
(1117,-6,o),
(1163,-20,o),
(1210,-20,cs)
);
},
{
closed = 1;
nodes = (
(1171,20,o),
(1140,29,o),
(1088,98,cs),
(586,756,ls),
(547,807,o),
(543,807,o),
(526,739,cs),
(375,151,ls),
(356,76,o),
(327,20,o),
(225,20,cs),
(133,20,o),
(81,83,o),
(109,195,cs),
(526,1868,ls),
(548,1957,o),
(577,1988,o),
(684,1988,cs),
(1503,1988,o),
(1751,1784,o),
(1661,1430,cs),
(1581,1103,o),
(1274,992,o),
(845,957,cs),
(783,952,o),
(779,949,o),
(824,890,cs),
(1318,240,ls),
(1387,150,o),
(1329,20,o),
(1210,20,cs)
);
},
{
closed = 1;
nodes = (
(804,1688,l),
(1242,1679,o),
(1391,1622,o),
(1360,1501,cs),
(1304,1281,o),
(1016,1250,o),
(694,1246,c)
);
},
{
closed = 1;
nodes = (
(987,1208,o),
(1332,1230,o),
(1398,1491,cs),
(1440,1653,o),
(1247,1721,o),
(772,1728,c),
(642,1206,l)
);
},
{
closed = 1;
nodes = (
(689,1803,o),
(716,1830,o),
(716,1863,cs),
(716,1896,o),
(689,1923,o),
(656,1923,cs),
(623,1923,o),
(596,1896,o),
(596,1863,cs),
(596,1830,o),
(623,1803,o),
(656,1803,cs)
);
}
);
vertWidth = 0;
width = 1536;
}
);
metricLeft = R.ss02;
metricWidth = R;
},
{
color = 5;
glyphname = S.ss04;
lastChange = "2023-10-13 22:27:06 +0000";
layers = (
{
layerId = m01;
shapes = (
{
closed = 1;
nodes = (
(925,-20,o),
(1153,189,o),
(1235,505,cs),
(1319,861,o),
(1195,1054,o),
(814,1154,cs),
(593,1211,o),
(507,1313,o),
(545,1460,cs),
(602,1682,o),
(832,1868,o),
(1043,1868,cs),
(1168,1868,o),
(1247,1776,o),
(1311,1581,cs),
(1326,1533,o),
(1373,1518,o),
(1416,1527,cs),
(1473,1536,o),
(1493,1589,o),
(1482,1626,cs),
(1408,1891,o),
(1274,2028,o),
(1058,2028,cs),
(760,2028,o),
(446,1796,o),
(374,1498,cs),
(314,1242,o),
(453,1066,o),
(779,978,cs),
(1039,909,o),
(1117,784,o),
(1061,533,cs),
(1005,296,o),
(846,143,o),
(642,143,cs),
(443,143,o),
(314,280,o),
(290,511,cs),
(284,559,o),
(251,580,o),
(196,577,cs),
(142,575,o),
(109,544,o),
(114,494,cs),
(149,176,o),
(348,-20,o),
(632,-20,cs)
);
},
{
closed = 1;
nodes = (
(357,0,o),
(168,187,o),
(134,496,cs),
(130,535,o),
(152,555,o),
(198,557,cs),
(244,560,o),
(266,546,o),
(270,509,cs),
(295,270,o),
(433,123,o),
(642,123,cs),
(855,123,o),
(1023,285,o),
(1081,529,cs),
(1139,789,o),
(1053,926,o),
(785,998,cs),
(466,1083,o),
(336,1248,o),
(394,1494,cs),
(464,1783,o),
(767,2008,o),
(1058,2008,cs),
(1265,2008,o),
(1390,1880,o),
(1462,1620,cs),
(1471,1591,o),
(1457,1554,o),
(1412,1547,cs),
(1376,1539,o),
(1342,1550,o),
(1331,1587,cs),
(1265,1787,o),
(1179,1888,o),
(1043,1888,cs),
(825,1888,o),
(584,1695,o),
(525,1464,cs),
(485,1308,o),
(579,1194,o),
(808,1134,cs),
(1182,1037,o),
(1297,856,o),
(1215,509,cs),
(1135,201,o),
(916,0,o),
(632,0,cs)
);
},
{
closed = 1;
nodes = (
(1416,1575,o),
(1432,1592,o),
(1432,1613,cs),
(1432,1634,o),
(1416,1650,o),
(1395,1650,cs),
(1374,1650,o),
(1357,1634,o),
(1357,1613,cs),
(1357,1592,o),
(1374,1575,o),
(1395,1575,cs)
);
}
);
vertWidth = 0;
width = 1310;
},
{
layerId = "6449507E-FEE0-4D4A-A81F-7CAB6A5803D5";
shapes = (
{
closed = 1;
nodes = (
(981,-20,o),
(1240,185,o),
(1315,524,cs),
(1400,911,o),
(1278,1125,o),
(863,1234,cs),
(725,1270,o),
(666,1320,o),
(684,1394,cs),
(725,1561,o),
(890,1689,o),
(1045,1689,cs),
(1126,1689,o),
(1164,1617,o),
(1203,1492,cs),
(1230,1404,o),
(1318,1363,o),
(1405,1379,cs),
(1525,1401,o),
(1561,1520,o),
(1540,1590,cs),
(1455,1888,o),
(1297,2028,o),
(1061,2028,cs),
(745,2028,o),
(419,1793,o),
(344,1480,cs),
(276,1196,o),
(406,987,o),
(780,889,cs),
(955,841,o),
(1008,766,o),
(970,594,cs),
(931,426,o),
(826,319,o),
(678,319,cs),
(545,319,o),
(468,419,o),
(454,572,cs),
(445,665,o),
(384,726,o),
(266,717,cs),
(148,711,o),
(93,644,o),
(102,539,cs),
(139,186,o),
(364,-20,o),
(670,-20,cs)
);
},
{
closed = 1;
nodes = (
(382,20,o),
(177,208,o),
(142,543,cs),
(135,629,o),
(171,672,o),
(268,677,cs),
(366,684,o),
(407,644,o),
(414,568,cs),
(430,401,o),
(523,279,o),
(678,279,cs),
(845,279,o),
(967,404,o),
(1010,586,cs),
(1051,777,o),
(982,875,o),
(790,927,cs),
(434,1021,o),
(319,1205,o),
(382,1470,cs),
(454,1767,o),
(760,1988,o),
(1061,1988,cs),
(1279,1988,o),
(1420,1864,o),
(1502,1578,cs),
(1518,1524,o),
(1492,1436,o),
(1397,1419,cs),
(1325,1405,o),
(1262,1436,o),
(1241,1504,cs),
(1201,1632,o),
(1153,1729,o),
(1045,1729,cs),
(875,1729,o),
(692,1587,o),
(646,1404,cs),
(621,1304,o),
(704,1235,o),
(853,1196,cs),
(1249,1093,o),
(1357,902,o),
(1275,532,cs),
(1204,209,o),
(965,20,o),
(670,20,cs)
);
},
{
closed = 1;
nodes = (
(1410,1482,o),
(1437,1509,o),
(1437,1542,cs),
(1437,1575,o),
(1410,1602,o),
(1377,1602,cs),
(1344,1602,o),
(1317,1575,o),
(1317,1542,cs),
(1317,1509,o),
(1344,1482,o),
(1377,1482,cs)
);
}
);
vertWidth = 0;
width = 1363;
}
);
metricLeft = S.ss02;
metricWidth = S;
},
{
color = 5;
glyphname = T.ss04;
lastChange = "2023-10-13 22:27:06 +0000";
layers = (
{
layerId = m01;
shapes = (
{
closed = 1;
nodes = (
(462,0,o),
(489,45,o),
(497,78,cs),
(941,1850,l),
(1415,1850,ls),
(1481,1850,o),
(1503,1887,o),
(1503,1928,cs),
(1503,1968,o),
(1481,2008,o),
(1415,2008,cs),
(319,2008,ls),
(250,2008,o),
(229,1968,o),
(229,1928,cs),
(229,1887,o),
(250,1850,o),
(319,1850,cs),
(761,1850,l),
(324,108,ls),
(312,60,o),
(336,0,o),
(402,0,cs)
);
},
{
closed = 1;
nodes = (
(351,20,o),
(334,63,o),
(344,104,cs),
(787,1870,l),
(319,1870,ls),
(263,1870,o),
(249,1894,o),
(249,1928,cs),
(249,1962,o),
(263,1988,o),
(319,1988,cs),
(1415,1988,ls),
(1468,1988,o),
(1483,1961,o),
(1483,1928,cs),
(1483,1894,o),
(1468,1870,o),
(1415,1870,cs),
(925,1870,l),
(477,82,ls),
(470,53,o),
(451,20,o),
(402,20,cs)
);
},
{
closed = 1;
nodes = (
(875,1829,o),
(891,1846,o),
(891,1867,cs),
(891,1888,o),
(875,1904,o),
(854,1904,cs),
(833,1904,o),
(816,1888,o),
(816,1867,cs),
(816,1846,o),
(833,1829,o),
(854,1829,cs)
);
}
);
vertWidth = 0;
width = 990;
},
{
layerId = "6449507E-FEE0-4D4A-A81F-7CAB6A5803D5";
shapes = (
{
closed = 1;
nodes = (
(742,-20,o),
(789,66,o),
(805,128,cs),
(1197,1691,l),
(1554,1691,ls),
(1702,1691,o),
(1732,1782,o),
(1732,1857,cs),
(1732,1939,o),
(1700,2028,o),
(1554,2028,cs),
(552,2028,ls),
(409,2028,o),
(376,1939,o),
(376,1857,cs),
(376,1782,o),
(402,1691,o),
(552,1691,cs),
(832,1691,l),
(460,200,ls),
(433,91,o),
(503,-20,o),
(625,-20,cs)
);
},
{
closed = 1;
nodes = (
(527,20,o),
(476,102,o),
(498,190,cs),
(884,1731,l),
(552,1731,ls),
(434,1731,o),
(416,1790,o),
(416,1857,cs),
(416,1929,o),
(439,1988,o),
(552,1988,cs),
(1554,1988,ls),
(1670,1988,o),
(1692,1929,o),
(1692,1857,cs),
(1692,1790,o),
(1672,1731,o),
(1554,1731,cs),
(1165,1731,l),
(767,138,ls),
(753,83,o),
(717,20,o),
(625,20,cs)
);
},
{
closed = 1;
nodes = (
(1050,1658,o),
(1077,1685,o),
(1077,1718,cs),
(1077,1751,o),
(1050,1778,o),
(1017,1778,cs),
(984,1778,o),
(957,1751,o),
(957,1718,cs),
(957,1685,o),
(984,1658,o),
(1017,1658,cs)
);
}
);
vertWidth = 0;
width = 1410;
}
);
metricLeft = T.ss02;
metricWidth = T;
},
{
color = 5;
glyphname = U.ss04;
lastChange = "2023-10-13 22:27:06 +0000";
layers = (
{
layerId = m01;
shapes = (
{
closed = 1;
nodes = (
(748,-20,o),
(993,181,o),
(1166,475,c),
(1074,100,ls),
(1059,39,o),
(1099,3,o),
(1148,0,cs),
(1189,-3,o),
(1235,20,o),
(1248,72,cs),
(1706,1909,ls),
(1719,1962,o),
(1696,2008,o),
(1628,2008,cs),
(1568,2008,o),
(1540,1969,o),
(1530,1930,cs),
(1380,1328,l),
(1194,649,o),
(835,138,o),
(542,138,cs),
(351,138,o),
(289,356,o),
(377,705,cs),
(678,1904,ls),
(690,1952,o),
(663,2008,o),
(608,2008,cs),
(553,2008,o),
(512,1968,o),
(499,1914,cs),
(204,728,ls),
(91,274,o),
(207,-20,o),
(508,-20,cs)
);
},
{
closed = 1;
nodes = (
(221,0,o),
(113,279,o),
(224,724,cs),
(519,1910,ls),
(531,1957,o),
(562,1988,o),
(608,1988,cs),
(649,1988,o),
(668,1949,o),
(658,1910,cs),
(357,709,ls),
(268,352,o),
(336,118,o),
(542,118,cs),
(847,118,o),
(1212,640,o),
(1400,1322,c),
(1550,1926,ls),
(1558,1960,o),
(1579,1988,o),
(1628,1988,cs),
(1682,1988,o),
(1697,1958,o),
(1686,1915,cs),
(1228,78,ls),
(1217,35,o),
(1184,17,o),
(1150,20,cs),
(1109,23,o),
(1082,47,o),
(1094,96,cs),
(1205,546,ls),
(1217,597,o),
(1210,599,o),
(1186,553,cs),
(1014,224,o),
(758,0,o),
(508,0,cs)
);
},
{
closed = 1;
nodes = (
(616,1881,o),
(632,1898,o),
(632,1919,cs),
(632,1940,o),
(616,1956,o),
(595,1956,cs),
(574,1956,o),
(557,1940,o),
(557,1919,cs),
(557,1898,o),
(574,1881,o),
(595,1881,cs)
);
}
);
vertWidth = 0;
width = 1469;
},
{
layerId = "6449507E-FEE0-4D4A-A81F-7CAB6A5803D5";
shapes = (
{
closed = 1;
nodes = (
(756,-20,o),
(905,91,o),
(1020,248,c),
(1004,191,ls),
(968,63,o),
(1061,-20,o),
(1161,-20,cs),
(1237,-20,o),
(1330,19,o),
(1355,120,cs),
(1778,1818,ls),
(1804,1923,o),
(1766,2028,o),
(1624,2028,cs),
(1503,2028,o),
(1450,1961,o),
(1430,1883,cs),
(1287,1312,l),
(1122,731,o),
(849,317,o),
(617,317,cs),
(491,317,o),
(520,552,o),
(558,705,cs),
(835,1813,ls),
(860,1913,o),
(798,2028,o),
(688,2028,cs),
(594,2028,o),
(511,1969,o),
(487,1873,cs),
(213,775,ls),
(75,223,o),
(265,-20,o),
(586,-20,cs)
);
},
{
closed = 1;
nodes = (
(286,20,o),
(120,238,o),
(251,765,cs),
(525,1863,ls),
(545,1944,o),
(608,1988,o),
(688,1988,cs),
(772,1988,o),
(816,1904,o),
(796,1823,cs),
(520,715,ls),
(481,558,o),
(443,277,o),
(617,277,cs),
(874,277,o),
(1158,712,o),
(1325,1302,c),
(1468,1873,ls),
(1485,1941,o),
(1523,1988,o),
(1624,1988,cs),
(1737,1988,o),
(1762,1916,o),
(1740,1828,cs),
(1317,130,ls),
(1297,48,o),
(1227,20,o),
(1161,20,cs),
(1080,20,o),
(1015,76,o),
(1042,183,cs),
(1073,304,ls),
(1105,430,o),
(1104,435,o),
(1029,322,cs),
(898,124,o),
(741,20,o),
(586,20,cs)
);
},
{
closed = 1;
nodes = (
(689,1803,o),
(716,1830,o),
(716,1863,cs),
(716,1896,o),
(689,1923,o),
(656,1923,cs),
(623,1923,o),
(596,1896,o),
(596,1863,cs),
(596,1830,o),
(623,1803,o),
(656,1803,cs)
);
}
);
vertWidth = 0;
width = 1574;
}
);
metricLeft = U.ss02;
metricWidth = U;
},
{
color = 5;
glyphname = V.ss04;
lastChange = "2023-10-13 22:27:06 +0000";
layers = (
{
layerId = m01;
shapes = (
{
closed = 1;
nodes = (
(642,0,o),
(662,40,o),
(684,84,cs),
(1582,1895,ls),
(1617,1966,o),
(1574,2008,o),
(1521,2008,cs),
(1458,2008,o),
(1431,1981,o),
(1405,1927,cs),
(640,371,l),
(558,1926,ls),
(556,1959,o),
(540,2008,o),
(464,2008,cs),
(400,2008,o),
(379,1967,o),
(382,1916,cs),
(488,87,ls),
(490,54,o),
(511,0,o),
(576,0,cs)
);
},
{
closed = 1;
nodes = (
(526,20,o),
(510,59,o),
(508,89,cs),
(402,1918,ls),
(399,1962,o),
(413,1988,o),
(464,1988,cs),
(525,1988,o),
(536,1954,o),
(538,1924,cs),
(621,350,ls),
(624,299,o),
(627,299,o),
(652,350,cs),
(1423,1919,ls),
(1447,1968,o),
(1467,1988,o),
(1521,1988,cs),
(1564,1988,o),
(1592,1960,o),
(1564,1903,cs),
(666,92,ls),
(644,48,o),
(630,20,o),
(576,20,cs)
);
},
{
closed = 1;
nodes = (
(489,1881,o),
(505,1898,o),
(505,1919,cs),
(505,1940,o),
(489,1956,o),
(468,1956,cs),
(447,1956,o),
(430,1940,o),
(430,1919,cs),
(430,1898,o),
(447,1881,o),
(468,1881,cs)
);
}
);
vertWidth = 0;
width = 1206;
},
{
layerId = "6449507E-FEE0-4D4A-A81F-7CAB6A5803D5";
shapes = (
{
closed = 1;
nodes = (
(714,-20,o),
(755,36,o),
(791,108,cs),
(1624,1786,ls),
(1702,1944,o),
(1592,2028,o),
(1478,2028,cs),
(1378,2028,o),
(1333,1987,o),
(1289,1897,cs),
(744,789,l),
(689,1861,ls),
(685,1932,o),
(653,2028,o),
(508,2028,cs),
(381,2028,o),
(331,1951,o),
(337,1843,cs),
(431,147,ls),
(435,79,o),
(481,-20,o),
(607,-20,cs)
);
},
{
closed = 1;
nodes = (
(508,20,o),
(474,91,o),
(471,149,cs),
(377,1845,ls),
(372,1938,o),
(405,1988,o),
(508,1988,cs),
(624,1988,o),
(646,1921,o),
(649,1859,cs),
(706,755,ls),
(711,652,o),
(721,652,o),
(772,755,cs),
(1325,1879,ls),
(1365,1961,o),
(1394,1988,o),
(1478,1988,cs),
(1571,1988,o),
(1652,1933,o),
(1588,1804,cs),
(755,126,ls),
(722,59,o),
(693,20,o),
(607,20,cs)
);
},
{
closed = 1;
nodes = (
(535,1803,o),
(562,1830,o),
(562,1863,cs),
(562,1896,o),
(535,1923,o),
(502,1923,cs),
(469,1923,o),
(442,1896,o),
(442,1863,cs),
(442,1830,o),
(469,1803,o),
(502,1803,cs)
);
}
);
vertWidth = 0;
width = 1278;
}
);
metricLeft = V.ss02;
metricWidth = V;
},
{
color = 5;
glyphname = W.ss04;
lastChange = "2023-10-13 22:27:06 +0000";
layers = (
{
layerId = m01;
shapes = (
{
closed = 1;
nodes = (
(576,0,o),
(603,32,o),
(636,83,cs),
(1110,814,l),
(1348,93,ls),
(1367,36,o),
(1374,0,o),
(1434,0,cs),
(1482,0,o),
(1521,28,o),
(1547,84,cs),
(2382,1895,ls),
(2410,1955,o),
(2376,2008,o),
(2311,2008,cs),
(2265,2008,o),
(2226,1976,o),
(2203,1927,cs),
(1465,327,l),
(1239,1010,ls),
(1225,1051,o),
(1210,1092,o),
(1151,1092,cs),
(1099,1092,o),
(1068,1053,o),
(1041,1012,cs),
(590,316,l),
(556,1923,ls),
(555,1972,o),
(520,2008,o),
(468,2008,cs),
(417,2008,o),
(379,1972,o),
(380,1917,cs),
(418,96,ls),
(419,34,o),
(445,0,o),
(503,0,cs)
);
},
{
closed = 1;
nodes = (
(456,20,o),
(439,42,o),
(438,96,cs),
(400,1917,ls),
(399,1963,o),
(426,1988,o),
(468,1988,cs),
(511,1988,o),
(535,1963,o),
(536,1923,cs),
(570,299,ls),
(571,257,o),
(574,257,o),
(601,298,cs),
(1057,1002,ls),
(1082,1041,o),
(1109,1072,o),
(1151,1072,cs),
(1196,1072,o),
(1206,1045,o),
(1219,1004,cs),
(1448,310,ls),
(1460,273,o),
(1462,273,o),
(1479,309,cs),
(2221,1919,ls),
(2241,1963,o),
(2273,1988,o),
(2311,1988,cs),
(2362,1988,o),
(2386,1951,o),
(2364,1903,cs),
(1529,92,ls),
(1506,42,o),
(1475,20,o),
(1434,20,cs),
(1390,20,o),
(1387,42,o),
(1368,99,cs),
(1128,827,ls),
(1118,858,o),
(1116,858,o),
(1095,826,cs),
(620,93,ls),
(588,44,o),
(567,20,o),
(503,20,cs)
);
},
{
closed = 1;
nodes = (
(490,1881,o),
(506,1898,o),
(506,1919,cs),
(506,1940,o),
(490,1956,o),
(469,1956,cs),
(448,1956,o),
(431,1940,o),
(431,1919,cs),
(431,1898,o),
(448,1881,o),
(469,1881,cs)
);
}
);
vertWidth = 0;
width = 2002;
},
{
layerId = "6449507E-FEE0-4D4A-A81F-7CAB6A5803D5";
shapes = (
{
closed = 1;
nodes = (
(612,-20,o),
(667,16,o),
(726,110,cs),
(1071,655,l),
(1225,179,ls),
(1262,63,o),
(1290,0,o),
(1402,0,cs),
(1477,0,o),
(1545,36,o),
(1589,132,cs),
(2345,1769,ls),
(2403,1895,o),
(2325,2008,o),
(2194,2008,cs),
(2116,2008,o),
(2048,1965,o),
(2007,1876,cs),
(1489,756,l),
(1353,1175,ls),
(1324,1265,o),
(1299,1343,o),
(1181,1343,cs),
(1096,1343,o),
(1040,1289,o),
(992,1213,cs),
(704,756,l),
(680,1835,ls),
(678,1937,o),
(606,2008,o),
(501,2008,cs),
(403,2008,o),
(326,1943,o),
(328,1832,cs),
(364,161,ls),
(367,32,o),
(429,-20,o),
(537,-20,cs)
);
},
{
closed = 1;
nodes = (
(446,20,o),
(406,54,o),
(404,161,cs),
(368,1832,ls),
(366,1922,o),
(420,1968,o),
(501,1968,cs),
(587,1968,o),
(638,1917,o),
(640,1835,cs),
(664,724,ls),
(666,630,o),
(669,630,o),
(727,721,cs),
(1026,1193,ls),
(1070,1263,o),
(1113,1303,o),
(1181,1303,cs),
(1272,1303,o),
(1287,1252,o),
(1315,1165,cs),
(1458,725,ls),
(1482,650,o),
(1484,650,o),
(1519,726,cs),
(2043,1860,ls),
(2078,1935,o),
(2130,1968,o),
(2194,1968,cs),
(2300,1968,o),
(2356,1887,o),
(2309,1785,cs),
(1553,148,ls),
(1516,67,o),
(1465,40,o),
(1402,40,cs),
(1314,40,o),
(1298,80,o),
(1263,189,cs),
(1104,679,ls),
(1083,744,o),
(1080,744,o),
(1040,681,cs),
(692,130,ls),
(638,45,o),
(599,20,o),
(537,20,cs)
);
},
{
closed = 1;
nodes = (
(533,1803,o),
(560,1830,o),
(560,1863,cs),
(560,1896,o),
(533,1923,o),
(500,1923,cs),
(467,1923,o),
(440,1896,o),
(440,1863,cs),
(440,1830,o),
(467,1803,o),
(500,1803,cs)
);
}
);
vertWidth = 0;
width = 2003;
}
);
metricLeft = W.ss02;
metricWidth = W;
},
{
color = 5;
glyphname = X.ss04;
lastChange = "2023-10-13 22:27:06 +0000";
layers = (
{
layerId = m01;
shapes = (
{
closed = 1;
nodes = (
(-16,-10,o),
(46,-10,o),
(89,41,cs),
(753,833,l),
(1017,70,ls),
(1041,2,o),
(1103,-13,o),
(1151,9,cs),
(1184,27,o),
(1202,69,o),
(1184,120,cs),
(893,967,l),
(1653,1864,ls),
(1697,1916,o),
(1682,1965,o),
(1651,1990,cs),
(1617,2017,o),
(1557,2017,o),
(1514,1965,cs),
(830,1153,l),
(558,1943,ls),
(536,2006,o),
(470,2019,o),
(427,2003,cs),
(383,1986,o),
(373,1942,o),
(394,1882,cs),
(690,1020,l),
(-57,134,ls),
(-90,94,o),
(-83,46,o),
(-52,21,cs)
);
},
{
closed = 1;
nodes = (
(-63,55,o),
(-69,89,o),
(-41,122,cs),
(712,1016,l),
(412,1888,ls),
(393,1942,o),
(401,1973,o),
(435,1985,cs),
(469,2000,o),
(522,1988,o),
(540,1937,cs),
(813,1139,ls),
(821,1115,o),
(824,1115,o),
(844,1139,cs),
(1530,1953,ls),
(1566,1996,o),
(1612,1996,o),
(1639,1974,cs),
(1663,1954,o),
(1674,1921,o),
(1637,1878,cs),
(871,971,l),
(1166,114,ls),
(1181,71,o),
(1167,41,o),
(1141,27,cs),
(1103,9,o),
(1054,20,o),
(1035,76,cs),
(769,850,ls),
(762,871,o),
(759,871,o),
(741,849,cs),
(73,53,ls),
(37,11,o),
(-9,11,o),
(-40,37,cs)
);
},
{
closed = 1;
nodes = (
(485,1881,o),
(501,1898,o),
(501,1919,cs),
(501,1940,o),
(485,1956,o),
(464,1956,cs),
(443,1956,o),
(426,1940,o),
(426,1919,cs),
(426,1898,o),
(443,1881,o),
(464,1881,cs)
);
}
);
vertWidth = 0;
width = 1263;
},
{
layerId = "6449507E-FEE0-4D4A-A81F-7CAB6A5803D5";
shapes = (
{
closed = 1;
nodes = (
(161,-37,o),
(269,-47,o),
(353,52,cs),
(866,658,l),
(1053,110,ls),
(1097,-18,o),
(1224,-38,o),
(1306,-2,cs),
(1370,29,o),
(1424,109,o),
(1387,218,cs),
(1141,937,l),
(1823,1740,ls),
(1919,1854,o),
(1864,1947,o),
(1807,1990,cs),
(1749,2039,o),
(1630,2052,o),
(1546,1953,cs),
(1010,1320,l),
(810,1903,ls),
(766,2030,o),
(634,2047,o),
(560,2019,cs),
(491,1992,o),
(429,1930,o),
(478,1788,cs),
(734,1041,l),
(71,260,ls),
(-7,169,o),
(31,70,o),
(94,19,cs)
);
},
{
closed = 1;
nodes = (
(67,93,o),
(40,163,o),
(101,234,cs),
(780,1033,l),
(516,1802,ls),
(477,1916,o),
(515,1959,o),
(574,1981,cs),
(637,2005,o),
(737,1991,o),
(772,1889,cs),
(972,1304,ls),
(993,1243,o),
(996,1243,o),
(1044,1299,cs),
(1576,1927,ls),
(1645,2008,o),
(1734,1997,o),
(1783,1958,cs),
(1831,1920,o),
(1870,1857,o),
(1793,1766,cs),
(1095,945,l),
(1349,204,ls),
(1379,117,o),
(1343,58,o),
(1290,34,cs),
(1221,3,o),
(1127,20,o),
(1091,124,cs),
(899,683,ls),
(881,735,o),
(877,735,o),
(835,685,cs),
(323,78,ls),
(254,-4,o),
(175,3,o),
(120,49,cs)
);
},
{
closed = 1;
nodes = (
(655,1803,o),
(682,1830,o),
(682,1863,cs),
(682,1896,o),
(655,1923,o),
(622,1923,cs),
(589,1923,o),
(562,1896,o),
(562,1863,cs),
(562,1830,o),
(589,1803,o),
(622,1803,cs)
);
}
);
vertWidth = 0;
width = 1479;
}
);
metricLeft = X.ss02;
metricWidth = X;
},
{
color = 5;
glyphname = Y.ss04;
lastChange = "2023-10-13 22:27:06 +0000";
layers = (
{
layerId = m01;
shapes = (
{
closed = 1;
nodes = (
(307,-10,o),
(366,-13,o),
(401,40,cs),
(1595,1866,ls),
(1627,1915,o),
(1615,1967,o),
(1582,1990,cs),
(1543,2020,o),
(1477,2008,o),
(1443,1956,cs),
(927,1168,l),
(556,1941,ls),
(526,2003,o),
(471,2016,o),
(430,2000,cs),
(387,1984,o),
(367,1939,o),
(396,1878,cs),
(815,996,l),
(252,133,ls),
(226,93,o),
(232,45,o),
(267,21,cs)
);
},
{
closed = 1;
nodes = (
(251,56,o),
(247,90,o),
(268,123,cs),
(837,994,l),
(414,1886,ls),
(389,1938,o),
(402,1970,o),
(438,1982,cs),
(471,1996,o),
(513,1985,o),
(538,1933,cs),
(912,1155,ls),
(924,1131,o),
(926,1131,o),
(943,1156,cs),
(1459,1946,ls),
(1487,1989,o),
(1539,1997,o),
(1570,1974,cs),
(1596,1956,o),
(1606,1917,o),
(1579,1876,cs),
(385,50,ls),
(357,7,o),
(313,11,o),
(279,37,cs)
);
},
{
closed = 1;
nodes = (
(487,1881,o),
(503,1898,o),
(503,1919,cs),
(503,1940,o),
(487,1956,o),
(466,1956,cs),
(445,1956,o),
(428,1940,o),
(428,1919,cs),
(428,1898,o),
(445,1881,o),
(466,1881,cs)
);
}
);
vertWidth = 0;
width = 1243;
},
{
layerId = "6449507E-FEE0-4D4A-A81F-7CAB6A5803D5";
shapes = (
{
closed = 1;
nodes = (
(544,-39,o),
(663,-46,o),
(730,57,cs),
(1832,1750,ls),
(1901,1856,o),
(1859,1947,o),
(1801,1993,cs),
(1728,2046,o),
(1600,2041,o),
(1533,1938,cs),
(1111,1291,l),
(809,1913,ls),
(750,2034,o),
(640,2048,o),
(562,2019,cs),
(497,1995,o),
(416,1922,o),
(484,1778,cs),
(881,939,l),
(430,248,ls),
(372,159,o),
(402,70,o),
(469,18,cs)
);
},
{
closed = 1;
nodes = (
(438,93,o),
(418,155,o),
(464,226,cs),
(927,935,l),
(520,1796,ls),
(466,1910,o),
(521,1961,o),
(576,1981,cs),
(642,2007,o),
(724,1996,o),
(773,1895,cs),
(1081,1258,ls),
(1104,1211,o),
(1107,1211,o),
(1138,1259,cs),
(1567,1916,ls),
(1621,1999,o),
(1717,2004,o),
(1777,1961,c),
(1825,1922,o),
(1854,1857,o),
(1798,1772,cs),
(696,79,ls),
(643,-2,o),
(556,2,o),
(493,50,cs)
);
},
{
closed = 1;
nodes = (
(654,1803,o),
(681,1830,o),
(681,1863,cs),
(681,1896,o),
(654,1923,o),
(621,1923,cs),
(588,1923,o),
(561,1896,o),
(561,1863,cs),
(561,1830,o),
(588,1803,o),
(621,1803,cs)
);
}
);
vertWidth = 0;
width = 1502;
}
);
metricLeft = Y.ss02;
metricWidth = Y;
},
{
color = 5;
glyphname = Z.ss04;
lastChange = "2023-10-13 22:27:06 +0000";
layers = (
{
layerId = m01;
shapes = (
{
closed = 1;
nodes = (
(1256,1,ls),
(1325,1,o),
(1346,41,o),
(1346,81,cs),
(1346,124,o),
(1325,164,o),
(1256,164,cs),
(268,164,l),
(1674,1865,ls),
(1716,1915,o),
(1706,1966,o),
(1680,1988,cs),
(1663,2002,o),
(1645,2008,o),
(1614,2008,cs),
(540,2008,ls),
(470,2008,o),
(449,1968,o),
(449,1928,cs),
(449,1887,o),
(470,1848,o),
(540,1848,cs),
(1436,1848,l),
(20,134,ls),
(-6,102,o),
(-9,58,o),
(12,31,cs),
(24,15,o),
(59,1,o),
(95,1,cs)
);
},
{
closed = 1;
nodes = (
(64,21,o),
(36,32,o),
(28,43,cs),
(12,63,o),
(14,95,o),
(36,122,cs),
(1455,1840,ls),
(1477,1866,o),
(1477,1868,o),
(1440,1868,cs),
(540,1868,ls),
(483,1868,o),
(469,1894,o),
(469,1928,cs),
(469,1962,o),
(483,1988,o),
(540,1988,cs),
(1614,1988,ls),
(1641,1988,o),
(1653,1984,o),
(1668,1972,cs),
(1686,1957,o),
(1694,1920,o),
(1658,1877,cs),
(246,168,ls),
(227,145,o),
(228,144,o),
(257,144,cs),
(1256,144,ls),
(1312,144,o),
(1326,118,o),
(1326,81,cs),
(1326,47,o),
(1312,21,o),
(1256,21,cs),
(95,21,ls)
);
},
{
closed = 1;
nodes = (
(560,1892,o),
(576,1909,o),
(576,1930,cs),
(576,1951,o),
(560,1967,o),
(539,1967,cs),
(518,1967,o),
(501,1951,o),
(501,1930,cs),
(501,1909,o),
(518,1892,o),
(539,1892,cs)
);
}
);
vertWidth = 0;
width = 1502;
},
{
layerId = "6449507E-FEE0-4D4A-A81F-7CAB6A5803D5";
shapes = (
{
closed = 1;
nodes = (
(1254,-20,ls),
(1400,-20,o),
(1433,72,o),
(1433,151,cs),
(1433,230,o),
(1400,319,o),
(1254,319,cs),
(550,319,l),
(1725,1740,ls),
(1821,1856,o),
(1763,1946,o),
(1721,1987,cs),
(1685,2019,o),
(1651,2028,o),
(1598,2028,cs),
(612,2028,ls),
(466,2028,o),
(436,1939,o),
(436,1857,cs),
(436,1781,o),
(467,1689,o),
(612,1689,cs),
(1230,1689,l),
(48,260,ls),
(-8,192,o),
(-2,98,o),
(37,43,c),
(57,19,o),
(115,-20,o),
(188,-20,cs)
);
},
{
closed = 1;
nodes = (
(130,20,o),
(86,48,o),
(69,67,c),
(39,112,o),
(34,181,o),
(78,234,cs),
(1271,1675,ls),
(1314,1727,o),
(1312,1729,o),
(1239,1729,cs),
(612,1729,ls),
(496,1729,o),
(476,1790,o),
(476,1857,cs),
(476,1930,o),
(496,1988,o),
(612,1988,cs),
(1598,1988,ls),
(1644,1988,o),
(1666,1982,o),
(1693,1957,cs),
(1730,1922,o),
(1771,1858,o),
(1695,1766,cs),
(501,324,ls),
(465,281,o),
(465,279,o),
(530,279,cs),
(1254,279,ls),
(1370,279,o),
(1393,220,o),
(1393,151,cs),
(1393,82,o),
(1370,20,o),
(1254,20,cs),
(188,20,ls)
);
},
{
closed = 1;
nodes = (
(634,1803,o),
(661,1830,o),
(661,1863,cs),
(661,1896,o),
(634,1923,o),
(601,1923,cs),
(568,1923,o),
(541,1896,o),
(541,1863,cs),
(541,1830,o),
(568,1803,o),
(601,1803,cs)
);
}
);
vertWidth = 0;
width = 1597;
}
);
metricLeft = Z.ss02;
metricWidth = Z;
},
{
color = 5;
glyphname = A.ss05;
lastChange = "2023-10-13 22:27:06 +0000";
layers = (
{
layerId = m01;
shapes = (
{
closed = 1;
nodes = (
(53,0,o),
(71,20,o),
(105,75,cs),
(674,999,l),
(1090,999,l),
(1098,75,ls),
(1098,42,o),
(1106,0,o),
(1180,0,cs),
(1244,0,o),
(1269,35,o),
(1268,85,cs),
(1245,1936,ls),
(1245,1973,o),
(1211,2008,o),
(1162,2008,cs),
(1095,2008,o),
(1079,1972,o),
(1055,1933,cs),
(-67,116,ls),
(-107,51,o),
(-69,0,o),
(-15,0,cs)
);
},
{
closed = 1;
nodes = (
(-57,20,o),
(-83,54,o),
(-51,106,cs),
(1071,1923,ls),
(1096,1963,o),
(1108,1988,o),
(1162,1988,cs),
(1202,1988,o),
(1225,1963,o),
(1225,1936,cs),
(1248,85,ls),
(1249,42,o),
(1233,20,o),
(1180,20,cs),
(1123,20,o),
(1118,45,o),
(1118,75,cs),
(1110,1019,l),
(662,1019,l),
(89,85,ls),
(56,31,o),
(44,20,o),
(-15,20,cs)
);
},
{
closed = 1;
nodes = (
(1080,1651,l),
(1088,1160,l),
(773,1160,l)
);
},
{
closed = 1;
nodes = (
(1108,1140,l),
(1101,1676,ls),
(1100,1718,o),
(1098,1717,o),
(1072,1676,cs),
(737,1140,l)
);
},
{
closed = 1;
nodes = (
(1176,1881,o),
(1192,1898,o),
(1192,1919,cs),
(1192,1940,o),
(1176,1956,o),
(1155,1956,cs),
(1134,1956,o),
(1117,1940,o),
(1117,1919,cs),
(1117,1898,o),
(1134,1881,o),
(1155,1881,cs)
);
},
{
closed = 1;
nodes = (
(974,1684,l),
(958,1615,l),
(1012,1662,l),
(1000,1668,l),
(1114,1850,l),
(1098,1860,l),
(986,1677,l)
);
}
);
vertWidth = 0;
width = 1388;
},
{
layerId = "6449507E-FEE0-4D4A-A81F-7CAB6A5803D5";
shapes = (
{
closed = 1;
nodes = (
(198,-20,o),
(232,3,o),
(288,94,cs),
(690,746,l),
(1020,746,l),
(1026,143,ls),
(1027,79,o),
(1039,-20,o),
(1202,-20,cs),
(1330,-20,o),
(1377,51,o),
(1376,151,cs),
(1355,1870,ls),
(1354,1942,o),
(1296,2028,o),
(1184,2028,cs),
(1077,2028,o),
(1044,1981,o),
(1003,1915,cs),
(-32,234,ls),
(-134,68,o),
(-15,-20,o),
(100,-20,cs)
);
},
{
closed = 1;
nodes = (
(9,20,o),
(-83,76,o),
(2,214,cs),
(1037,1893,ls),
(1078,1959,o),
(1099,1988,o),
(1184,1988,cs),
(1273,1988,o),
(1314,1927,o),
(1315,1870,cs),
(1336,151,ls),
(1337,66,o),
(1306,20,o),
(1202,20,cs),
(1074,20,o),
(1067,82,o),
(1066,143,cs),
(1059,786,l),
(668,786,l),
(254,114,ls),
(204,32,o),
(185,20,o),
(100,20,cs)
);
},
{
closed = 1;
nodes = (
(1015,1272,l),
(1017,1082,l),
(897,1082,l)
);
},
{
closed = 1;
nodes = (
(1057,1042,l),
(1054,1314,ls),
(1053,1410,o),
(1051,1409,o),
(993,1315,cs),
(825,1042,l)
);
},
{
closed = 1;
nodes = (
(1211,1803,o),
(1238,1830,o),
(1238,1863,cs),
(1238,1896,o),
(1211,1923,o),
(1178,1923,cs),
(1145,1923,o),
(1118,1896,o),
(1118,1863,cs),
(1118,1830,o),
(1145,1803,o),
(1178,1803,cs)
);
},
{
closed = 1;
nodes = (
(985,1608,l),
(975,1537,l),
(1032,1582,l),
(1020,1589,l),
(1131,1771,l),
(1108,1785,l),
(997,1602,l)
);
}
);
vertWidth = 0;
width = 1471;
}
);
metricLeft = A.ss02;
metricWidth = A;
},
{
color = 5;
glyphname = B.ss05;
lastChange = "2023-10-13 22:27:06 +0000";
layers = (
{
layerId = m01;
shapes = (
{
closed = 1;
nodes = (
(793,2,o),
(1162,141,o),
(1238,443,cs),
(1311,737,o),
(1157,955,o),
(831,1061,c),
(1117,1097,o),
(1288,1208,o),
(1337,1413,cs),
(1426,1792,o),
(1150,2011,o),
(608,2008,cs),
(552,2008,o),
(517,1988,o),
(502,1926,cs),
(50,113,ls),
(36,56,o),
(68,0,o),
(127,0,cs)
);
},
{
closed = 1;
nodes = (
(81,20,o),
(58,61,o),
(70,109,cs),
(521,1920,ls),
(534,1974,o),
(559,1988,o),
(608,1988,cs),
(1140,1991,o),
(1404,1783,o),
(1317,1417,cs),
(1269,1214,o),
(1097,1108,o),
(799,1078,cs),
(740,1072,o),
(744,1068,o),
(799,1051,cs),
(1135,950,o),
(1290,740,o),
(1218,447,cs),
(1146,157,o),
(788,22,o),
(127,20,cs)
);
},
{
closed = 1;
nodes = (
(451,1001,l),
(910,960,o),
(1139,764,o),
(1070,481,cs),
(1016,261,o),
(742,159,o),
(240,155,c)
);
},
{
closed = 1;
nodes = (
(737,135,o),
(1032,242,o),
(1090,477,cs),
(1163,775,o),
(915,984,o),
(435,1023,c),
(214,135,l)
);
},
{
closed = 1;
nodes = (
(662,1850,l),
(1045,1843,o),
(1231,1695,o),
(1166,1433,cs),
(1120,1237,o),
(897,1154,o),
(494,1175,c)
);
},
{
closed = 1;
nodes = (
(892,1130,o),
(1136,1217,o),
(1186,1429,cs),
(1255,1706,o),
(1050,1867,o),
(646,1870,c),
(468,1157,l)
);
},
{
closed = 1;
nodes = (
(612,1881,o),
(628,1898,o),
(628,1919,cs),
(628,1940,o),
(612,1956,o),
(591,1956,cs),
(570,1956,o),
(553,1940,o),
(553,1919,cs),
(553,1898,o),
(570,1881,o),
(591,1881,cs)
);
},
{
closed = 1;
nodes = (
(503,1656,l),
(508,1586,l),
(545,1646,l),
(532,1649,l),
(584,1857,l),
(567,1861,l),
(516,1653,l)
);
}
);
vertWidth = 0;
width = 1330;
},
{
layerId = "6449507E-FEE0-4D4A-A81F-7CAB6A5803D5";
shapes = (
{
closed = 1;
nodes = (
(913,-20,o),
(1269,163,o),
(1346,468,cs),
(1410,723,o),
(1329,905,o),
(1098,1020,c),
(1288,1079,o),
(1397,1190,o),
(1437,1355,cs),
(1531,1751,o),
(1288,2028,o),
(685,2028,cs),
(582,2028,o),
(519,1999,o),
(489,1880,cs),
(71,203,ls),
(40,80,o),
(116,-20,o),
(228,-20,cs)
);
},
{
closed = 1;
nodes = (
(139,20,o),
(84,92,o),
(109,193,cs),
(527,1870,ls),
(552,1969,o),
(594,1988,o),
(685,1988,cs),
(1266,1988,o),
(1487,1738,o),
(1399,1365,cs),
(1360,1205,o),
(1255,1105,o),
(1061,1051,cs),
(989,1031,o),
(989,1027,o),
(1061,994,cs),
(1292,887,o),
(1369,724,o),
(1308,478,cs),
(1235,193,o),
(901,20,o),
(228,20,cs)
);
},
{
closed = 1;
nodes = (
(605,893,l),
(874,851,o),
(1055,745,o),
(1009,549,cs),
(970,395,o),
(764,332,o),
(458,317,c)
);
},
{
closed = 1;
nodes = (
(747,285,o),
(1001,352,o),
(1047,539,cs),
(1104,776,o),
(872,899,o),
(575,937,c),
(406,275,l)
);
},
{
closed = 1;
nodes = (
(804,1686,l),
(1008,1665,o),
(1136,1585,o),
(1095,1420,cs),
(1062,1291,o),
(913,1227,o),
(686,1216,c)
);
},
{
closed = 1;
nodes = (
(900,1177,o),
(1093,1249,o),
(1133,1410,cs),
(1185,1616,o),
(1007,1713,o),
(774,1728,c),
(634,1174,l)
);
},
{
closed = 1;
nodes = (
(699,1803,o),
(726,1830,o),
(726,1863,cs),
(726,1896,o),
(699,1923,o),
(666,1923,cs),
(633,1923,o),
(606,1896,o),
(606,1863,cs),
(606,1830,o),
(633,1803,o),
(666,1803,cs)
);
},
{
closed = 1;
nodes = (
(564,1565,l),
(575,1494,l),
(616,1553,l),
(603,1556,l),
(656,1763,l),
(630,1770,l),
(577,1562,l)
);
}
);
vertWidth = 0;
width = 1424;
}
);
metricLeft = B.ss02;
metricWidth = B;
},
{
color = 5;
glyphname = C.ss05;
lastChange = "2023-10-13 22:27:06 +0000";
layers = (
{
layerId = m01;
shapes = (
{
closed = 1;
nodes = (
(827,-20,o),
(1048,149,o),
(1239,437,cs),
(1305,542,o),
(1317,580,o),
(1317,600,cs),
(1319,643,o),
(1285,665,o),
(1248,668,cs),
(1189,674,o),
(1166,624,o),
(1114,546,cs),
(943,288,o),
(775,143,o),
(644,143,cs),
(437,143,o),
(344,412,o),
(396,850,cs),
(471,1474,o),
(717,1868,o),
(1060,1868,cs),
(1170,1868,o),
(1248,1787,o),
(1295,1661,cs),
(1315,1613,o),
(1362,1589,o),
(1411,1607,cs),
(1458,1621,o),
(1476,1658,o),
(1465,1702,cs),
(1412,1903,o),
(1281,2028,o),
(1078,2028,cs),
(630,2028,o),
(302,1560,o),
(212,823,cs),
(155,312,o),
(313,-20,o),
(641,-20,cs)
);
},
{
closed = 1;
nodes = (
(327,0,o),
(175,317,o),
(232,821,cs),
(321,1551,o),
(641,2008,o),
(1078,2008,cs),
(1272,2008,o),
(1394,1892,o),
(1445,1696,cs),
(1454,1661,o),
(1443,1637,o),
(1405,1625,cs),
(1365,1611,o),
(1330,1628,o),
(1313,1669,cs),
(1265,1798,o),
(1179,1888,o),
(1060,1888,cs),
(704,1888,o),
(451,1482,o),
(376,852,cs),
(324,408,o),
(422,123,o),
(644,123,cs),
(784,123,o),
(955,276,o),
(1130,536,cs),
(1181,616,o),
(1201,652,o),
(1246,648,cs),
(1278,645,o),
(1299,632,o),
(1297,600,cs),
(1297,583,o),
(1289,548,o),
(1223,447,cs),
(1036,161,o),
(820,0,o),
(641,0,cs)
);
},
{
closed = 1;
nodes = (
(1400,1651,o),
(1416,1668,o),
(1416,1689,cs),
(1416,1710,o),
(1400,1726,o),
(1379,1726,cs),
(1358,1726,o),
(1341,1710,o),
(1341,1689,cs),
(1341,1668,o),
(1358,1651,o),
(1379,1651,cs)
);
},
{
closed = 1;
nodes = (
(1249,1913,l),
(1183,1932,l),
(1227,1878,l),
(1233,1889,l),
(1284,1854,o),
(1314,1820,o),
(1336,1757,c),
(1351,1764,l),
(1330,1827,o),
(1294,1868,o),
(1242,1902,c)
);
}
);
vertWidth = 0;
width = 1288;
},
{
layerId = "6449507E-FEE0-4D4A-A81F-7CAB6A5803D5";
shapes = (
{
closed = 1;
nodes = (
(879,-20,o),
(1117,139,o),
(1315,446,cs),
(1398,573,o),
(1404,620,o),
(1404,644,cs),
(1404,716,o),
(1347,796,o),
(1249,802,cs),
(1174,808,o),
(1124,775,o),
(1039,645,cs),
(910,448,o),
(787,319,o),
(689,319,cs),
(542,319,o),
(530,595,o),
(561,851,cs),
(616,1341,o),
(791,1689,o),
(1072,1689,cs),
(1131,1689,o),
(1169,1632,o),
(1196,1562,cs),
(1234,1463,o),
(1327,1425,o),
(1423,1454,cs),
(1516,1483,o),
(1559,1556,o),
(1535,1655,cs),
(1479,1887,o),
(1323,2028,o),
(1087,2028,cs),
(643,2028,o),
(290,1603,o),
(198,850,cs),
(132,272,o),
(348,-20,o),
(687,-20,cs)
);
},
{
closed = 1;
nodes = (
(371,20,o),
(174,286,o),
(238,846,cs),
(328,1584,o),
(665,1988,o),
(1087,1988,cs),
(1305,1988,o),
(1444,1863,o),
(1497,1645,cs),
(1516,1564,o),
(1486,1515,o),
(1411,1492,cs),
(1332,1467,o),
(1265,1495,o),
(1234,1576,cs),
(1204,1652,o),
(1154,1729,o),
(1072,1729,cs),
(763,1729,o),
(577,1355,o),
(521,855,cs),
(490,594,o),
(501,279,o),
(689,279,cs),
(807,279,o),
(942,423,o),
(1073,623,cs),
(1151,744,o),
(1186,767,o),
(1247,762,cs),
(1323,758,o),
(1364,701,o),
(1364,644,cs),
(1364,624,o),
(1359,586,o),
(1281,468,cs),
(1088,169,o),
(865,20,o),
(687,20,cs)
);
},
{
closed = 1;
nodes = (
(1405,1552,o),
(1432,1579,o),
(1432,1612,cs),
(1432,1645,o),
(1405,1672,o),
(1372,1672,cs),
(1339,1672,o),
(1312,1645,o),
(1312,1612,cs),
(1312,1579,o),
(1339,1552,o),
(1372,1552,cs)
);
},
{
closed = 1;
nodes = (
(1161,1867,l),
(1092,1856,l),
(1151,1815,l),
(1153,1828,l),
(1223,1818,o),
(1271,1784,o),
(1317,1696,c),
(1341,1711,l),
(1293,1800,o),
(1228,1844,o),
(1159,1855,c)
);
}
);
vertWidth = 0;
width = 1375;
}
);
metricLeft = C.ss02;
metricWidth = C;
},
{
color = 5;
glyphname = D.ss05;
lastChange = "2023-10-13 22:27:06 +0000";
layers = (
{
layerId = m01;
shapes = (
{
closed = 1;
nodes = (
(328,0,ls),
(965,0,o),
(1377,400,o),
(1544,1197,cs),
(1647,1687,o),
(1415,2008,o),
(935,2008,cs),
(607,2008,ls),
(534,2008,o),
(515,1977,o),
(503,1927,cs),
(47,98,ls),
(35,50,o),
(60,0,o),
(122,0,cs)
);
},
{
closed = 1;
nodes = (
(74,20,o),
(57,54,o),
(67,94,cs),
(523,1923,ls),
(534,1968,o),
(546,1988,o),
(607,1988,cs),
(935,1988,ls),
(1403,1988,o),
(1625,1681,o),
(1524,1201,cs),
(1359,411,o),
(956,20,o),
(328,20,cs),
(122,20,ls)
);
},
{
closed = 1;
nodes = (
(662,1848,l),
(914,1848,ls),
(1276,1848,o),
(1453,1605,o),
(1363,1188,cs),
(1221,510,o),
(878,160,o),
(338,160,cs),
(241,160,l)
);
},
{
closed = 1;
nodes = (
(338,140,ls),
(887,140,o),
(1239,499,o),
(1383,1184,cs),
(1475,1611,o),
(1288,1868,o),
(914,1868,cs),
(646,1868,l),
(215,140,l)
);
},
{
closed = 1;
nodes = (
(612,1881,o),
(628,1898,o),
(628,1919,cs),
(628,1940,o),
(612,1956,o),
(591,1956,cs),
(570,1956,o),
(553,1940,o),
(553,1919,cs),
(553,1898,o),
(570,1881,o),
(591,1881,cs)
);
},
{
closed = 1;
nodes = (
(503,1656,l),
(508,1586,l),
(545,1646,l),
(532,1649,l),
(584,1857,l),
(567,1861,l),
(516,1653,l)
);
}
);
vertWidth = 0;
width = 1444;
},
{
layerId = "6449507E-FEE0-4D4A-A81F-7CAB6A5803D5";
shapes = (
{
closed = 1;
nodes = (
(414,-20,ls),
(1043,-20,o),
(1462,369,o),
(1628,1161,cs),
(1739,1686,o),
(1488,2028,o),
(983,2028,cs),
(684,2028,ls),
(549,2028,o),
(516,1970,o),
(494,1883,cs),
(67,190,ls),
(41,87,o),
(95,-20,o),
(229,-20,cs)
);
},
{
closed = 1;
nodes = (
(122,20,o),
(84,95,o),
(105,180,cs),
(532,1873,ls),
(553,1952,o),
(573,1988,o),
(684,1988,cs),
(983,1988,ls),
(1465,1988,o),
(1696,1673,o),
(1588,1169,cs),
(1426,392,o),
(1025,20,o),
(414,20,cs),
(229,20,ls)
);
},
{
closed = 1;
nodes = (
(807,1689,l),
(965,1689,ls),
(1234,1689,o),
(1340,1493,o),
(1276,1193,cs),
(1154,635,o),
(886,320,o),
(442,320,cs),
(465,320,l)
);
},
{
closed = 1;
nodes = (
(442,280,ls),
(906,280,o),
(1190,615,o),
(1316,1185,cs),
(1383,1503,o),
(1260,1729,o),
(965,1729,cs),
(775,1729,l),
(413,280,l)
);
},
{
closed = 1;
nodes = (
(699,1803,o),
(726,1830,o),
(726,1863,cs),
(726,1896,o),
(699,1923,o),
(666,1923,cs),
(633,1923,o),
(606,1896,o),
(606,1863,cs),
(606,1830,o),
(633,1803,o),
(666,1803,cs)
);
},
{
closed = 1;
nodes = (
(564,1565,l),
(575,1494,l),
(616,1553,l),
(603,1556,l),
(656,1763,l),
(630,1770,l),
(577,1562,l)
);
}
);
vertWidth = 0;
width = 1535;
}
);
metricLeft = D.ss02;
metricWidth = D;
},
{
color = 5;
glyphname = E.ss05;
lastChange = "2023-10-13 22:27:06 +0000";
layers = (
{
layerId = m01;
shapes = (
{
closed = 1;
nodes = (
(1040,0,ls),
(1094,0,o),
(1131,36,o),
(1131,88,cs),
(1131,130,o),
(1094,158,o),
(1040,158,cs),
(241,158,l),
(450,998,l),
(992,998,ls),
(1047,998,o),
(1083,1031,o),
(1083,1078,cs),
(1083,1128,o),
(1047,1156,o),
(992,1156,cs),
(489,1156,l),
(662,1850,l),
(1435,1850,ls),
(1489,1850,o),
(1525,1880,o),
(1525,1930,cs),
(1525,1981,o),
(1489,2008,o),
(1435,2008,cs),
(610,2008,ls),
(539,2008,o),
(515,1978,o),
(502,1925,cs),
(47,100,ls),
(35,51,o),
(59,0,o),
(122,0,cs)
);
},
{
closed = 1;
nodes = (
(73,20,o),
(57,55,o),
(67,96,cs),
(522,1921,ls),
(533,1967,o),
(550,1988,o),
(610,1988,cs),
(1435,1988,ls),
(1481,1988,o),
(1505,1970,o),
(1505,1930,cs),
(1505,1891,o),
(1480,1870,o),
(1435,1870,cs),
(646,1870,l),
(463,1136,l),
(992,1136,ls),
(1039,1136,o),
(1063,1117,o),
(1063,1078,cs),
(1063,1041,o),
(1038,1018,o),
(992,1018,cs),
(434,1018,l),
(215,138,l),
(1040,138,ls),
(1086,138,o),
(1111,119,o),
(1111,88,cs),
(1111,45,o),
(1085,20,o),
(1040,20,cs),
(122,20,ls)
);
},
{
closed = 1;
nodes = (
(612,1881,o),
(628,1898,o),
(628,1919,cs),
(628,1940,o),
(612,1956,o),
(591,1956,cs),
(570,1956,o),
(553,1940,o),
(553,1919,cs),
(553,1898,o),
(570,1881,o),
(591,1881,cs)
);
},
{
closed = 1;
nodes = (
(503,1656,l),
(508,1586,l),
(545,1646,l),
(532,1649,l),
(584,1857,l),
(567,1861,l),
(516,1653,l)
);
}
);
vertWidth = 0;
width = 1185;
},
{
layerId = "6449507E-FEE0-4D4A-A81F-7CAB6A5803D5";
shapes = (
{
closed = 1;
nodes = (
(1071,-20,ls),
(1180,-20,o),
(1249,55,o),
(1249,153,cs),
(1249,238,o),
(1198,317,o),
(1071,317,cs),
(464,317,l),
(609,906,l),
(1029,906,ls),
(1145,906,o),
(1208,981,o),
(1208,1075,cs),
(1208,1170,o),
(1148,1243,o),
(1029,1243,cs),
(692,1243,l),
(801,1691,l),
(1433,1691,ls),
(1551,1691,o),
(1611,1766,o),
(1611,1860,cs),
(1611,1956,o),
(1554,2028,o),
(1433,2028,cs),
(681,2028,ls),
(555,2028,o),
(511,1970,o),
(488,1878,cs),
(68,192,ls),
(40,80,o),
(102,-20,o),
(230,-20,cs)
);
},
{
closed = 1;
nodes = (
(127,20,o),
(83,89,o),
(106,182,cs),
(526,1868,ls),
(546,1950,o),
(577,1988,o),
(681,1988,cs),
(1433,1988,ls),
(1532,1988,o),
(1571,1939,o),
(1571,1860,cs),
(1571,1783,o),
(1529,1731,o),
(1433,1731,cs),
(769,1731,l),
(640,1203,l),
(1029,1203,ls),
(1127,1203,o),
(1168,1153,o),
(1168,1075,cs),
(1168,998,o),
(1124,946,o),
(1029,946,cs),
(577,946,l),
(412,277,l),
(1071,277,ls),
(1174,277,o),
(1209,223,o),
(1209,153,cs),
(1209,73,o),
(1160,20,o),
(1071,20,cs),
(230,20,ls)
);
},
{
closed = 1;
nodes = (
(699,1803,o),
(726,1830,o),
(726,1863,cs),
(726,1896,o),
(699,1923,o),
(666,1923,cs),
(633,1923,o),
(606,1896,o),
(606,1863,cs),
(606,1830,o),
(633,1803,o),
(666,1803,cs)
);
},
{
closed = 1;
nodes = (
(564,1565,l),
(575,1494,l),
(616,1553,l),
(603,1556,l),
(656,1763,l),
(630,1770,l),
(577,1562,l)
);
}
);
vertWidth = 0;
width = 1341;
}
);
metricLeft = E.ss02;
metricWidth = E;
},
{
color = 5;
glyphname = F.ss05;
lastChange = "2023-10-13 22:27:06 +0000";
layers = (
{
layerId = m01;
shapes = (
{
closed = 1;
nodes = (
(196,0,o),
(216,55,o),
(224,88,cs),
(451,997,l),
(994,997,ls),
(1048,997,o),
(1085,1030,o),
(1085,1080,cs),
(1085,1127,o),
(1048,1157,o),
(994,1157,cs),
(490,1157,l),
(663,1850,l),
(1436,1850,ls),
(1490,1850,o),
(1526,1880,o),
(1526,1930,cs),
(1526,1981,o),
(1490,2008,o),
(1436,2008,cs),
(611,2008,ls),
(540,2008,o),
(515,1978,o),
(502,1925,cs),
(47,100,ls),
(35,51,o),
(59,0,o),
(122,0,cs)
);
},
{
closed = 1;
nodes = (
(73,20,o),
(57,55,o),
(67,96,cs),
(522,1921,ls),
(533,1967,o),
(551,1988,o),
(611,1988,cs),
(1436,1988,ls),
(1482,1988,o),
(1506,1970,o),
(1506,1930,cs),
(1506,1891,o),
(1481,1870,o),
(1436,1870,cs),
(647,1870,l),
(464,1137,l),
(994,1137,ls),
(1039,1137,o),
(1065,1116,o),
(1065,1080,cs),
(1065,1040,o),
(1039,1017,o),
(994,1017,cs),
(435,1017,l),
(204,94,ls),
(196,61,o),
(182,20,o),
(122,20,cs)
);
},
{
closed = 1;
nodes = (
(612,1881,o),
(628,1898,o),
(628,1919,cs),
(628,1940,o),
(612,1956,o),
(591,1956,cs),
(570,1956,o),
(553,1940,o),
(553,1919,cs),
(553,1898,o),
(570,1881,o),
(591,1881,cs)
);
},
{
closed = 1;
nodes = (
(503,1656,l),
(508,1586,l),
(545,1646,l),
(532,1649,l),
(584,1857,l),
(567,1861,l),
(516,1653,l)
);
}
);
vertWidth = 0;
width = 1121;
},
{
layerId = "6449507E-FEE0-4D4A-A81F-7CAB6A5803D5";
shapes = (
{
closed = 1;
nodes = (
(360,-20,o),
(399,70,o),
(414,128,cs),
(607,906,l),
(1033,906,ls),
(1149,906,o),
(1211,981,o),
(1211,1074,cs),
(1211,1170,o),
(1154,1242,o),
(1033,1242,cs),
(691,1242,l),
(802,1691,l),
(1438,1691,ls),
(1552,1691,o),
(1615,1766,o),
(1615,1860,cs),
(1615,1956,o),
(1555,2028,o),
(1438,2028,cs),
(682,2028,ls),
(559,2028,o),
(510,1970,o),
(488,1878,cs),
(72,192,l),
(40,79,o),
(102,-20,o),
(232,-20,cs)
);
},
{
closed = 1;
nodes = (
(126,20,o),
(85,89,o),
(110,182,cs),
(526,1868,ls),
(546,1950,o),
(579,1988,o),
(682,1988,cs),
(1438,1988,ls),
(1534,1988,o),
(1575,1939,o),
(1575,1860,cs),
(1575,1783,o),
(1531,1731,o),
(1438,1731,cs),
(770,1731,l),
(639,1202,l),
(1033,1202,ls),
(1132,1202,o),
(1171,1153,o),
(1171,1074,cs),
(1171,998,o),
(1128,946,o),
(1033,946,cs),
(575,946,l),
(376,138,ls),
(361,85,o),
(333,20,o),
(232,20,cs)
);
},
{
closed = 1;
nodes = (
(699,1803,o),
(726,1830,o),
(726,1863,cs),
(726,1896,o),
(699,1923,o),
(666,1923,cs),
(633,1923,o),
(606,1896,o),
(606,1863,cs),
(606,1830,o),
(633,1803,o),
(666,1803,cs)
);
},
{
closed = 1;
nodes = (
(564,1565,l),
(575,1494,l),
(616,1553,l),
(603,1556,l),
(656,1763,l),
(630,1770,l),
(577,1562,l)
);
}
);
vertWidth = 0;
width = 1282;
}
);
metricLeft = F.ss02;
metricWidth = F;
},
{
color = 5;
glyphname = G.ss05;
lastChange = "2023-10-13 22:27:06 +0000";
layers = (
{
layerId = m01;
shapes = (
{
closed = 1;
nodes = (
(765,-20,o),
(956,103,o),
(1124,359,c),
(1058,98,ls),
(1048,59,o),
(1059,0,o),
(1128,0,cs),
(1205,0,o),
(1227,49,o),
(1236,85,cs),
(1451,946,ls),
(1468,1014,o),
(1415,1048,o),
(1371,1048,cs),
(1312,1048,o),
(1297,1039,o),
(1188,766,cs),
(1037,383,o),
(803,138,o),
(565,138,cs),
(340,138,o),
(294,522,o),
(450,1142,cs),
(571,1618,o),
(798,1868,o),
(1069,1868,cs),
(1164,1868,o),
(1235,1807,o),
(1282,1682,cs),
(1300,1634,o),
(1346,1609,o),
(1400,1626,cs),
(1447,1641,o),
(1465,1679,o),
(1450,1722,cs),
(1379,1924,o),
(1256,2028,o),
(1080,2028,cs),
(689,2028,o),
(405,1676,o),
(264,1120,cs),
(91,424,o),
(197,-20,o),
(547,-20,cs)
);
},
{
closed = 1;
nodes = (
(214,0,o),
(112,427,o),
(284,1116,cs),
(423,1665,o),
(700,2008,o),
(1080,2008,cs),
(1248,2008,o),
(1362,1911,o),
(1432,1716,cs),
(1443,1682,o),
(1432,1657,o),
(1394,1646,cs),
(1349,1631,o),
(1314,1648,o),
(1300,1688,cs),
(1249,1819,o),
(1173,1888,o),
(1069,1888,cs),
(788,1888,o),
(553,1629,o),
(430,1146,cs),
(273,521,o),
(320,118,o),
(565,118,cs),
(812,118,o),
(1054,370,o),
(1206,758,cs),
(1312,1023,o),
(1320,1028,o),
(1371,1028,cs),
(1407,1028,o),
(1444,1004,o),
(1431,952,cs),
(1216,91,ls),
(1208,57,o),
(1191,20,o),
(1128,20,cs),
(1076,20,o),
(1069,59,o),
(1078,94,cs),
(1161,417,ls),
(1175,472,o),
(1169,470,o),
(1142,425,cs),
(968,134,o),
(774,0,o),
(547,0,cs)
);
},
{
closed = 1;
nodes = (
(1387,1669,o),
(1403,1686,o),
(1403,1707,cs),
(1403,1728,o),
(1387,1744,o),
(1366,1744,cs),
(1345,1744,o),
(1328,1728,o),
(1328,1707,cs),
(1328,1686,o),
(1345,1669,o),
(1366,1669,cs)
);
},
{
closed = 1;
nodes = (
(1247,1913,l),
(1181,1932,l),
(1225,1878,l),
(1231,1889,l),
(1282,1854,o),
(1312,1820,o),
(1334,1757,c),
(1349,1764,l),
(1328,1827,o),
(1292,1868,o),
(1240,1902,c)
);
}
);
vertWidth = 0;
width = 1454;
},
{
layerId = "6449507E-FEE0-4D4A-A81F-7CAB6A5803D5";
shapes = (
{
closed = 1;
nodes = (
(765,-20,o),
(874,57,o),
(978,188,c),
(971,190,l),
(944,96,o),
(982,0,o),
(1121,0,cs),
(1257,0,o),
(1303,67,o),
(1318,128,cs),
(1518,929,ls),
(1553,1071,o),
(1445,1141,o),
(1354,1141,cs),
(1263,1141,o),
(1217,1112,o),
(1098,825,cs),
(975,520,o),
(806,317,o),
(615,317,cs),
(447,317,o),
(565,951,o),
(606,1103,cs),
(696,1476,o),
(862,1689,o),
(1076,1689,cs),
(1127,1689,o),
(1154,1650,o),
(1181,1582,cs),
(1217,1493,o),
(1298,1442,o),
(1407,1474,cs),
(1513,1506,o),
(1550,1591,o),
(1518,1682,cs),
(1435,1918,o),
(1287,2028,o),
(1089,2028,cs),
(695,2028,o),
(392,1703,o),
(248,1136,cs),
(33,278,o),
(247,-20,o),
(597,-20,cs)
);
},
{
closed = 1;
nodes = (
(271,20,o),
(78,290,o),
(286,1126,cs),
(428,1681,o),
(715,1988,o),
(1089,1988,cs),
(1271,1988,o),
(1402,1892,o),
(1480,1668,cs),
(1507,1595,o),
(1482,1536,o),
(1395,1512,cs),
(1307,1484,o),
(1248,1522,o),
(1219,1596,cs),
(1189,1670,o),
(1150,1729,o),
(1076,1729,cs),
(840,1729,o),
(664,1495,o),
(568,1113,cs),
(532,968,o),
(391,277,o),
(615,277,cs),
(826,277,o),
(1009,498,o),
(1136,809,cs),
(1248,1082,o),
(1277,1101,o),
(1354,1101,cs),
(1431,1101,o),
(1508,1051,o),
(1480,939,cs),
(1280,138,ls),
(1266,82,o),
(1230,40,o),
(1121,40,cs),
(1013,40,o),
(991,100,o),
(1009,180,cs),
(1025,253,ls),
(1044,342,o),
(1042,351,o),
(984,269,cs),
(856,89,o),
(752,20,o),
(597,20,cs)
);
},
{
closed = 1;
nodes = (
(1394,1563,o),
(1421,1590,o),
(1421,1623,cs),
(1421,1656,o),
(1394,1683,o),
(1361,1683,cs),
(1328,1683,o),
(1301,1656,o),
(1301,1623,cs),
(1301,1590,o),
(1328,1563,o),
(1361,1563,cs)
);
},
{
closed = 1;
nodes = (
(1157,1872,l),
(1088,1861,l),
(1147,1820,l),
(1149,1833,l),
(1219,1823,o),
(1267,1789,o),
(1313,1701,c),
(1337,1716,l),
(1289,1805,o),
(1224,1849,o),
(1155,1860,c)
);
}
);
vertWidth = 0;
width = 1536;
}
);
metricLeft = G.ss02;
metricWidth = G;
},
